<svg xmlns="http://www.w3.org/2000/svg" xmlns:xlink="http://www.w3.org/1999/xlink" width="980" height="1328"><g transform="translate(-220 320)"><path d="M0 0h1760v1360H0z" fill="#fff"/><path d="M560-103c0-2.76 2.24-5 5-5h610c2.76 0 5 2.24 5 5v510c0 2.76-2.24 5-5 5H565c-2.76 0-5-2.24-5-5z" stroke="#000" stroke-width="2" fill="#fff"/><path d="M560-70h620M560 328h620" stroke="#000" stroke-width="2" fill="none"/><use xlink:href="#a" transform="matrix(1,0,0,1,568,-108) translate(232.6 22.6)"/><use xlink:href="#b" transform="matrix(1,0,0,1,568,-108) translate(281.55 22.6)"/><use xlink:href="#a" transform="matrix(1,0,0,1,572,-62.400000000000006) translate(0 22.299999999999976)"/><use xlink:href="#c" transform="matrix(1,0,0,1,572,-62.400000000000006) translate(48.95 22.299999999999976)"/><use xlink:href="#d" transform="matrix(1,0,0,1,572,-62.400000000000006) translate(192.8 22.299999999999976)"/><use xlink:href="#e" transform="matrix(1,0,0,1,572,-62.400000000000006) translate(202.8 22.299999999999976)"/><use xlink:href="#f" transform="matrix(1,0,0,1,572,-62.400000000000006) translate(0 43.89999999999998)"/><use xlink:href="#g" transform="matrix(1,0,0,1,572,-62.400000000000006) translate(0 65.49999999999999)"/><use xlink:href="#h" transform="matrix(1,0,0,1,572,-62.400000000000006) translate(0 87.1)"/><use xlink:href="#a" transform="matrix(1,0,0,1,572,-62.400000000000006) translate(0 108.69999999999999)"/><use xlink:href="#i" transform="matrix(1,0,0,1,572,-62.400000000000006) translate(48.95 108.69999999999999)"/><use xlink:href="#d" transform="matrix(1,0,0,1,572,-62.400000000000006) translate(103.95 108.69999999999999)"/><use xlink:href="#j" transform="matrix(1,0,0,1,572,-62.400000000000006) translate(113.95 108.69999999999999)"/><use xlink:href="#a" transform="matrix(1,0,0,1,572,-62.400000000000006) translate(0 130.29999999999998)"/><use xlink:href="#i" transform="matrix(1,0,0,1,572,-62.400000000000006) translate(48.95 130.29999999999998)"/><use xlink:href="#d" transform="matrix(1,0,0,1,572,-62.400000000000006) translate(103.95 130.29999999999998)"/><use xlink:href="#k" transform="matrix(1,0,0,1,572,-62.400000000000006) translate(113.95 130.29999999999998)"/><use xlink:href="#a" transform="matrix(1,0,0,1,572,-62.400000000000006) translate(0 151.89999999999998)"/><use xlink:href="#i" transform="matrix(1,0,0,1,572,-62.400000000000006) translate(48.95 151.89999999999998)"/><use xlink:href="#d" transform="matrix(1,0,0,1,572,-62.400000000000006) translate(103.95 151.89999999999998)"/><use xlink:href="#l" transform="matrix(1,0,0,1,572,-62.400000000000006) translate(113.95 151.89999999999998)"/><use xlink:href="#h" transform="matrix(1,0,0,1,572,-62.400000000000006) translate(0 173.49999999999997)"/><use xlink:href="#m" transform="matrix(1,0,0,1,572,-62.400000000000006) translate(0 195.09999999999997)"/><use xlink:href="#n" transform="matrix(1,0,0,1,572,-62.400000000000006) translate(0 216.69999999999996)"/><use xlink:href="#h" transform="matrix(1,0,0,1,572,-62.400000000000006) translate(0 238.29999999999995)"/><use xlink:href="#o" transform="matrix(1,0,0,1,572,-62.400000000000006) translate(0 259.8999999999999)"/><use xlink:href="#d" transform="matrix(1,0,0,1,572,-62.400000000000006) translate(82.95 259.8999999999999)"/><use xlink:href="#p" transform="matrix(1,0,0,1,572,-62.400000000000006) translate(92.95 259.8999999999999)"/><use xlink:href="#o" transform="matrix(1,0,0,1,572,-62.400000000000006) translate(0 281.49999999999994)"/><use xlink:href="#d" transform="matrix(1,0,0,1,572,-62.400000000000006) translate(82.95 281.49999999999994)"/><use xlink:href="#q" transform="matrix(1,0,0,1,572,-62.400000000000006) translate(92.95 281.49999999999994)"/><use xlink:href="#h" transform="matrix(1,0,0,1,572,-62.400000000000006) translate(0 303.09999999999997)"/><use xlink:href="#r" transform="matrix(1,0,0,1,572,-62.400000000000006) translate(0 324.7)"/><use xlink:href="#s" transform="matrix(1,0,0,1,572,-62.400000000000006) translate(0 346.3)"/><use xlink:href="#o" transform="matrix(1,0,0,1,572,-62.400000000000006) translate(0 367.90000000000003)"/><use xlink:href="#d" transform="matrix(1,0,0,1,572,-62.400000000000006) translate(82.95 367.90000000000003)"/><use xlink:href="#t" transform="matrix(1,0,0,1,572,-62.400000000000006) translate(92.95 367.90000000000003)"/><use xlink:href="#u" transform="matrix(1,0,0,1,572,335.9958620689655) translate(0 16.5)"/><use xlink:href="#v" transform="matrix(1,0,0,1,572,335.9958620689655) translate(73.95 16.5)"/><use xlink:href="#w" transform="matrix(1,0,0,1,572,335.9958620689655) translate(128.85 16.5)"/><use xlink:href="#x" transform="matrix(1,0,0,1,572,335.9958620689655) translate(227.35000000000002 16.5)"/><use xlink:href="#d" transform="matrix(1,0,0,1,572,335.9958620689655) translate(327.20000000000005 16.5)"/><use xlink:href="#y" transform="matrix(1,0,0,1,572,335.9958620689655) translate(337.20000000000005 16.5)"/><use xlink:href="#z" transform="matrix(1,0,0,1,572,335.9958620689655) translate(386.15000000000003 16.5)"/><use xlink:href="#A" transform="matrix(1,0,0,1,572,335.9958620689655) translate(453 16.5)"/><use xlink:href="#B" transform="matrix(1,0,0,1,572,335.9958620689655) translate(0 38.1)"/><use xlink:href="#C" transform="matrix(1,0,0,1,572,335.9958620689655) translate(113.85000000000001 38.1)"/><use xlink:href="#D" transform="matrix(1,0,0,1,572,335.9958620689655) translate(142.8 38.1)"/><use xlink:href="#d" transform="matrix(1,0,0,1,572,335.9958620689655) translate(184.70000000000002 38.1)"/><use xlink:href="#E" transform="matrix(1,0,0,1,572,335.9958620689655) translate(194.70000000000002 38.1)"/><use xlink:href="#F" transform="matrix(1,0,0,1,572,335.9958620689655) translate(0 59.7)"/><use xlink:href="#v" transform="matrix(1,0,0,1,572,335.9958620689655) translate(191.7 59.7)"/><use xlink:href="#G" transform="matrix(1,0,0,1,572,335.9958620689655) translate(246.6 59.7)"/><use xlink:href="#H" transform="matrix(1,0,0,1,572,335.9958620689655) translate(341.45 59.7)"/><use xlink:href="#I" transform="matrix(1,0,0,1,572,335.9958620689655) translate(351.45 59.7)"/><use xlink:href="#d" transform="matrix(1,0,0,1,572,335.9958620689655) translate(414.35 59.7)"/><use xlink:href="#y" transform="matrix(1,0,0,1,572,335.9958620689655) translate(424.35 59.7)"/><use xlink:href="#J" transform="matrix(1,0,0,1,572,335.9958620689655) translate(473.3 59.7)"/><use xlink:href="#K" transform="matrix(1,0,0,1,572,335.9958620689655) translate(575.1 59.7)"/><path d="M240-103c0-2.76 2.24-5 5-5h230c2.76 0 5 2.24 5 5v510c0 2.76-2.24 5-5 5H245c-2.76 0-5-2.24-5-5z" stroke="#000" stroke-width="2" fill="#fff"/><path d="M240-70h240M240 375h240" stroke="#000" stroke-width="2" fill="none"/><g><use xlink:href="#L" transform="matrix(1,0,0,1,248,-108) translate(59.099999999999994 22.6)"/><use xlink:href="#M" transform="matrix(1,0,0,1,248,-108) translate(113.94999999999999 22.6)"/></g><g><use xlink:href="#N" transform="matrix(1,0,0,1,252,-62.400000000000006) translate(0 24.199999999999953)"/><use xlink:href="#O" transform="matrix(1,0,0,1,252,-62.400000000000006) translate(0 45.799999999999955)"/><use xlink:href="#P" transform="matrix(1,0,0,1,252,-62.400000000000006) translate(0 67.39999999999996)"/><use xlink:href="#h" transform="matrix(1,0,0,1,252,-62.400000000000006) translate(0 88.99999999999997)"/><use xlink:href="#Q" transform="matrix(1,0,0,1,252,-62.400000000000006) translate(0 110.59999999999997)"/><use xlink:href="#R" transform="matrix(1,0,0,1,252,-62.400000000000006) translate(0 132.19999999999996)"/><use xlink:href="#f" transform="matrix(1,0,0,1,252,-62.400000000000006) translate(0 153.79999999999995)"/><use xlink:href="#h" transform="matrix(1,0,0,1,252,-62.400000000000006) translate(0 175.39999999999995)"/><use xlink:href="#S" transform="matrix(1,0,0,1,252,-62.400000000000006) translate(0 196.99999999999994)"/><use xlink:href="#T" transform="matrix(1,0,0,1,252,-62.400000000000006) translate(0 218.59999999999994)"/><use xlink:href="#U" transform="matrix(1,0,0,1,252,-62.400000000000006) translate(0 240.19999999999993)"/><use xlink:href="#V" transform="matrix(1,0,0,1,252,-62.400000000000006) translate(0 261.7999999999999)"/><use xlink:href="#h" transform="matrix(1,0,0,1,252,-62.400000000000006) translate(0 283.3999999999999)"/><use xlink:href="#W" transform="matrix(1,0,0,1,252,-62.400000000000006) translate(0 304.99999999999994)"/><use xlink:href="#X" transform="matrix(1,0,0,1,252,-62.400000000000006) translate(0 326.59999999999997)"/><use xlink:href="#Y" transform="matrix(1,0,0,1,252,-62.400000000000006) translate(0 348.2)"/><use xlink:href="#h" transform="matrix(1,0,0,1,252,-62.400000000000006) translate(0 369.8)"/><use xlink:href="#Z" transform="matrix(1,0,0,1,252,-62.400000000000006) translate(0 391.40000000000003)"/><use xlink:href="#aa" transform="matrix(1,0,0,1,252,-62.400000000000006) translate(0 413.00000000000006)"/></g><path d="M240-295c0-2.76 2.24-5 5-5h230c2.76 0 5 2.24 5 5v150c0 2.76-2.24 5-5 5H245c-2.76 0-5-2.24-5-5z" stroke="#000" stroke-width="2" fill="#fff"/><path d="M240-262h240M240-150h240" stroke="#000" stroke-width="2" fill="none"/><g><use xlink:href="#L" transform="matrix(1,0,0,1,248,-300) translate(41.175 22.6)"/><use xlink:href="#ab" transform="matrix(1,0,0,1,248,-300) translate(96.025 22.6)"/></g><g><use xlink:href="#ac" transform="matrix(1,0,0,1,252,-254.39999999999998) translate(0 14.4)"/><use xlink:href="#ad" transform="matrix(1,0,0,1,252,-254.39999999999998) translate(0 36)"/><use xlink:href="#h" transform="matrix(1,0,0,1,252,-254.39999999999998) translate(0 57.6)"/><use xlink:href="#ae" transform="matrix(1,0,0,1,252,-254.39999999999998) translate(0 79.20000000000002)"/><use xlink:href="#af" transform="matrix(1,0,0,1,252,-254.39999999999998) translate(65.9 79.20000000000002)"/><use xlink:href="#y" transform="matrix(1,0,0,1,252,-254.39999999999998) translate(81.4 79.20000000000002)"/><use xlink:href="#ag" transform="matrix(1,0,0,1,252,-254.39999999999998) translate(130.35000000000002 79.20000000000002)"/><use xlink:href="#h" transform="matrix(1,0,0,1,252,-254.39999999999998) translate(0 100.80000000000001)"/><use xlink:href="#ah" transform="matrix(1,0,0,1,252,-254.39999999999998) translate(0 122.4)"/></g><path d="M580 505c0-2.76 2.24-5 5-5h190c2.76 0 5 2.24 5 5v170c0 2.76-2.24 5-5 5H585c-2.76 0-5-2.24-5-5z" stroke="#000" stroke-width="2" fill="#fff"/><path d="M580 538h200M580 658h200" stroke="#000" stroke-width="2" fill="none"/><g><use xlink:href="#L" transform="matrix(1,0,0,1,588,500) translate(30.174999999999997 22.6)"/><use xlink:href="#ai" transform="matrix(1,0,0,1,588,500) translate(85.025 22.6)"/></g><g><use xlink:href="#aj" transform="matrix(1,0,0,1,592,545.6) translate(0 14.4)"/><use xlink:href="#ak" transform="matrix(1,0,0,1,592,545.6) translate(0 36)"/><use xlink:href="#al" transform="matrix(1,0,0,1,592,545.6) translate(0 57.6)"/><use xlink:href="#h" transform="matrix(1,0,0,1,592,545.6) translate(0 79.20000000000002)"/><use xlink:href="#am" transform="matrix(1,0,0,1,592,545.6) translate(0 100.80000000000001)"/></g><path d="M420 500v-38.5c0-2.76 2.24-5 5-5h178c2.76 0 5-2.24 5-5V413" stroke="#000" stroke-width="2" fill="none"/><path d="M612.64 427.27h-9.28L608 413z"/><path d="M614 428.27h-12l5.27-16.27h1.46zm-9.26-2h6.52L608 416.24z"/><path d="M800 565c0-2.76 2.24-5 5-5h170c2.76 0 5 2.24 5 5v110c0 2.76-2.24 5-5 5H805c-2.76 0-5-2.24-5-5z" stroke="#000" stroke-width="2" fill="#fff"/><path d="M800 598h180" stroke="#000" stroke-width="2" fill="none"/><g><use xlink:href="#L" transform="matrix(1,0,0,1,808,560) translate(33.625 22.6)"/><use xlink:href="#an" transform="matrix(1,0,0,1,808,560) translate(88.475 22.6)"/></g><g><use xlink:href="#ao" transform="matrix(1,0,0,1,812,605.6) translate(0 15.500000000000002)"/><use xlink:href="#ap" transform="matrix(1,0,0,1,812,605.6) translate(0 37.1)"/><use xlink:href="#aq" transform="matrix(1,0,0,1,812,605.6) translate(0 58.7)"/></g><path d="M320 505c0-2.76 2.24-5 5-5h190c2.76 0 5 2.24 5 5v170c0 2.76-2.24 5-5 5H325c-2.76 0-5-2.24-5-5z" stroke="#000" stroke-width="2" fill="#fff"/><path d="M320 538h200" stroke="#000" stroke-width="2" fill="none"/><g><use xlink:href="#ar" transform="matrix(1,0,0,1,328,500) translate(17.099999999999994 22.6)"/></g><g><use xlink:href="#as" transform="matrix(1,0,0,1,332,545.6) translate(0 14.4)"/><use xlink:href="#at" transform="matrix(1,0,0,1,332,545.6) translate(67.95 14.4)"/><use xlink:href="#au" transform="matrix(1,0,0,1,332,545.6) translate(136.85000000000002 14.4)"/><use xlink:href="#av" transform="matrix(1,0,0,1,332,545.6) translate(156.85000000000002 14.4)"/><use xlink:href="#aw" transform="matrix(1,0,0,1,332,545.6) translate(0 36)"/><use xlink:href="#ax" transform="matrix(1,0,0,1,332,545.6) translate(0 57.6)"/><use xlink:href="#ay" transform="matrix(1,0,0,1,332,545.6) translate(0 79.20000000000002)"/><use xlink:href="#az" transform="matrix(1,0,0,1,332,545.6) translate(0 100.80000000000001)"/><use xlink:href="#aA" transform="matrix(1,0,0,1,332,545.6) translate(0 122.4)"/></g><path d="M1090 800v40" stroke="#000" stroke-width="2" fill="none"/><path d="M1094.64 814.27h-9.28L1090 800z"/><path d="M1096 815.27h-12l4.95-15.27h2.1zm-9.26-2h6.52l-3.26-10.03z"/><path d="M1090 660v40" stroke="#000" stroke-width="2" fill="none"/><path d="M1094.64 674.27h-9.28L1090 660z"/><path d="M1096 675.27h-12l4.95-15.27h2.1zm-9.26-2h6.52l-3.26-10.03z"/><path d="M1000 705c0-2.76 2.24-5 5-5h170c2.76 0 5 2.24 5 5v90c0 2.76-2.24 5-5 5h-170c-2.76 0-5-2.24-5-5z" stroke="#000" stroke-width="2" fill="#fff"/><path d="M1000 738h180" stroke="#000" stroke-width="2" fill="none"/><g><use xlink:href="#L" transform="matrix(1,0,0,1,1008,700) translate(2.1499999999999915 22.6)"/><use xlink:href="#aB" transform="matrix(1,0,0,1,1008,700) translate(56.99999999999999 22.6)"/></g><g><use xlink:href="#a" transform="matrix(1,0,0,1,1012,745.6) translate(0 27.1)"/><use xlink:href="#aC" transform="matrix(1,0,0,1,1012,745.6) translate(48.95 27.1)"/><use xlink:href="#aD" transform="matrix(1,0,0,1,1012,745.6) translate(93.9 27.1)"/></g><path d="M1000 565c0-2.76 2.24-5 5-5h170c2.76 0 5 2.24 5 5v90c0 2.76-2.24 5-5 5h-170c-2.76 0-5-2.24-5-5z" stroke="#000" stroke-width="2" fill="#fff"/><path d="M1000 598h180" stroke="#000" stroke-width="2" fill="none"/><g><use xlink:href="#L" transform="matrix(1,0,0,1,1008,560) translate(28.15 22.6)"/><use xlink:href="#aE" transform="matrix(1,0,0,1,1008,560) translate(83 22.6)"/></g><g><use xlink:href="#a" transform="matrix(1,0,0,1,1012,605.6) translate(0 27.1)"/><use xlink:href="#aF" transform="matrix(1,0,0,1,1012,605.6) translate(48.95 27.1)"/></g><path d="M1000 845c0-2.76 2.24-5 5-5h170c2.76 0 5 2.24 5 5v130c0 2.76-2.24 5-5 5h-170c-2.76 0-5-2.24-5-5z" stroke="#000" stroke-width="2" fill="#fff"/><path d="M1000 878h180" stroke="#000" stroke-width="2" fill="none"/><g><use xlink:href="#aG" transform="matrix(1,0,0,1,1008,840) translate(32.625 22.6)"/><use xlink:href="#aH" transform="matrix(1,0,0,1,1008,840) translate(87.475 22.6)"/></g><g><use xlink:href="#aI" transform="matrix(1,0,0,1,1012,885.6) translate(0 14.4)"/><use xlink:href="#h" transform="matrix(1,0,0,1,1012,885.6) translate(0 36)"/><use xlink:href="#aJ" transform="matrix(1,0,0,1,1012,885.6) translate(0 57.6)"/><use xlink:href="#aK" transform="matrix(1,0,0,1,1012,885.6) translate(0 79.20000000000002)"/><use xlink:href="#ah" transform="matrix(1,0,0,1,1012,885.6) translate(0 100.80000000000001)"/></g><path d="M890 560V413" stroke="#000" stroke-width="2" fill="none"/><path d="M894.64 427.27h-9.28L890 413z"/><path d="M896 428.27h-12l5.27-16.27h1.46zm-9.26-2h6.52L890 416.24z"/><path d="M1090 560V413" stroke="#000" stroke-width="2" fill="none"/><path d="M1094.64 427.27h-9.28L1090 413z"/><path d="M1096 428.27h-12l5.27-16.27h1.46zm-9.26-2h6.52l-3.26-10.03z"/><path d="M420 500v-39c0-2.76-2.24-5-5-5h-50c-2.76 0-5-2.24-5-5v-39" stroke="#000" stroke-width="2" fill="none"/><path d="M364.64 426.27h-9.28L360 412z"/><path d="M366 427.27h-12l4.95-15.27h2.1zm-9.26-2h6.52L360 415.24z"/><path d="M680 500v-87" stroke="#000" stroke-width="2" fill="none"/><path d="M684.64 427.27h-9.28L680 413z"/><path d="M686 428.27h-12l5.27-16.27h1.46zm-9.26-2h6.52L680 416.24z"/><path d="M360-108v-31" stroke="#000" stroke-width="2" fill="none"/><path d="M364.64-124.73h-9.28L360-139z"/><path d="M366-123.73h-12l5.27-16.27h1.46zm-9.26-2h6.52L360-135.76z"/><defs><path d="M135-143c-3-34-86-38-87 0 15 53 115 12 119 90S17 21 10-45l28-5c4 36 97 45 98 0-10-56-113-15-118-90-4-57 82-63 122-42 12 7 21 19 24 35" id="aL"/><path d="M59-47c-2 24 18 29 38 22v24C64 9 27 4 27-40v-127H5v-23h24l9-43h21v43h35v23H59v120" id="aM"/><path d="M114-163C36-179 61-72 57 0H25l-1-190h30c1 12-1 29 2 39 6-27 23-49 58-41v29" id="aN"/><path d="M84 4C-5 8 30-112 23-190h32v120c0 31 7 50 39 49 72-2 45-101 50-169h31l1 190h-30c-1-10 1-25-2-33-11 22-28 36-60 37" id="aO"/><path d="M96-169c-40 0-48 33-48 73s9 75 48 75c24 0 41-14 43-38l32 2c-6 37-31 61-74 61-59 0-76-41-82-99-10-93 101-131 147-64 4 7 5 14 7 22l-32 3c-4-21-16-35-41-35" id="aP"/><g id="a"><use transform="matrix(0.05,0,0,0.05,0,0)" xlink:href="#aL"/><use transform="matrix(0.05,0,0,0.05,9,0)" xlink:href="#aM"/><use transform="matrix(0.05,0,0,0.05,14,0)" xlink:href="#aN"/><use transform="matrix(0.05,0,0,0.05,19.95,0)" xlink:href="#aO"/><use transform="matrix(0.05,0,0,0.05,29.950000000000003,0)" xlink:href="#aP"/><use transform="matrix(0.05,0,0,0.05,38.95,0)" xlink:href="#aM"/></g><path d="M210-169c-67 3-38 105-44 169h-31v-121c0-29-5-50-35-48C34-165 62-65 56 0H25l-1-190h30c1 10-1 24 2 32 10-44 99-50 107 0 11-21 27-35 58-36 85-2 47 119 55 194h-31v-121c0-29-5-49-35-48" id="aQ"/><path d="M145-31C134-9 116 4 85 4 32 4 16-35 15-94c0-59 17-99 70-100 32-1 48 14 60 33 0-11-1-24 2-32h30l-1 268h-32zM93-21c41 0 51-33 51-76s-8-73-50-73c-40 0-46 35-46 75s5 74 45 74" id="aR"/><path d="M-5 72V49h209v23H-5" id="aS"/><path d="M115-194c55 1 70 41 70 98S169 2 115 4C84 4 66-9 55-30l1 105H24l-1-265h31l2 30c10-21 28-34 59-34zm-8 174c40 0 45-34 45-75s-6-73-45-74c-42 0-51 32-51 76 0 43 10 73 51 73" id="aT"/><path d="M100-194c62-1 85 37 85 99 1 63-27 99-86 99S16-35 15-95c0-66 28-99 85-99zM99-20c44 1 53-31 53-75 0-43-8-75-51-75s-53 32-53 75 10 74 51 75" id="aU"/><path d="M24 0v-261h32V0H24" id="aV"/><path d="M24-231v-30h32v30H24zM24 0v-190h32V0H24" id="aW"/><path d="M179-190L93 31C79 59 56 82 12 73V49c39 6 53-20 64-50L1-190h34L92-34l54-156h33" id="aX"/><g id="b"><use transform="matrix(0.05,0,0,0.05,0,0)" xlink:href="#aL"/><use transform="matrix(0.05,0,0,0.05,9,0)" xlink:href="#aQ"/><use transform="matrix(0.05,0,0,0.05,23.950000000000003,0)" xlink:href="#aR"/><use transform="matrix(0.05,0,0,0.05,33.95,0)" xlink:href="#aS"/><use transform="matrix(0.05,0,0,0.05,43.95,0)" xlink:href="#aT"/><use transform="matrix(0.05,0,0,0.05,53.95,0)" xlink:href="#aU"/><use transform="matrix(0.05,0,0,0.05,63.95,0)" xlink:href="#aV"/><use transform="matrix(0.05,0,0,0.05,67.9,0)" xlink:href="#aW"/><use transform="matrix(0.05,0,0,0.05,71.85000000000001,0)" xlink:href="#aP"/><use transform="matrix(0.05,0,0,0.05,80.85000000000001,0)" xlink:href="#aX"/></g><path d="M85-194c31 0 48 13 60 33l-1-100h32l1 261h-30c-2-10 0-23-3-31C134-8 116 4 85 4 32 4 16-35 15-94c0-66 23-100 70-100zm9 24c-40 0-46 34-46 75 0 40 6 74 45 74 42 0 51-32 51-76 0-42-9-74-50-73" id="aY"/><path d="M141-36C126-15 110 5 73 4 37 3 15-17 15-53c-1-64 63-63 125-63 3-35-9-54-41-54-24 1-41 7-42 31l-33-3c5-37 33-52 76-52 45 0 72 20 72 64v82c-1 20 7 32 28 27v20c-31 9-61-2-59-35zM48-53c0 20 12 33 32 33 41-3 63-29 60-74-43 2-92-5-92 41" id="aZ"/><path d="M106-169C34-169 62-67 57 0H25v-261h32l-1 103c12-21 28-36 61-36 89 0 53 116 60 194h-32v-121c2-32-8-49-39-48" id="ba"/><path d="M100-194c63 0 86 42 84 106H49c0 40 14 67 53 68 26 1 43-12 49-29l28 8c-11 28-37 45-77 45C44 4 14-33 15-96c1-61 26-98 85-98zm52 81c6-60-76-77-97-28-3 7-6 17-6 28h103" id="bb"/><g id="c"><use transform="matrix(0.05,0,0,0.05,0,0)" xlink:href="#aY"/><use transform="matrix(0.05,0,0,0.05,10,0)" xlink:href="#aQ"/><use transform="matrix(0.05,0,0,0.05,24.950000000000003,0)" xlink:href="#aS"/><use transform="matrix(0.05,0,0,0.05,34.95,0)" xlink:href="#aP"/><use transform="matrix(0.05,0,0,0.05,43.95,0)" xlink:href="#aZ"/><use transform="matrix(0.05,0,0,0.05,53.95,0)" xlink:href="#aP"/><use transform="matrix(0.05,0,0,0.05,62.95,0)" xlink:href="#ba"/><use transform="matrix(0.05,0,0,0.05,72.95,0)" xlink:href="#bb"/><use transform="matrix(0.05,0,0,0.05,82.95,0)" xlink:href="#aS"/><use transform="matrix(0.05,0,0,0.05,92.95,0)" xlink:href="#aT"/><use transform="matrix(0.05,0,0,0.05,102.95,0)" xlink:href="#aU"/><use transform="matrix(0.05,0,0,0.05,112.95,0)" xlink:href="#aV"/><use transform="matrix(0.05,0,0,0.05,116.9,0)" xlink:href="#aW"/><use transform="matrix(0.05,0,0,0.05,120.85000000000001,0)" xlink:href="#aP"/><use transform="matrix(0.05,0,0,0.05,129.85000000000002,0)" xlink:href="#aX"/></g><path d="M33-154v-36h34v36H33zM33 0v-36h34V0H33" id="bc"/><use transform="matrix(0.05,0,0,0.05,0,0)" xlink:href="#bc" id="d"/><g id="e"><use transform="matrix(0.05,0,0,0.05,0,0)" xlink:href="#aT"/><use transform="matrix(0.05,0,0,0.05,10,0)" xlink:href="#aU"/><use transform="matrix(0.05,0,0,0.05,20,0)" xlink:href="#aV"/><use transform="matrix(0.05,0,0,0.05,23.95,0)" xlink:href="#aW"/><use transform="matrix(0.05,0,0,0.05,27.899999999999995,0)" xlink:href="#aP"/><use transform="matrix(0.05,0,0,0.05,36.9,0)" xlink:href="#aX"/></g><path d="M9 0v-24l116-142H16v-24h144v24L44-24h123V0H9" id="bd"/><g id="f"><use transform="matrix(0.05,0,0,0.05,0,0)" xlink:href="#aP"/><use transform="matrix(0.05,0,0,0.05,9,0)" xlink:href="#aZ"/><use transform="matrix(0.05,0,0,0.05,19,0)" xlink:href="#aP"/><use transform="matrix(0.05,0,0,0.05,28,0)" xlink:href="#ba"/><use transform="matrix(0.05,0,0,0.05,38,0)" xlink:href="#bb"/><use transform="matrix(0.05,0,0,0.05,48,0)" xlink:href="#aS"/><use transform="matrix(0.05,0,0,0.05,58,0)" xlink:href="#aL"/><use transform="matrix(0.05,0,0,0.05,67,0)" xlink:href="#aW"/><use transform="matrix(0.05,0,0,0.05,70.95,0)" xlink:href="#bd"/><use transform="matrix(0.05,0,0,0.05,79.95,0)" xlink:href="#bb"/></g><path d="M115-194c53 0 69 39 70 98 0 66-23 100-70 100C84 3 66-7 56-30L54 0H23l1-261h32v101c10-23 28-34 59-34zm-8 174c40 0 45-34 45-75 0-40-5-75-45-74-42 0-51 32-51 76 0 43 10 73 51 73" id="be"/><path d="M143 0L79-87 56-68V0H24v-261h32v163l83-92h37l-77 82L181 0h-38" id="bf"/><g id="g"><use transform="matrix(0.05,0,0,0.05,0,0)" xlink:href="#aP"/><use transform="matrix(0.05,0,0,0.05,9,0)" xlink:href="#aZ"/><use transform="matrix(0.05,0,0,0.05,19,0)" xlink:href="#aP"/><use transform="matrix(0.05,0,0,0.05,28,0)" xlink:href="#ba"/><use transform="matrix(0.05,0,0,0.05,38,0)" xlink:href="#bb"/><use transform="matrix(0.05,0,0,0.05,48,0)" xlink:href="#aS"/><use transform="matrix(0.05,0,0,0.05,58,0)" xlink:href="#be"/><use transform="matrix(0.05,0,0,0.05,68,0)" xlink:href="#aV"/><use transform="matrix(0.05,0,0,0.05,71.95,0)" xlink:href="#aU"/><use transform="matrix(0.05,0,0,0.05,81.95,0)" xlink:href="#aP"/><use transform="matrix(0.05,0,0,0.05,90.95,0)" xlink:href="#bf"/><use transform="matrix(0.05,0,0,0.05,99.95,0)" xlink:href="#aS"/><use transform="matrix(0.05,0,0,0.05,109.95,0)" xlink:href="#aL"/><use transform="matrix(0.05,0,0,0.05,118.95,0)" xlink:href="#aW"/><use transform="matrix(0.05,0,0,0.05,122.9,0)" xlink:href="#bd"/><use transform="matrix(0.05,0,0,0.05,131.9,0)" xlink:href="#bb"/></g><g id="i"><use transform="matrix(0.05,0,0,0.05,0,0)" xlink:href="#aR"/><use transform="matrix(0.05,0,0,0.05,10,0)" xlink:href="#aO"/><use transform="matrix(0.05,0,0,0.05,20,0)" xlink:href="#bb"/><use transform="matrix(0.05,0,0,0.05,30,0)" xlink:href="#aO"/><use transform="matrix(0.05,0,0,0.05,40,0)" xlink:href="#bb"/></g><g id="j"><use transform="matrix(0.05,0,0,0.05,0,0)" xlink:href="#ba"/><use transform="matrix(0.05,0,0,0.05,10,0)" xlink:href="#aU"/><use transform="matrix(0.05,0,0,0.05,20,0)" xlink:href="#aM"/><use transform="matrix(0.05,0,0,0.05,25,0)" xlink:href="#aL"/><use transform="matrix(0.05,0,0,0.05,34,0)" xlink:href="#aT"/><use transform="matrix(0.05,0,0,0.05,44,0)" xlink:href="#aU"/><use transform="matrix(0.05,0,0,0.05,54,0)" xlink:href="#aM"/></g><path d="M117-194c89-4 53 116 60 194h-32v-121c0-31-8-49-39-48C34-167 62-67 57 0H25l-1-190h30c1 10-1 24 2 32 11-22 29-35 61-36" id="bg"/><g id="k"><use transform="matrix(0.05,0,0,0.05,0,0)" xlink:href="#aP"/><use transform="matrix(0.05,0,0,0.05,9,0)" xlink:href="#aV"/><use transform="matrix(0.05,0,0,0.05,12.949999999999998,0)" xlink:href="#bb"/><use transform="matrix(0.05,0,0,0.05,22.95,0)" xlink:href="#aZ"/><use transform="matrix(0.05,0,0,0.05,32.95,0)" xlink:href="#bg"/></g><g id="l"><use transform="matrix(0.05,0,0,0.05,0,0)" xlink:href="#aY"/><use transform="matrix(0.05,0,0,0.05,10,0)" xlink:href="#aW"/><use transform="matrix(0.05,0,0,0.05,13.949999999999998,0)" xlink:href="#aN"/><use transform="matrix(0.05,0,0,0.05,19.9,0)" xlink:href="#aM"/><use transform="matrix(0.05,0,0,0.05,24.9,0)" xlink:href="#aX"/></g><g id="m"><use transform="matrix(0.05,0,0,0.05,0,0)" xlink:href="#ba"/><use transform="matrix(0.05,0,0,0.05,10,0)" xlink:href="#aU"/><use transform="matrix(0.05,0,0,0.05,20,0)" xlink:href="#aM"/><use transform="matrix(0.05,0,0,0.05,25,0)" xlink:href="#aL"/><use transform="matrix(0.05,0,0,0.05,34,0)" xlink:href="#aT"/><use transform="matrix(0.05,0,0,0.05,44,0)" xlink:href="#aU"/><use transform="matrix(0.05,0,0,0.05,54,0)" xlink:href="#aM"/><use transform="matrix(0.05,0,0,0.05,59,0)" xlink:href="#aS"/><use transform="matrix(0.05,0,0,0.05,69,0)" xlink:href="#aL"/><use transform="matrix(0.05,0,0,0.05,78,0)" xlink:href="#aM"/><use transform="matrix(0.05,0,0,0.05,83,0)" xlink:href="#aZ"/><use transform="matrix(0.05,0,0,0.05,93,0)" xlink:href="#aM"/><use transform="matrix(0.05,0,0,0.05,98,0)" xlink:href="#aO"/><use transform="matrix(0.05,0,0,0.05,108,0)" xlink:href="#aL"/></g><g id="n"><use transform="matrix(0.05,0,0,0.05,0,0)" xlink:href="#aP"/><use transform="matrix(0.05,0,0,0.05,9,0)" xlink:href="#aZ"/><use transform="matrix(0.05,0,0,0.05,19,0)" xlink:href="#aP"/><use transform="matrix(0.05,0,0,0.05,28,0)" xlink:href="#ba"/><use transform="matrix(0.05,0,0,0.05,38,0)" xlink:href="#bb"/><use transform="matrix(0.05,0,0,0.05,48,0)" xlink:href="#aS"/><use transform="matrix(0.05,0,0,0.05,58,0)" xlink:href="#aL"/><use transform="matrix(0.05,0,0,0.05,67,0)" xlink:href="#aM"/><use transform="matrix(0.05,0,0,0.05,72,0)" xlink:href="#aZ"/><use transform="matrix(0.05,0,0,0.05,82,0)" xlink:href="#aM"/><use transform="matrix(0.05,0,0,0.05,87,0)" xlink:href="#aO"/><use transform="matrix(0.05,0,0,0.05,97,0)" xlink:href="#aL"/></g><g id="o"><use transform="matrix(0.05,0,0,0.05,0,0)" xlink:href="#ba"/><use transform="matrix(0.05,0,0,0.05,10,0)" xlink:href="#aZ"/><use transform="matrix(0.05,0,0,0.05,20,0)" xlink:href="#aL"/><use transform="matrix(0.05,0,0,0.05,29,0)" xlink:href="#ba"/><use transform="matrix(0.05,0,0,0.05,39,0)" xlink:href="#aM"/><use transform="matrix(0.05,0,0,0.05,44,0)" xlink:href="#aZ"/><use transform="matrix(0.05,0,0,0.05,54,0)" xlink:href="#be"/><use transform="matrix(0.05,0,0,0.05,64,0)" xlink:href="#aV"/><use transform="matrix(0.05,0,0,0.05,67.95,0)" xlink:href="#bb"/></g><g id="p"><use transform="matrix(0.05,0,0,0.05,0,0)" xlink:href="#aP"/><use transform="matrix(0.05,0,0,0.05,9,0)" xlink:href="#aZ"/><use transform="matrix(0.05,0,0,0.05,19,0)" xlink:href="#aP"/><use transform="matrix(0.05,0,0,0.05,28,0)" xlink:href="#ba"/><use transform="matrix(0.05,0,0,0.05,38,0)" xlink:href="#bb"/><use transform="matrix(0.05,0,0,0.05,48,0)" xlink:href="#aS"/><use transform="matrix(0.05,0,0,0.05,58,0)" xlink:href="#bb"/><use transform="matrix(0.05,0,0,0.05,68,0)" xlink:href="#bg"/><use transform="matrix(0.05,0,0,0.05,78,0)" xlink:href="#aM"/><use transform="matrix(0.05,0,0,0.05,83,0)" xlink:href="#aN"/><use transform="matrix(0.05,0,0,0.05,88.95,0)" xlink:href="#aW"/><use transform="matrix(0.05,0,0,0.05,92.9,0)" xlink:href="#bb"/><use transform="matrix(0.05,0,0,0.05,102.9,0)" xlink:href="#aL"/></g><g id="q"><use transform="matrix(0.05,0,0,0.05,0,0)" xlink:href="#ba"/><use transform="matrix(0.05,0,0,0.05,10,0)" xlink:href="#aU"/><use transform="matrix(0.05,0,0,0.05,20,0)" xlink:href="#aM"/><use transform="matrix(0.05,0,0,0.05,25,0)" xlink:href="#aL"/><use transform="matrix(0.05,0,0,0.05,34,0)" xlink:href="#aT"/><use transform="matrix(0.05,0,0,0.05,44,0)" xlink:href="#aU"/><use transform="matrix(0.05,0,0,0.05,54,0)" xlink:href="#aM"/><use transform="matrix(0.05,0,0,0.05,59,0)" xlink:href="#aS"/><use transform="matrix(0.05,0,0,0.05,69,0)" xlink:href="#bb"/><use transform="matrix(0.05,0,0,0.05,79,0)" xlink:href="#bg"/><use transform="matrix(0.05,0,0,0.05,89,0)" xlink:href="#aM"/><use transform="matrix(0.05,0,0,0.05,94,0)" xlink:href="#aN"/><use transform="matrix(0.05,0,0,0.05,99.95,0)" xlink:href="#aW"/><use transform="matrix(0.05,0,0,0.05,103.9,0)" xlink:href="#bb"/><use transform="matrix(0.05,0,0,0.05,113.9,0)" xlink:href="#aL"/></g><path d="M101-234c-31-9-42 10-38 44h38v23H63V0H32v-167H5v-23h27c-7-52 17-82 69-68v24" id="bh"/><g id="r"><use transform="matrix(0.05,0,0,0.05,0,0)" xlink:href="#bh"/><use transform="matrix(0.05,0,0,0.05,5,0)" xlink:href="#aW"/><use transform="matrix(0.05,0,0,0.05,8.95,0)" xlink:href="#aV"/><use transform="matrix(0.05,0,0,0.05,12.899999999999999,0)" xlink:href="#bb"/><use transform="matrix(0.05,0,0,0.05,22.9,0)" xlink:href="#aS"/><use transform="matrix(0.05,0,0,0.05,32.9,0)" xlink:href="#aW"/><use transform="matrix(0.05,0,0,0.05,36.85,0)" xlink:href="#bg"/><use transform="matrix(0.05,0,0,0.05,46.85,0)" xlink:href="#bh"/><use transform="matrix(0.05,0,0,0.05,51.85,0)" xlink:href="#aU"/><use transform="matrix(0.05,0,0,0.05,61.85,0)" xlink:href="#aS"/><use transform="matrix(0.05,0,0,0.05,71.85,0)" xlink:href="#aV"/><use transform="matrix(0.05,0,0,0.05,75.8,0)" xlink:href="#aW"/><use transform="matrix(0.05,0,0,0.05,79.75,0)" xlink:href="#aL"/><use transform="matrix(0.05,0,0,0.05,88.75,0)" xlink:href="#aM"/></g><g id="s"><use transform="matrix(0.05,0,0,0.05,0,0)" xlink:href="#bh"/><use transform="matrix(0.05,0,0,0.05,5,0)" xlink:href="#aW"/><use transform="matrix(0.05,0,0,0.05,8.95,0)" xlink:href="#aV"/><use transform="matrix(0.05,0,0,0.05,12.899999999999999,0)" xlink:href="#bb"/><use transform="matrix(0.05,0,0,0.05,22.9,0)" xlink:href="#aS"/><use transform="matrix(0.05,0,0,0.05,32.9,0)" xlink:href="#aM"/><use transform="matrix(0.05,0,0,0.05,37.9,0)" xlink:href="#aN"/><use transform="matrix(0.05,0,0,0.05,43.85,0)" xlink:href="#aZ"/><use transform="matrix(0.05,0,0,0.05,53.85,0)" xlink:href="#aP"/><use transform="matrix(0.05,0,0,0.05,62.85,0)" xlink:href="#bf"/><use transform="matrix(0.05,0,0,0.05,71.85,0)" xlink:href="#aS"/><use transform="matrix(0.05,0,0,0.05,81.85,0)" xlink:href="#bg"/><use transform="matrix(0.05,0,0,0.05,91.85,0)" xlink:href="#aN"/></g><g id="t"><use transform="matrix(0.05,0,0,0.05,0,0)" xlink:href="#be"/><use transform="matrix(0.05,0,0,0.05,10,0)" xlink:href="#aV"/><use transform="matrix(0.05,0,0,0.05,13.949999999999998,0)" xlink:href="#aU"/><use transform="matrix(0.05,0,0,0.05,23.95,0)" xlink:href="#aP"/><use transform="matrix(0.05,0,0,0.05,32.95,0)" xlink:href="#bf"/><use transform="matrix(0.05,0,0,0.05,41.95,0)" xlink:href="#aS"/><use transform="matrix(0.05,0,0,0.05,51.95,0)" xlink:href="#aM"/><use transform="matrix(0.05,0,0,0.05,56.95,0)" xlink:href="#aU"/><use transform="matrix(0.05,0,0,0.05,66.95,0)" xlink:href="#aS"/><use transform="matrix(0.05,0,0,0.05,76.95,0)" xlink:href="#aW"/><use transform="matrix(0.05,0,0,0.05,80.9,0)" xlink:href="#bg"/><use transform="matrix(0.05,0,0,0.05,90.9,0)" xlink:href="#aU"/><use transform="matrix(0.05,0,0,0.05,100.9,0)" xlink:href="#aY"/><use transform="matrix(0.05,0,0,0.05,110.9,0)" xlink:href="#bb"/></g><path d="M177-190C167-65 218 103 67 71c-23-6-38-20-44-43l32-5c15 47 100 32 89-28v-30C133-14 115 1 83 1 29 1 15-40 15-95c0-56 16-97 71-98 29-1 48 16 59 35 1-10 0-23 2-32h30zM94-22c36 0 50-32 50-73 0-42-14-75-50-75-39 0-46 34-46 75s6 73 46 73" id="bi"/><g id="u"><use transform="matrix(0.05,0,0,0.05,0,0)" xlink:href="#bi"/><use transform="matrix(0.05,0,0,0.05,10,0)" xlink:href="#bb"/><use transform="matrix(0.05,0,0,0.05,20,0)" xlink:href="#aM"/><use transform="matrix(0.05,0,0,0.05,25,0)" xlink:href="#aS"/><use transform="matrix(0.05,0,0,0.05,35,0)" xlink:href="#bh"/><use transform="matrix(0.05,0,0,0.05,40,0)" xlink:href="#aW"/><use transform="matrix(0.05,0,0,0.05,43.95,0)" xlink:href="#bg"/><use transform="matrix(0.05,0,0,0.05,53.95,0)" xlink:href="#bh"/><use transform="matrix(0.05,0,0,0.05,58.95,0)" xlink:href="#aU"/></g><path d="M87 75C49 33 22-17 22-94c0-76 28-126 65-167h31c-38 41-64 92-64 168S80 34 118 75H87" id="bj"/><g id="v"><use transform="matrix(0.05,0,0,0.05,0,0)" xlink:href="#bj"/><use transform="matrix(0.05,0,0,0.05,5.95,0)" xlink:href="#aL"/><use transform="matrix(0.05,0,0,0.05,14.949999999999998,0)" xlink:href="#aM"/><use transform="matrix(0.05,0,0,0.05,19.95,0)" xlink:href="#aN"/><use transform="matrix(0.05,0,0,0.05,25.899999999999995,0)" xlink:href="#aO"/><use transform="matrix(0.05,0,0,0.05,35.9,0)" xlink:href="#aP"/><use transform="matrix(0.05,0,0,0.05,44.9,0)" xlink:href="#aM"/></g><path d="M68-38c1 34 0 65-14 84H32c9-13 17-26 17-46H33v-38h35" id="bk"/><g id="w"><use transform="matrix(0.05,0,0,0.05,0,0)" xlink:href="#aL"/><use transform="matrix(0.05,0,0,0.05,9,0)" xlink:href="#aQ"/><use transform="matrix(0.05,0,0,0.05,23.950000000000003,0)" xlink:href="#aR"/><use transform="matrix(0.05,0,0,0.05,33.95,0)" xlink:href="#aS"/><use transform="matrix(0.05,0,0,0.05,43.95,0)" xlink:href="#aT"/><use transform="matrix(0.05,0,0,0.05,53.95,0)" xlink:href="#aU"/><use transform="matrix(0.05,0,0,0.05,63.95,0)" xlink:href="#aV"/><use transform="matrix(0.05,0,0,0.05,67.9,0)" xlink:href="#aW"/><use transform="matrix(0.05,0,0,0.05,71.85000000000001,0)" xlink:href="#aP"/><use transform="matrix(0.05,0,0,0.05,80.85000000000001,0)" xlink:href="#aX"/><use transform="matrix(0.05,0,0,0.05,88.50000000000001,0)" xlink:href="#bk"/></g><path d="M33-261c38 41 65 92 65 168S71 34 33 75H2C39 34 66-17 66-93S39-220 2-261h31" id="bl"/><g id="x"><use transform="matrix(0.05,0,0,0.05,0,0)" xlink:href="#aW"/><use transform="matrix(0.05,0,0,0.05,3.95,0)" xlink:href="#bg"/><use transform="matrix(0.05,0,0,0.05,13.949999999999998,0)" xlink:href="#aU"/><use transform="matrix(0.05,0,0,0.05,23.95,0)" xlink:href="#aY"/><use transform="matrix(0.05,0,0,0.05,33.95,0)" xlink:href="#bb"/><use transform="matrix(0.05,0,0,0.05,43.95,0)" xlink:href="#aS"/><use transform="matrix(0.05,0,0,0.05,53.95,0)" xlink:href="#bg"/><use transform="matrix(0.05,0,0,0.05,63.95,0)" xlink:href="#aO"/><use transform="matrix(0.05,0,0,0.05,73.95,0)" xlink:href="#aQ"/><use transform="matrix(0.05,0,0,0.05,88.9,0)" xlink:href="#bl"/></g><g id="y"><use transform="matrix(0.05,0,0,0.05,0,0)" xlink:href="#aL"/><use transform="matrix(0.05,0,0,0.05,9,0)" xlink:href="#aM"/><use transform="matrix(0.05,0,0,0.05,14,0)" xlink:href="#aN"/><use transform="matrix(0.05,0,0,0.05,19.95,0)" xlink:href="#aO"/><use transform="matrix(0.05,0,0,0.05,29.950000000000003,0)" xlink:href="#aP"/><use transform="matrix(0.05,0,0,0.05,38.95,0)" xlink:href="#aM"/></g><g id="z"><use transform="matrix(0.05,0,0,0.05,0,0)" xlink:href="#bh"/><use transform="matrix(0.05,0,0,0.05,5,0)" xlink:href="#aW"/><use transform="matrix(0.05,0,0,0.05,8.95,0)" xlink:href="#aV"/><use transform="matrix(0.05,0,0,0.05,12.899999999999999,0)" xlink:href="#bb"/><use transform="matrix(0.05,0,0,0.05,22.9,0)" xlink:href="#aS"/><use transform="matrix(0.05,0,0,0.05,32.9,0)" xlink:href="#aW"/><use transform="matrix(0.05,0,0,0.05,36.85,0)" xlink:href="#bg"/><use transform="matrix(0.05,0,0,0.05,46.85,0)" xlink:href="#bh"/><use transform="matrix(0.05,0,0,0.05,51.85,0)" xlink:href="#aU"/></g><path d="M80-196l47-18 7 23-49 13 32 44-20 13-27-46-27 45-21-12 33-44-49-13 8-23 47 19-2-53h23" id="bm"/><use transform="matrix(0.05,0,0,0.05,0,0)" xlink:href="#bm" id="A"/><g id="B"><use transform="matrix(0.05,0,0,0.05,0,0)" xlink:href="#bi"/><use transform="matrix(0.05,0,0,0.05,10,0)" xlink:href="#bb"/><use transform="matrix(0.05,0,0,0.05,20,0)" xlink:href="#aM"/><use transform="matrix(0.05,0,0,0.05,25,0)" xlink:href="#aS"/><use transform="matrix(0.05,0,0,0.05,35,0)" xlink:href="#aW"/><use transform="matrix(0.05,0,0,0.05,38.95,0)" xlink:href="#bg"/><use transform="matrix(0.05,0,0,0.05,48.95,0)" xlink:href="#aU"/><use transform="matrix(0.05,0,0,0.05,58.95,0)" xlink:href="#bj"/><use transform="matrix(0.05,0,0,0.05,64.9,0)" xlink:href="#aL"/><use transform="matrix(0.05,0,0,0.05,73.9,0)" xlink:href="#aM"/><use transform="matrix(0.05,0,0,0.05,78.9,0)" xlink:href="#aN"/><use transform="matrix(0.05,0,0,0.05,84.85000000000001,0)" xlink:href="#aO"/><use transform="matrix(0.05,0,0,0.05,94.85000000000001,0)" xlink:href="#aP"/><use transform="matrix(0.05,0,0,0.05,103.85000000000001,0)" xlink:href="#aM"/></g><g id="C"><use transform="matrix(0.05,0,0,0.05,0,0)" xlink:href="#be"/><use transform="matrix(0.05,0,0,0.05,10,0)" xlink:href="#aW"/><use transform="matrix(0.05,0,0,0.05,13.949999999999998,0)" xlink:href="#aU"/></g><g id="D"><use transform="matrix(0.05,0,0,0.05,0,0)" xlink:href="#bm"/><use transform="matrix(0.05,0,0,0.05,7,0)" xlink:href="#be"/><use transform="matrix(0.05,0,0,0.05,17,0)" xlink:href="#aW"/><use transform="matrix(0.05,0,0,0.05,20.95,0)" xlink:href="#aU"/><use transform="matrix(0.05,0,0,0.05,30.950000000000003,0)" xlink:href="#bl"/></g><g id="E"><use transform="matrix(0.05,0,0,0.05,0,0)" xlink:href="#aW"/><use transform="matrix(0.05,0,0,0.05,3.95,0)" xlink:href="#bg"/><use transform="matrix(0.05,0,0,0.05,13.949999999999998,0)" xlink:href="#aU"/><use transform="matrix(0.05,0,0,0.05,23.95,0)" xlink:href="#aY"/><use transform="matrix(0.05,0,0,0.05,33.95,0)" xlink:href="#bb"/><use transform="matrix(0.05,0,0,0.05,43.95,0)" xlink:href="#aS"/><use transform="matrix(0.05,0,0,0.05,53.95,0)" xlink:href="#bg"/><use transform="matrix(0.05,0,0,0.05,63.95,0)" xlink:href="#aO"/><use transform="matrix(0.05,0,0,0.05,73.95,0)" xlink:href="#aQ"/></g><g id="F"><use transform="matrix(0.05,0,0,0.05,0,0)" xlink:href="#bi"/><use transform="matrix(0.05,0,0,0.05,10,0)" xlink:href="#bb"/><use transform="matrix(0.05,0,0,0.05,20,0)" xlink:href="#aM"/><use transform="matrix(0.05,0,0,0.05,25,0)" xlink:href="#aS"/><use transform="matrix(0.05,0,0,0.05,35,0)" xlink:href="#be"/><use transform="matrix(0.05,0,0,0.05,45,0)" xlink:href="#aW"/><use transform="matrix(0.05,0,0,0.05,48.95,0)" xlink:href="#aT"/><use transform="matrix(0.05,0,0,0.05,58.95,0)" xlink:href="#aZ"/><use transform="matrix(0.05,0,0,0.05,68.95,0)" xlink:href="#aW"/><use transform="matrix(0.05,0,0,0.05,72.9,0)" xlink:href="#aN"/><use transform="matrix(0.05,0,0,0.05,78.85000000000001,0)" xlink:href="#aS"/><use transform="matrix(0.05,0,0,0.05,88.85000000000001,0)" xlink:href="#bh"/><use transform="matrix(0.05,0,0,0.05,93.85000000000001,0)" xlink:href="#aN"/><use transform="matrix(0.05,0,0,0.05,99.80000000000001,0)" xlink:href="#aU"/><use transform="matrix(0.05,0,0,0.05,109.80000000000001,0)" xlink:href="#aQ"/><use transform="matrix(0.05,0,0,0.05,124.75,0)" xlink:href="#aS"/><use transform="matrix(0.05,0,0,0.05,134.75,0)" xlink:href="#aU"/><use transform="matrix(0.05,0,0,0.05,144.75,0)" xlink:href="#be"/><use transform="matrix(0.05,0,0,0.05,154.75,0)" xlink:href="#aV"/><use transform="matrix(0.05,0,0,0.05,158.7,0)" xlink:href="#aU"/><use transform="matrix(0.05,0,0,0.05,168.7,0)" xlink:href="#aP"/><use transform="matrix(0.05,0,0,0.05,177.7,0)" xlink:href="#bf"/></g><g id="G"><use transform="matrix(0.05,0,0,0.05,0,0)" xlink:href="#aL"/><use transform="matrix(0.05,0,0,0.05,9,0)" xlink:href="#aQ"/><use transform="matrix(0.05,0,0,0.05,23.950000000000003,0)" xlink:href="#aR"/><use transform="matrix(0.05,0,0,0.05,33.95,0)" xlink:href="#aS"/><use transform="matrix(0.05,0,0,0.05,43.95,0)" xlink:href="#aT"/><use transform="matrix(0.05,0,0,0.05,53.95,0)" xlink:href="#aU"/><use transform="matrix(0.05,0,0,0.05,63.95,0)" xlink:href="#aV"/><use transform="matrix(0.05,0,0,0.05,67.9,0)" xlink:href="#aW"/><use transform="matrix(0.05,0,0,0.05,71.85000000000001,0)" xlink:href="#aP"/><use transform="matrix(0.05,0,0,0.05,80.85000000000001,0)" xlink:href="#aX"/></g><use transform="matrix(0.05,0,0,0.05,0,0)" xlink:href="#bk" id="H"/><g id="I"><use transform="matrix(0.05,0,0,0.05,0,0)" xlink:href="#aU"/><use transform="matrix(0.05,0,0,0.05,10,0)" xlink:href="#be"/><use transform="matrix(0.05,0,0,0.05,20,0)" xlink:href="#aV"/><use transform="matrix(0.05,0,0,0.05,23.95,0)" xlink:href="#aU"/><use transform="matrix(0.05,0,0,0.05,33.95,0)" xlink:href="#aP"/><use transform="matrix(0.05,0,0,0.05,42.95,0)" xlink:href="#bf"/><use transform="matrix(0.05,0,0,0.05,51.95,0)" xlink:href="#bl"/></g><g id="J"><use transform="matrix(0.05,0,0,0.05,0,0)" xlink:href="#be"/><use transform="matrix(0.05,0,0,0.05,10,0)" xlink:href="#aV"/><use transform="matrix(0.05,0,0,0.05,13.949999999999998,0)" xlink:href="#bf"/><use transform="matrix(0.05,0,0,0.05,22.95,0)" xlink:href="#aS"/><use transform="matrix(0.05,0,0,0.05,32.95,0)" xlink:href="#aW"/><use transform="matrix(0.05,0,0,0.05,36.900000000000006,0)" xlink:href="#bg"/><use transform="matrix(0.05,0,0,0.05,46.900000000000006,0)" xlink:href="#aU"/><use transform="matrix(0.05,0,0,0.05,56.900000000000006,0)" xlink:href="#aS"/><use transform="matrix(0.05,0,0,0.05,66.9,0)" xlink:href="#aT"/><use transform="matrix(0.05,0,0,0.05,76.9,0)" xlink:href="#aZ"/><use transform="matrix(0.05,0,0,0.05,86.9,0)" xlink:href="#aW"/><use transform="matrix(0.05,0,0,0.05,90.85000000000001,0)" xlink:href="#aN"/></g><use transform="matrix(0.05,0,0,0.05,0,0)" xlink:href="#bm" id="K"/><path d="M137-138c1-29-70-34-71-4 15 46 118 7 119 86 1 83-164 76-172 9l43-7c4 19 20 25 44 25 33 8 57-30 24-41C81-84 22-81 20-136c-2-80 154-74 161-7" id="bn"/><path d="M115-3C79 11 28 4 28-45v-112H4v-33h27l15-45h31v45h36v33H77v99c-1 23 16 31 38 25v30" id="bo"/><path d="M135-150c-39-12-60 13-60 57V0H25l-1-190h47c2 13-1 29 3 40 6-28 27-53 61-41v41" id="bp"/><path d="M85 4C-2 5 27-109 22-190h50c7 57-23 150 33 157 60-5 35-97 40-157h50l1 190h-47c-2-12 1-28-3-38-12 25-28 42-61 42" id="bq"/><path d="M190-63c-7 42-38 67-86 67-59 0-84-38-90-98-12-110 154-137 174-36l-49 2c-2-19-15-32-35-32-30 0-35 28-38 64-6 74 65 87 74 30" id="br"/><g id="L"><use transform="matrix(0.05,0,0,0.05,0,0)" xlink:href="#bn"/><use transform="matrix(0.05,0,0,0.05,10,0)" xlink:href="#bo"/><use transform="matrix(0.05,0,0,0.05,15.949999999999998,0)" xlink:href="#bp"/><use transform="matrix(0.05,0,0,0.05,22.95,0)" xlink:href="#bq"/><use transform="matrix(0.05,0,0,0.05,33.9,0)" xlink:href="#br"/><use transform="matrix(0.05,0,0,0.05,43.9,0)" xlink:href="#bo"/></g><path d="M133-34C117-15 103 5 69 4 32 3 11-16 11-54c-1-60 55-63 116-61 1-26-3-47-28-47-18 1-26 9-28 27l-52-2c7-38 36-58 82-57s74 22 75 68l1 82c-1 14 12 18 25 15v27c-30 8-71 5-69-32zm-48 3c29 0 43-24 42-57-32 0-66-3-65 30 0 17 8 27 23 27" id="bs"/><path d="M114-157C55-157 80-60 75 0H25v-261h50l-1 109c12-26 28-41 61-42 86-1 58 113 63 194h-50c-7-57 23-157-34-157" id="bt"/><path d="M185-48c-13 30-37 53-82 52C43 2 14-33 14-96s30-98 90-98c62 0 83 45 84 108H66c0 31 8 55 39 56 18 0 30-7 34-22zm-45-69c5-46-57-63-70-21-2 6-4 13-4 21h74" id="bu"/><g id="M"><use transform="matrix(0.05,0,0,0.05,0,0)" xlink:href="#br"/><use transform="matrix(0.05,0,0,0.05,10,0)" xlink:href="#bs"/><use transform="matrix(0.05,0,0,0.05,20,0)" xlink:href="#br"/><use transform="matrix(0.05,0,0,0.05,30,0)" xlink:href="#bt"/><use transform="matrix(0.05,0,0,0.05,40.95,0)" xlink:href="#bu"/></g><path d="M108 0H70L1-190h34L89-25l56-165h34" id="bv"/><g id="N"><use transform="matrix(0.05,0,0,0.05,0,0)" xlink:href="#aQ"/><use transform="matrix(0.05,0,0,0.05,14.950000000000001,0)" xlink:href="#bb"/><use transform="matrix(0.05,0,0,0.05,24.950000000000003,0)" xlink:href="#aM"/><use transform="matrix(0.05,0,0,0.05,29.950000000000003,0)" xlink:href="#aZ"/><use transform="matrix(0.05,0,0,0.05,39.95,0)" xlink:href="#aY"/><use transform="matrix(0.05,0,0,0.05,49.95,0)" xlink:href="#aZ"/><use transform="matrix(0.05,0,0,0.05,59.95,0)" xlink:href="#aM"/><use transform="matrix(0.05,0,0,0.05,64.95,0)" xlink:href="#aZ"/><use transform="matrix(0.05,0,0,0.05,74.95,0)" xlink:href="#aS"/><use transform="matrix(0.05,0,0,0.05,84.95,0)" xlink:href="#aY"/><use transform="matrix(0.05,0,0,0.05,94.95,0)" xlink:href="#bb"/><use transform="matrix(0.05,0,0,0.05,104.95,0)" xlink:href="#bv"/></g><g id="O"><use transform="matrix(0.05,0,0,0.05,0,0)" xlink:href="#aU"/><use transform="matrix(0.05,0,0,0.05,10,0)" xlink:href="#aN"/><use transform="matrix(0.05,0,0,0.05,15.949999999999998,0)" xlink:href="#aW"/><use transform="matrix(0.05,0,0,0.05,19.9,0)" xlink:href="#bi"/><use transform="matrix(0.05,0,0,0.05,29.899999999999995,0)" xlink:href="#aW"/><use transform="matrix(0.05,0,0,0.05,33.85,0)" xlink:href="#bg"/><use transform="matrix(0.05,0,0,0.05,43.85,0)" xlink:href="#aS"/><use transform="matrix(0.05,0,0,0.05,53.85,0)" xlink:href="#aY"/><use transform="matrix(0.05,0,0,0.05,63.85,0)" xlink:href="#bb"/><use transform="matrix(0.05,0,0,0.05,73.85,0)" xlink:href="#bv"/></g><g id="P"><use transform="matrix(0.05,0,0,0.05,0,0)" xlink:href="#aP"/><use transform="matrix(0.05,0,0,0.05,9,0)" xlink:href="#aZ"/><use transform="matrix(0.05,0,0,0.05,19,0)" xlink:href="#aP"/><use transform="matrix(0.05,0,0,0.05,28,0)" xlink:href="#ba"/><use transform="matrix(0.05,0,0,0.05,38,0)" xlink:href="#bb"/><use transform="matrix(0.05,0,0,0.05,48,0)" xlink:href="#aS"/><use transform="matrix(0.05,0,0,0.05,58,0)" xlink:href="#aY"/><use transform="matrix(0.05,0,0,0.05,68,0)" xlink:href="#bb"/><use transform="matrix(0.05,0,0,0.05,78,0)" xlink:href="#bv"/></g><g id="Q"><use transform="matrix(0.05,0,0,0.05,0,0)" xlink:href="#aU"/><use transform="matrix(0.05,0,0,0.05,10,0)" xlink:href="#aN"/><use transform="matrix(0.05,0,0,0.05,15.949999999999998,0)" xlink:href="#aW"/><use transform="matrix(0.05,0,0,0.05,19.9,0)" xlink:href="#bi"/><use transform="matrix(0.05,0,0,0.05,29.899999999999995,0)" xlink:href="#aW"/><use transform="matrix(0.05,0,0,0.05,33.85,0)" xlink:href="#bg"/><use transform="matrix(0.05,0,0,0.05,43.85,0)" xlink:href="#aS"/><use transform="matrix(0.05,0,0,0.05,53.85,0)" xlink:href="#be"/><use transform="matrix(0.05,0,0,0.05,63.85,0)" xlink:href="#aV"/><use transform="matrix(0.05,0,0,0.05,67.8,0)" xlink:href="#aU"/><use transform="matrix(0.05,0,0,0.05,77.8,0)" xlink:href="#aP"/><use transform="matrix(0.05,0,0,0.05,86.8,0)" xlink:href="#bf"/><use transform="matrix(0.05,0,0,0.05,95.8,0)" xlink:href="#aL"/></g><g id="R"><use transform="matrix(0.05,0,0,0.05,0,0)" xlink:href="#aU"/><use transform="matrix(0.05,0,0,0.05,10,0)" xlink:href="#aN"/><use transform="matrix(0.05,0,0,0.05,15.949999999999998,0)" xlink:href="#aW"/><use transform="matrix(0.05,0,0,0.05,19.9,0)" xlink:href="#bi"/><use transform="matrix(0.05,0,0,0.05,29.899999999999995,0)" xlink:href="#aW"/><use transform="matrix(0.05,0,0,0.05,33.85,0)" xlink:href="#bg"/><use transform="matrix(0.05,0,0,0.05,43.85,0)" xlink:href="#aS"/><use transform="matrix(0.05,0,0,0.05,53.85,0)" xlink:href="#aL"/><use transform="matrix(0.05,0,0,0.05,62.85,0)" xlink:href="#bb"/><use transform="matrix(0.05,0,0,0.05,72.85,0)" xlink:href="#aP"/><use transform="matrix(0.05,0,0,0.05,81.85,0)" xlink:href="#aM"/><use transform="matrix(0.05,0,0,0.05,86.85,0)" xlink:href="#aU"/><use transform="matrix(0.05,0,0,0.05,96.85,0)" xlink:href="#aN"/><use transform="matrix(0.05,0,0,0.05,102.80000000000001,0)" xlink:href="#aL"/></g><g id="S"><use transform="matrix(0.05,0,0,0.05,0,0)" xlink:href="#aY"/><use transform="matrix(0.05,0,0,0.05,10,0)" xlink:href="#bb"/><use transform="matrix(0.05,0,0,0.05,20,0)" xlink:href="#bh"/><use transform="matrix(0.05,0,0,0.05,25,0)" xlink:href="#bb"/><use transform="matrix(0.05,0,0,0.05,35,0)" xlink:href="#aN"/><use transform="matrix(0.05,0,0,0.05,40.95,0)" xlink:href="#aN"/><use transform="matrix(0.05,0,0,0.05,46.900000000000006,0)" xlink:href="#bb"/><use transform="matrix(0.05,0,0,0.05,56.900000000000006,0)" xlink:href="#aY"/><use transform="matrix(0.05,0,0,0.05,66.9,0)" xlink:href="#aS"/><use transform="matrix(0.05,0,0,0.05,76.9,0)" xlink:href="#be"/><use transform="matrix(0.05,0,0,0.05,86.9,0)" xlink:href="#aW"/><use transform="matrix(0.05,0,0,0.05,90.85000000000001,0)" xlink:href="#aU"/><use transform="matrix(0.05,0,0,0.05,100.85000000000001,0)" xlink:href="#aL"/></g><path d="M206 0h-36l-40-164L89 0H53L-1-190h32L70-26l43-164h34l41 164 42-164h31" id="bw"/><g id="T"><use transform="matrix(0.05,0,0,0.05,0,0)" xlink:href="#aY"/><use transform="matrix(0.05,0,0,0.05,10,0)" xlink:href="#bb"/><use transform="matrix(0.05,0,0,0.05,20,0)" xlink:href="#bh"/><use transform="matrix(0.05,0,0,0.05,25,0)" xlink:href="#bb"/><use transform="matrix(0.05,0,0,0.05,35,0)" xlink:href="#aN"/><use transform="matrix(0.05,0,0,0.05,40.95,0)" xlink:href="#aN"/><use transform="matrix(0.05,0,0,0.05,46.900000000000006,0)" xlink:href="#bb"/><use transform="matrix(0.05,0,0,0.05,56.900000000000006,0)" xlink:href="#aY"/><use transform="matrix(0.05,0,0,0.05,66.9,0)" xlink:href="#aS"/><use transform="matrix(0.05,0,0,0.05,76.9,0)" xlink:href="#bw"/><use transform="matrix(0.05,0,0,0.05,89.85000000000001,0)" xlink:href="#aN"/><use transform="matrix(0.05,0,0,0.05,95.80000000000001,0)" xlink:href="#aW"/><use transform="matrix(0.05,0,0,0.05,99.75000000000001,0)" xlink:href="#aM"/><use transform="matrix(0.05,0,0,0.05,104.75,0)" xlink:href="#bb"/><use transform="matrix(0.05,0,0,0.05,114.75,0)" xlink:href="#aM"/><use transform="matrix(0.05,0,0,0.05,119.75,0)" xlink:href="#ba"/><use transform="matrix(0.05,0,0,0.05,129.75,0)" xlink:href="#aN"/><use transform="matrix(0.05,0,0,0.05,135.7,0)" xlink:href="#aU"/><use transform="matrix(0.05,0,0,0.05,145.7,0)" xlink:href="#aO"/><use transform="matrix(0.05,0,0,0.05,155.7,0)" xlink:href="#bi"/><use transform="matrix(0.05,0,0,0.05,165.7,0)" xlink:href="#ba"/><use transform="matrix(0.05,0,0,0.05,175.7,0)" xlink:href="#aS"/><use transform="matrix(0.05,0,0,0.05,185.7,0)" xlink:href="#be"/><use transform="matrix(0.05,0,0,0.05,195.7,0)" xlink:href="#aW"/><use transform="matrix(0.05,0,0,0.05,199.64999999999998,0)" xlink:href="#aU"/><use transform="matrix(0.05,0,0,0.05,209.64999999999998,0)" xlink:href="#aL"/></g><g id="U"><use transform="matrix(0.05,0,0,0.05,0,0)" xlink:href="#aY"/><use transform="matrix(0.05,0,0,0.05,10,0)" xlink:href="#bb"/><use transform="matrix(0.05,0,0,0.05,20,0)" xlink:href="#bh"/><use transform="matrix(0.05,0,0,0.05,25,0)" xlink:href="#bb"/><use transform="matrix(0.05,0,0,0.05,35,0)" xlink:href="#aN"/><use transform="matrix(0.05,0,0,0.05,40.95,0)" xlink:href="#aN"/><use transform="matrix(0.05,0,0,0.05,46.900000000000006,0)" xlink:href="#bb"/><use transform="matrix(0.05,0,0,0.05,56.900000000000006,0)" xlink:href="#aY"/><use transform="matrix(0.05,0,0,0.05,66.9,0)" xlink:href="#aS"/><use transform="matrix(0.05,0,0,0.05,76.9,0)" xlink:href="#bh"/><use transform="matrix(0.05,0,0,0.05,81.9,0)" xlink:href="#aV"/><use transform="matrix(0.05,0,0,0.05,85.85000000000001,0)" xlink:href="#aO"/><use transform="matrix(0.05,0,0,0.05,95.85000000000001,0)" xlink:href="#aL"/><use transform="matrix(0.05,0,0,0.05,104.85000000000001,0)" xlink:href="#ba"/><use transform="matrix(0.05,0,0,0.05,114.85000000000001,0)" xlink:href="#aS"/><use transform="matrix(0.05,0,0,0.05,124.85000000000001,0)" xlink:href="#be"/><use transform="matrix(0.05,0,0,0.05,134.85000000000002,0)" xlink:href="#aW"/><use transform="matrix(0.05,0,0,0.05,138.8,0)" xlink:href="#aU"/><use transform="matrix(0.05,0,0,0.05,148.8,0)" xlink:href="#aL"/></g><g id="V"><use transform="matrix(0.05,0,0,0.05,0,0)" xlink:href="#aQ"/><use transform="matrix(0.05,0,0,0.05,14.950000000000001,0)" xlink:href="#aW"/><use transform="matrix(0.05,0,0,0.05,18.900000000000002,0)" xlink:href="#bi"/><use transform="matrix(0.05,0,0,0.05,28.900000000000002,0)" xlink:href="#aN"/><use transform="matrix(0.05,0,0,0.05,34.85,0)" xlink:href="#aZ"/><use transform="matrix(0.05,0,0,0.05,44.85,0)" xlink:href="#aM"/><use transform="matrix(0.05,0,0,0.05,49.85,0)" xlink:href="#aW"/><use transform="matrix(0.05,0,0,0.05,53.800000000000004,0)" xlink:href="#aU"/><use transform="matrix(0.05,0,0,0.05,63.800000000000004,0)" xlink:href="#bg"/><use transform="matrix(0.05,0,0,0.05,73.80000000000001,0)" xlink:href="#aS"/><use transform="matrix(0.05,0,0,0.05,83.80000000000001,0)" xlink:href="#aM"/><use transform="matrix(0.05,0,0,0.05,88.80000000000001,0)" xlink:href="#ba"/><use transform="matrix(0.05,0,0,0.05,98.80000000000001,0)" xlink:href="#aN"/><use transform="matrix(0.05,0,0,0.05,104.75,0)" xlink:href="#bb"/><use transform="matrix(0.05,0,0,0.05,114.75,0)" xlink:href="#aL"/><use transform="matrix(0.05,0,0,0.05,123.75,0)" xlink:href="#ba"/><use transform="matrix(0.05,0,0,0.05,133.75,0)" xlink:href="#aU"/><use transform="matrix(0.05,0,0,0.05,143.75,0)" xlink:href="#aV"/><use transform="matrix(0.05,0,0,0.05,147.7,0)" xlink:href="#aY"/></g><g id="W"><use transform="matrix(0.05,0,0,0.05,0,0)" xlink:href="#bw"/><use transform="matrix(0.05,0,0,0.05,12.950000000000001,0)" xlink:href="#aU"/><use transform="matrix(0.05,0,0,0.05,22.950000000000003,0)" xlink:href="#aN"/><use transform="matrix(0.05,0,0,0.05,28.900000000000002,0)" xlink:href="#bf"/><use transform="matrix(0.05,0,0,0.05,37.900000000000006,0)" xlink:href="#aR"/><use transform="matrix(0.05,0,0,0.05,47.900000000000006,0)" xlink:href="#aO"/><use transform="matrix(0.05,0,0,0.05,57.900000000000006,0)" xlink:href="#bb"/><use transform="matrix(0.05,0,0,0.05,67.9,0)" xlink:href="#aO"/><use transform="matrix(0.05,0,0,0.05,77.9,0)" xlink:href="#bb"/></g><g id="X"><use transform="matrix(0.05,0,0,0.05,0,0)" xlink:href="#bw"/><use transform="matrix(0.05,0,0,0.05,12.950000000000001,0)" xlink:href="#aU"/><use transform="matrix(0.05,0,0,0.05,22.950000000000003,0)" xlink:href="#aN"/><use transform="matrix(0.05,0,0,0.05,28.900000000000002,0)" xlink:href="#bf"/><use transform="matrix(0.05,0,0,0.05,37.900000000000006,0)" xlink:href="#bb"/><use transform="matrix(0.05,0,0,0.05,47.900000000000006,0)" xlink:href="#aN"/></g><g id="Y"><use transform="matrix(0.05,0,0,0.05,0,0)" xlink:href="#bw"/><use transform="matrix(0.05,0,0,0.05,12.950000000000001,0)" xlink:href="#aZ"/><use transform="matrix(0.05,0,0,0.05,22.950000000000003,0)" xlink:href="#bf"/><use transform="matrix(0.05,0,0,0.05,31.950000000000003,0)" xlink:href="#bb"/><use transform="matrix(0.05,0,0,0.05,41.95,0)" xlink:href="#aN"/></g><g id="Z"><use transform="matrix(0.05,0,0,0.05,0,0)" xlink:href="#aT"/><use transform="matrix(0.05,0,0,0.05,10,0)" xlink:href="#aN"/><use transform="matrix(0.05,0,0,0.05,15.949999999999998,0)" xlink:href="#aW"/><use transform="matrix(0.05,0,0,0.05,19.9,0)" xlink:href="#aL"/><use transform="matrix(0.05,0,0,0.05,28.899999999999995,0)" xlink:href="#aU"/><use transform="matrix(0.05,0,0,0.05,38.9,0)" xlink:href="#bg"/></g><g id="aa"><use transform="matrix(0.05,0,0,0.05,0,0)" xlink:href="#aQ"/><use transform="matrix(0.05,0,0,0.05,14.950000000000001,0)" xlink:href="#aW"/><use transform="matrix(0.05,0,0,0.05,18.900000000000002,0)" xlink:href="#bi"/><use transform="matrix(0.05,0,0,0.05,28.900000000000002,0)" xlink:href="#aN"/><use transform="matrix(0.05,0,0,0.05,34.85,0)" xlink:href="#aZ"/><use transform="matrix(0.05,0,0,0.05,44.85,0)" xlink:href="#aM"/><use transform="matrix(0.05,0,0,0.05,49.85,0)" xlink:href="#aW"/><use transform="matrix(0.05,0,0,0.05,53.800000000000004,0)" xlink:href="#aU"/><use transform="matrix(0.05,0,0,0.05,63.800000000000004,0)" xlink:href="#bg"/><use transform="matrix(0.05,0,0,0.05,73.80000000000001,0)" xlink:href="#aS"/><use transform="matrix(0.05,0,0,0.05,83.80000000000001,0)" xlink:href="#aT"/><use transform="matrix(0.05,0,0,0.05,93.80000000000001,0)" xlink:href="#aU"/><use transform="matrix(0.05,0,0,0.05,103.80000000000001,0)" xlink:href="#aU"/><use transform="matrix(0.05,0,0,0.05,113.80000000000001,0)" xlink:href="#aV"/></g><path d="M88-194c31-1 46 15 58 34l-1-101h50l1 261h-48c-2-10 0-23-3-31C134-8 116 4 84 4 32 4 16-41 15-95c0-56 19-97 73-99zm17 164c33 0 40-30 41-66 1-37-9-64-41-64s-38 30-39 65c0 43 13 65 39 65" id="bx"/><path d="M220-157c-53 9-28 100-34 157h-49v-107c1-27-5-49-29-50C55-147 81-57 75 0H25l-1-190h47c2 12-1 28 3 38 10-53 101-56 108 0 13-22 24-43 59-42 82 1 51 116 57 194h-49v-107c-1-25-5-48-29-50" id="by"/><path d="M-4 44V30h207v14H-4" id="bz"/><path d="M195-6C206 82 75 100 31 46c-4-6-6-13-8-21l49-6c3 16 16 24 34 25 40 0 42-37 40-79-11 22-30 35-61 35-53 0-70-43-70-97 0-56 18-96 73-97 30 0 46 14 59 34l2-30h47zm-90-29c32 0 41-27 41-63 0-35-9-62-40-62-32 0-39 29-40 63 0 36 9 62 39 62" id="bA"/><g id="ab"><use transform="matrix(0.05,0,0,0.05,0,0)" xlink:href="#bx"/><use transform="matrix(0.05,0,0,0.05,10.950000000000001,0)" xlink:href="#by"/><use transform="matrix(0.05,0,0,0.05,26.950000000000003,0)" xlink:href="#bz"/><use transform="matrix(0.05,0,0,0.05,36.95,0)" xlink:href="#bo"/><use transform="matrix(0.05,0,0,0.05,42.900000000000006,0)" xlink:href="#bs"/><use transform="matrix(0.05,0,0,0.05,52.900000000000006,0)" xlink:href="#bp"/><use transform="matrix(0.05,0,0,0.05,59.900000000000006,0)" xlink:href="#bA"/><use transform="matrix(0.05,0,0,0.05,70.85000000000001,0)" xlink:href="#bu"/><use transform="matrix(0.05,0,0,0.05,80.85000000000001,0)" xlink:href="#bo"/></g><g id="ac"><use transform="matrix(0.05,0,0,0.05,0,0)" xlink:href="#aY"/><use transform="matrix(0.05,0,0,0.05,10,0)" xlink:href="#aQ"/><use transform="matrix(0.05,0,0,0.05,24.950000000000003,0)" xlink:href="#aS"/><use transform="matrix(0.05,0,0,0.05,34.95,0)" xlink:href="#aM"/><use transform="matrix(0.05,0,0,0.05,39.95,0)" xlink:href="#aZ"/><use transform="matrix(0.05,0,0,0.05,49.95,0)" xlink:href="#be"/><use transform="matrix(0.05,0,0,0.05,59.95,0)" xlink:href="#aV"/><use transform="matrix(0.05,0,0,0.05,63.900000000000006,0)" xlink:href="#bb"/></g><g id="ad"><use transform="matrix(0.05,0,0,0.05,0,0)" xlink:href="#aM"/><use transform="matrix(0.05,0,0,0.05,5,0)" xlink:href="#aZ"/><use transform="matrix(0.05,0,0,0.05,15,0)" xlink:href="#aN"/><use transform="matrix(0.05,0,0,0.05,20.95,0)" xlink:href="#bi"/><use transform="matrix(0.05,0,0,0.05,30.950000000000003,0)" xlink:href="#bb"/><use transform="matrix(0.05,0,0,0.05,40.95,0)" xlink:href="#aM"/><use transform="matrix(0.05,0,0,0.05,45.95,0)" xlink:href="#aS"/><use transform="matrix(0.05,0,0,0.05,55.95,0)" xlink:href="#aM"/><use transform="matrix(0.05,0,0,0.05,60.95,0)" xlink:href="#aX"/><use transform="matrix(0.05,0,0,0.05,69.95,0)" xlink:href="#aT"/><use transform="matrix(0.05,0,0,0.05,79.95,0)" xlink:href="#bb"/></g><g id="ae"><use transform="matrix(0.05,0,0,0.05,0,0)" xlink:href="#bm"/><use transform="matrix(0.05,0,0,0.05,7,0)" xlink:href="#aT"/><use transform="matrix(0.05,0,0,0.05,17,0)" xlink:href="#aN"/><use transform="matrix(0.05,0,0,0.05,22.95,0)" xlink:href="#aW"/><use transform="matrix(0.05,0,0,0.05,26.899999999999995,0)" xlink:href="#bv"/><use transform="matrix(0.05,0,0,0.05,35.9,0)" xlink:href="#aZ"/><use transform="matrix(0.05,0,0,0.05,45.9,0)" xlink:href="#aM"/><use transform="matrix(0.05,0,0,0.05,50.9,0)" xlink:href="#bb"/></g><path d="M18-150v-26h174v26H18zm0 90v-26h174v26H18" id="bB"/><use transform="matrix(0.05,0,0,0.05,0,0)" xlink:href="#bB" id="af"/><g id="ag"><use transform="matrix(0.05,0,0,0.05,0,0)" xlink:href="#aP"/><use transform="matrix(0.05,0,0,0.05,9,0)" xlink:href="#aZ"/><use transform="matrix(0.05,0,0,0.05,19,0)" xlink:href="#aP"/><use transform="matrix(0.05,0,0,0.05,28,0)" xlink:href="#ba"/><use transform="matrix(0.05,0,0,0.05,38,0)" xlink:href="#bb"/></g><path d="M121-226c-27-7-43 5-38 36h38v33H83V0H34v-157H6v-33h28c-9-59 32-81 87-68v32" id="bC"/><path d="M25-224v-37h50v37H25zM25 0v-190h50V0H25" id="bD"/><path d="M25 0v-261h50V0H25" id="bE"/><path d="M135-194c87-1 58 113 63 194h-50c-7-57 23-157-34-157-59 0-34 97-39 157H25l-1-190h47c2 12-1 28 3 38 12-26 28-41 61-42" id="bF"/><path d="M110-194c64 0 96 36 96 99 0 64-35 99-97 99-61 0-95-36-95-99 0-62 34-99 96-99zm-1 164c35 0 45-28 45-65 0-40-10-65-43-65-34 0-45 26-45 65 0 36 10 65 43 65" id="bG"/><g id="ai"><use transform="matrix(0.05,0,0,0.05,0,0)" xlink:href="#bC"/><use transform="matrix(0.05,0,0,0.05,5.95,0)" xlink:href="#bD"/><use transform="matrix(0.05,0,0,0.05,10.95,0)" xlink:href="#bE"/><use transform="matrix(0.05,0,0,0.05,15.949999999999998,0)" xlink:href="#bu"/><use transform="matrix(0.05,0,0,0.05,25.950000000000003,0)" xlink:href="#bz"/><use transform="matrix(0.05,0,0,0.05,35.95,0)" xlink:href="#bD"/><use transform="matrix(0.05,0,0,0.05,40.95,0)" xlink:href="#bF"/><use transform="matrix(0.05,0,0,0.05,51.900000000000006,0)" xlink:href="#bC"/><use transform="matrix(0.05,0,0,0.05,57.85,0)" xlink:href="#bG"/></g><g id="aj"><use transform="matrix(0.05,0,0,0.05,0,0)" xlink:href="#bh"/><use transform="matrix(0.05,0,0,0.05,5,0)" xlink:href="#aW"/><use transform="matrix(0.05,0,0,0.05,8.95,0)" xlink:href="#aV"/><use transform="matrix(0.05,0,0,0.05,12.899999999999999,0)" xlink:href="#bb"/><use transform="matrix(0.05,0,0,0.05,22.9,0)" xlink:href="#bg"/><use transform="matrix(0.05,0,0,0.05,32.9,0)" xlink:href="#aZ"/><use transform="matrix(0.05,0,0,0.05,42.9,0)" xlink:href="#aQ"/><use transform="matrix(0.05,0,0,0.05,57.85,0)" xlink:href="#bb"/></g><g id="ak"><use transform="matrix(0.05,0,0,0.05,0,0)" xlink:href="#aW"/><use transform="matrix(0.05,0,0,0.05,3.95,0)" xlink:href="#bg"/><use transform="matrix(0.05,0,0,0.05,13.949999999999998,0)" xlink:href="#aU"/><use transform="matrix(0.05,0,0,0.05,23.95,0)" xlink:href="#aY"/><use transform="matrix(0.05,0,0,0.05,33.95,0)" xlink:href="#bb"/><use transform="matrix(0.05,0,0,0.05,43.95,0)" xlink:href="#aS"/><use transform="matrix(0.05,0,0,0.05,53.95,0)" xlink:href="#bg"/><use transform="matrix(0.05,0,0,0.05,63.95,0)" xlink:href="#aO"/><use transform="matrix(0.05,0,0,0.05,73.95,0)" xlink:href="#aQ"/><use transform="matrix(0.05,0,0,0.05,88.9,0)" xlink:href="#be"/><use transform="matrix(0.05,0,0,0.05,98.9,0)" xlink:href="#bb"/><use transform="matrix(0.05,0,0,0.05,108.9,0)" xlink:href="#aN"/></g><g id="al"><use transform="matrix(0.05,0,0,0.05,0,0)" xlink:href="#aP"/><use transform="matrix(0.05,0,0,0.05,9,0)" xlink:href="#aZ"/><use transform="matrix(0.05,0,0,0.05,19,0)" xlink:href="#aP"/><use transform="matrix(0.05,0,0,0.05,28,0)" xlink:href="#ba"/><use transform="matrix(0.05,0,0,0.05,38,0)" xlink:href="#bb"/><use transform="matrix(0.05,0,0,0.05,48,0)" xlink:href="#aS"/><use transform="matrix(0.05,0,0,0.05,58,0)" xlink:href="#be"/><use transform="matrix(0.05,0,0,0.05,68,0)" xlink:href="#aV"/><use transform="matrix(0.05,0,0,0.05,71.95,0)" xlink:href="#aU"/><use transform="matrix(0.05,0,0,0.05,81.95,0)" xlink:href="#aP"/><use transform="matrix(0.05,0,0,0.05,90.95,0)" xlink:href="#bf"/><use transform="matrix(0.05,0,0,0.05,99.95,0)" xlink:href="#aS"/><use transform="matrix(0.05,0,0,0.05,109.95,0)" xlink:href="#aP"/><use transform="matrix(0.05,0,0,0.05,118.95,0)" xlink:href="#aU"/><use transform="matrix(0.05,0,0,0.05,128.95,0)" xlink:href="#aO"/><use transform="matrix(0.05,0,0,0.05,138.95,0)" xlink:href="#bg"/><use transform="matrix(0.05,0,0,0.05,148.95,0)" xlink:href="#aM"/></g><g id="am"><use transform="matrix(0.05,0,0,0.05,0,0)" xlink:href="#aV"/><use transform="matrix(0.05,0,0,0.05,3.95,0)" xlink:href="#aW"/><use transform="matrix(0.05,0,0,0.05,7.9,0)" xlink:href="#aL"/><use transform="matrix(0.05,0,0,0.05,16.9,0)" xlink:href="#aM"/><use transform="matrix(0.05,0,0,0.05,21.9,0)" xlink:href="#aS"/><use transform="matrix(0.05,0,0,0.05,31.899999999999995,0)" xlink:href="#aT"/><use transform="matrix(0.05,0,0,0.05,41.9,0)" xlink:href="#aU"/><use transform="matrix(0.05,0,0,0.05,51.900000000000006,0)" xlink:href="#aW"/><use transform="matrix(0.05,0,0,0.05,55.85,0)" xlink:href="#bg"/><use transform="matrix(0.05,0,0,0.05,65.85,0)" xlink:href="#aM"/><use transform="matrix(0.05,0,0,0.05,70.85,0)" xlink:href="#bb"/><use transform="matrix(0.05,0,0,0.05,80.85,0)" xlink:href="#aN"/></g><g id="an"><use transform="matrix(0.05,0,0,0.05,0,0)" xlink:href="#bn"/><use transform="matrix(0.05,0,0,0.05,10,0)" xlink:href="#bo"/><use transform="matrix(0.05,0,0,0.05,15.949999999999998,0)" xlink:href="#bs"/><use transform="matrix(0.05,0,0,0.05,25.950000000000003,0)" xlink:href="#bo"/><use transform="matrix(0.05,0,0,0.05,31.899999999999995,0)" xlink:href="#bn"/></g><g id="ao"><use transform="matrix(0.05,0,0,0.05,0,0)" xlink:href="#ba"/><use transform="matrix(0.05,0,0,0.05,10,0)" xlink:href="#aW"/><use transform="matrix(0.05,0,0,0.05,13.949999999999998,0)" xlink:href="#aM"/><use transform="matrix(0.05,0,0,0.05,18.95,0)" xlink:href="#aS"/><use transform="matrix(0.05,0,0,0.05,28.950000000000003,0)" xlink:href="#aM"/><use transform="matrix(0.05,0,0,0.05,33.95,0)" xlink:href="#ba"/><use transform="matrix(0.05,0,0,0.05,43.95,0)" xlink:href="#aN"/><use transform="matrix(0.05,0,0,0.05,49.900000000000006,0)" xlink:href="#bb"/><use transform="matrix(0.05,0,0,0.05,59.900000000000006,0)" xlink:href="#aL"/><use transform="matrix(0.05,0,0,0.05,68.9,0)" xlink:href="#ba"/><use transform="matrix(0.05,0,0,0.05,78.9,0)" xlink:href="#aU"/><use transform="matrix(0.05,0,0,0.05,88.9,0)" xlink:href="#aV"/><use transform="matrix(0.05,0,0,0.05,92.85000000000001,0)" xlink:href="#aY"/></g><g id="ap"><use transform="matrix(0.05,0,0,0.05,0,0)" xlink:href="#ba"/><use transform="matrix(0.05,0,0,0.05,10,0)" xlink:href="#aW"/><use transform="matrix(0.05,0,0,0.05,13.949999999999998,0)" xlink:href="#aM"/><use transform="matrix(0.05,0,0,0.05,18.95,0)" xlink:href="#aL"/></g><g id="aq"><use transform="matrix(0.05,0,0,0.05,0,0)" xlink:href="#aQ"/><use transform="matrix(0.05,0,0,0.05,14.950000000000001,0)" xlink:href="#aW"/><use transform="matrix(0.05,0,0,0.05,18.900000000000002,0)" xlink:href="#aL"/><use transform="matrix(0.05,0,0,0.05,27.900000000000002,0)" xlink:href="#aL"/><use transform="matrix(0.05,0,0,0.05,36.900000000000006,0)" xlink:href="#bb"/><use transform="matrix(0.05,0,0,0.05,46.900000000000006,0)" xlink:href="#aL"/></g><path d="M135-194c53 0 70 44 70 98 0 56-19 98-73 100-31 1-45-17-59-34 3 33 2 69 2 105H25l-1-265h48c2 10 0 23 3 31 11-24 29-35 60-35zM114-30c33 0 39-31 40-66 0-38-9-64-40-64-56 0-55 130 0 130" id="bH"/><path d="M123 10C108 53 80 86 19 72V37c35 8 53-11 59-39L3-190h52l48 148c12-52 28-100 44-148h51" id="bI"/><g id="ar"><use transform="matrix(0.05,0,0,0.05,0,0)" xlink:href="#bx"/><use transform="matrix(0.05,0,0,0.05,10.950000000000001,0)" xlink:href="#by"/><use transform="matrix(0.05,0,0,0.05,26.950000000000003,0)" xlink:href="#bz"/><use transform="matrix(0.05,0,0,0.05,36.95,0)" xlink:href="#br"/><use transform="matrix(0.05,0,0,0.05,46.95,0)" xlink:href="#bs"/><use transform="matrix(0.05,0,0,0.05,56.95,0)" xlink:href="#br"/><use transform="matrix(0.05,0,0,0.05,66.95,0)" xlink:href="#bt"/><use transform="matrix(0.05,0,0,0.05,77.9,0)" xlink:href="#bu"/><use transform="matrix(0.05,0,0,0.05,87.9,0)" xlink:href="#bz"/><use transform="matrix(0.05,0,0,0.05,97.9,0)" xlink:href="#bH"/><use transform="matrix(0.05,0,0,0.05,108.85000000000001,0)" xlink:href="#bG"/><use transform="matrix(0.05,0,0,0.05,119.80000000000001,0)" xlink:href="#bE"/><use transform="matrix(0.05,0,0,0.05,124.80000000000001,0)" xlink:href="#bD"/><use transform="matrix(0.05,0,0,0.05,129.8,0)" xlink:href="#br"/><use transform="matrix(0.05,0,0,0.05,139.8,0)" xlink:href="#bI"/></g><g id="as"><use transform="matrix(0.05,0,0,0.05,0,0)" xlink:href="#bh"/><use transform="matrix(0.05,0,0,0.05,5,0)" xlink:href="#aO"/><use transform="matrix(0.05,0,0,0.05,15,0)" xlink:href="#bg"/><use transform="matrix(0.05,0,0,0.05,25,0)" xlink:href="#aP"/><use transform="matrix(0.05,0,0,0.05,34,0)" xlink:href="#aM"/><use transform="matrix(0.05,0,0,0.05,39,0)" xlink:href="#aW"/><use transform="matrix(0.05,0,0,0.05,42.95,0)" xlink:href="#aU"/><use transform="matrix(0.05,0,0,0.05,52.95,0)" xlink:href="#bg"/></g><g id="at"><use transform="matrix(0.05,0,0,0.05,0,0)" xlink:href="#aT"/><use transform="matrix(0.05,0,0,0.05,10,0)" xlink:href="#aU"/><use transform="matrix(0.05,0,0,0.05,20,0)" xlink:href="#aW"/><use transform="matrix(0.05,0,0,0.05,23.95,0)" xlink:href="#bg"/><use transform="matrix(0.05,0,0,0.05,33.95,0)" xlink:href="#aM"/><use transform="matrix(0.05,0,0,0.05,38.95,0)" xlink:href="#bb"/><use transform="matrix(0.05,0,0,0.05,48.95,0)" xlink:href="#aN"/><use transform="matrix(0.05,0,0,0.05,54.900000000000006,0)" xlink:href="#aL"/></g><g id="au"><use transform="matrix(0.05,0,0,0.05,0,0)" xlink:href="#aU"/><use transform="matrix(0.05,0,0,0.05,10,0)" xlink:href="#bh"/></g><use transform="matrix(0.05,0,0,0.05,0,0)" xlink:href="#bc" id="av"/><g id="aw"><use transform="matrix(0.05,0,0,0.05,0,0)" xlink:href="#aQ"/><use transform="matrix(0.05,0,0,0.05,14.950000000000001,0)" xlink:href="#aZ"/><use transform="matrix(0.05,0,0,0.05,24.950000000000003,0)" xlink:href="#aT"/></g><g id="ax"><use transform="matrix(0.05,0,0,0.05,0,0)" xlink:href="#aY"/><use transform="matrix(0.05,0,0,0.05,10,0)" xlink:href="#bb"/><use transform="matrix(0.05,0,0,0.05,20,0)" xlink:href="#aL"/><use transform="matrix(0.05,0,0,0.05,29,0)" xlink:href="#aM"/><use transform="matrix(0.05,0,0,0.05,34,0)" xlink:href="#aN"/><use transform="matrix(0.05,0,0,0.05,39.95,0)" xlink:href="#aU"/><use transform="matrix(0.05,0,0,0.05,49.95,0)" xlink:href="#aX"/></g><g id="ay"><use transform="matrix(0.05,0,0,0.05,0,0)" xlink:href="#aV"/><use transform="matrix(0.05,0,0,0.05,3.95,0)" xlink:href="#aU"/><use transform="matrix(0.05,0,0,0.05,13.949999999999998,0)" xlink:href="#aU"/><use transform="matrix(0.05,0,0,0.05,23.95,0)" xlink:href="#bf"/><use transform="matrix(0.05,0,0,0.05,32.95,0)" xlink:href="#aO"/><use transform="matrix(0.05,0,0,0.05,42.95,0)" xlink:href="#aT"/></g><g id="az"><use transform="matrix(0.05,0,0,0.05,0,0)" xlink:href="#aL"/><use transform="matrix(0.05,0,0,0.05,9,0)" xlink:href="#bb"/><use transform="matrix(0.05,0,0,0.05,19,0)" xlink:href="#aM"/><use transform="matrix(0.05,0,0,0.05,24,0)" xlink:href="#aS"/><use transform="matrix(0.05,0,0,0.05,34,0)" xlink:href="#aY"/><use transform="matrix(0.05,0,0,0.05,44,0)" xlink:href="#aW"/><use transform="matrix(0.05,0,0,0.05,47.95,0)" xlink:href="#aN"/><use transform="matrix(0.05,0,0,0.05,53.900000000000006,0)" xlink:href="#aM"/><use transform="matrix(0.05,0,0,0.05,58.900000000000006,0)" xlink:href="#aX"/></g><g id="aA"><use transform="matrix(0.05,0,0,0.05,0,0)" xlink:href="#aP"/><use transform="matrix(0.05,0,0,0.05,9,0)" xlink:href="#aV"/><use transform="matrix(0.05,0,0,0.05,12.949999999999998,0)" xlink:href="#bb"/><use transform="matrix(0.05,0,0,0.05,22.95,0)" xlink:href="#aZ"/><use transform="matrix(0.05,0,0,0.05,32.95,0)" xlink:href="#aN"/><use transform="matrix(0.05,0,0,0.05,38.900000000000006,0)" xlink:href="#aS"/><use transform="matrix(0.05,0,0,0.05,48.900000000000006,0)" xlink:href="#aY"/><use transform="matrix(0.05,0,0,0.05,58.900000000000006,0)" xlink:href="#aW"/><use transform="matrix(0.05,0,0,0.05,62.85,0)" xlink:href="#aN"/><use transform="matrix(0.05,0,0,0.05,68.80000000000001,0)" xlink:href="#aM"/><use transform="matrix(0.05,0,0,0.05,73.80000000000001,0)" xlink:href="#aX"/></g><g id="aB"><use transform="matrix(0.05,0,0,0.05,0,0)" xlink:href="#bu"/><use transform="matrix(0.05,0,0,0.05,10,0)" xlink:href="#bF"/><use transform="matrix(0.05,0,0,0.05,20.950000000000003,0)" xlink:href="#bo"/><use transform="matrix(0.05,0,0,0.05,26.900000000000002,0)" xlink:href="#bp"/><use transform="matrix(0.05,0,0,0.05,33.900000000000006,0)" xlink:href="#bI"/><use transform="matrix(0.05,0,0,0.05,43.900000000000006,0)" xlink:href="#bz"/><use transform="matrix(0.05,0,0,0.05,53.900000000000006,0)" xlink:href="#bn"/><use transform="matrix(0.05,0,0,0.05,63.900000000000006,0)" xlink:href="#bH"/><use transform="matrix(0.05,0,0,0.05,74.85000000000001,0)" xlink:href="#bs"/><use transform="matrix(0.05,0,0,0.05,84.85000000000001,0)" xlink:href="#br"/><use transform="matrix(0.05,0,0,0.05,94.85000000000001,0)" xlink:href="#bu"/></g><g id="aC"><use transform="matrix(0.05,0,0,0.05,0,0)" xlink:href="#bb"/><use transform="matrix(0.05,0,0,0.05,10,0)" xlink:href="#bg"/><use transform="matrix(0.05,0,0,0.05,20,0)" xlink:href="#aM"/><use transform="matrix(0.05,0,0,0.05,25,0)" xlink:href="#aN"/><use transform="matrix(0.05,0,0,0.05,30.950000000000003,0)" xlink:href="#aX"/></g><path d="M26 75v-336h71v23H56V52h41v23H26" id="bJ"/><path d="M3 75V52h41v-290H3v-23h71V75H3" id="bK"/><g id="aD"><use transform="matrix(0.05,0,0,0.05,0,0)" xlink:href="#bJ"/><use transform="matrix(0.05,0,0,0.05,5,0)" xlink:href="#bK"/></g><path d="M84 4C32 4 15-41 15-95c0-55 18-99 73-99 29 0 47 12 58 34l2-30h48l-1 265h-49V-32C136-9 114 4 84 4zm21-34c32 0 41-29 41-66 0-36-9-64-40-64-33 0-39 30-40 65 0 43 13 65 39 65" id="bL"/><g id="aE"><use transform="matrix(0.05,0,0,0.05,0,0)" xlink:href="#bL"/><use transform="matrix(0.05,0,0,0.05,10.950000000000001,0)" xlink:href="#bq"/><use transform="matrix(0.05,0,0,0.05,21.900000000000002,0)" xlink:href="#bu"/><use transform="matrix(0.05,0,0,0.05,31.900000000000002,0)" xlink:href="#bq"/><use transform="matrix(0.05,0,0,0.05,42.85,0)" xlink:href="#bu"/></g><g id="aF"><use transform="matrix(0.05,0,0,0.05,0,0)" xlink:href="#bb"/><use transform="matrix(0.05,0,0,0.05,10,0)" xlink:href="#bg"/><use transform="matrix(0.05,0,0,0.05,20,0)" xlink:href="#aM"/><use transform="matrix(0.05,0,0,0.05,25,0)" xlink:href="#aN"/><use transform="matrix(0.05,0,0,0.05,30.950000000000003,0)" xlink:href="#aX"/><use transform="matrix(0.05,0,0,0.05,39.95,0)" xlink:href="#aS"/><use transform="matrix(0.05,0,0,0.05,49.95,0)" xlink:href="#aL"/><use transform="matrix(0.05,0,0,0.05,58.95,0)" xlink:href="#aT"/><use transform="matrix(0.05,0,0,0.05,68.95,0)" xlink:href="#aZ"/><use transform="matrix(0.05,0,0,0.05,78.95,0)" xlink:href="#aP"/><use transform="matrix(0.05,0,0,0.05,87.95,0)" xlink:href="#bb"/></g><g id="aG"><use transform="matrix(0.05,0,0,0.05,0,0)" xlink:href="#bn"/><use transform="matrix(0.05,0,0,0.05,10,0)" xlink:href="#bo"/><use transform="matrix(0.05,0,0,0.05,15.949999999999998,0)" xlink:href="#bp"/><use transform="matrix(0.05,0,0,0.05,22.95,0)" xlink:href="#bq"/><use transform="matrix(0.05,0,0,0.05,33.9,0)" xlink:href="#br"/><use transform="matrix(0.05,0,0,0.05,43.9,0)" xlink:href="#bo"/></g><g id="aH"><use transform="matrix(0.05,0,0,0.05,0,0)" xlink:href="#bu"/><use transform="matrix(0.05,0,0,0.05,10,0)" xlink:href="#bF"/><use transform="matrix(0.05,0,0,0.05,20.950000000000003,0)" xlink:href="#bo"/><use transform="matrix(0.05,0,0,0.05,26.900000000000002,0)" xlink:href="#bp"/><use transform="matrix(0.05,0,0,0.05,33.900000000000006,0)" xlink:href="#bI"/></g><g id="aI"><use transform="matrix(0.05,0,0,0.05,0,0)" xlink:href="#aU"/><use transform="matrix(0.05,0,0,0.05,10,0)" xlink:href="#be"/><use transform="matrix(0.05,0,0,0.05,20,0)" xlink:href="#aV"/><use transform="matrix(0.05,0,0,0.05,23.95,0)" xlink:href="#aU"/><use transform="matrix(0.05,0,0,0.05,33.95,0)" xlink:href="#aP"/><use transform="matrix(0.05,0,0,0.05,42.95,0)" xlink:href="#bf"/></g><path d="M30-248c118-7 216 8 213 122C240-48 200 0 122 0H30v-248zM63-27c89 8 146-16 146-99s-60-101-146-95v194" id="bM"/><g id="aJ"><use transform="matrix(0.05,0,0,0.05,0,0)" xlink:href="#aW"/><use transform="matrix(0.05,0,0,0.05,3.95,0)" xlink:href="#aL"/><use transform="matrix(0.05,0,0,0.05,12.949999999999998,0)" xlink:href="#bM"/><use transform="matrix(0.05,0,0,0.05,25.899999999999995,0)" xlink:href="#aW"/><use transform="matrix(0.05,0,0,0.05,29.849999999999994,0)" xlink:href="#aN"/><use transform="matrix(0.05,0,0,0.05,35.8,0)" xlink:href="#aM"/><use transform="matrix(0.05,0,0,0.05,40.8,0)" xlink:href="#aX"/></g><path d="M205 0l-28-72H64L36 0H1l101-248h38L239 0h-34zm-38-99l-47-123c-12 45-31 82-46 123h93" id="bN"/><g id="aK"><use transform="matrix(0.05,0,0,0.05,0,0)" xlink:href="#aW"/><use transform="matrix(0.05,0,0,0.05,3.95,0)" xlink:href="#aL"/><use transform="matrix(0.05,0,0,0.05,12.949999999999998,0)" xlink:href="#bN"/><use transform="matrix(0.05,0,0,0.05,24.95,0)" xlink:href="#aV"/><use transform="matrix(0.05,0,0,0.05,28.899999999999995,0)" xlink:href="#aV"/><use transform="matrix(0.05,0,0,0.05,32.85,0)" xlink:href="#aU"/><use transform="matrix(0.05,0,0,0.05,42.85,0)" xlink:href="#aP"/><use transform="matrix(0.05,0,0,0.05,51.85,0)" xlink:href="#aZ"/><use transform="matrix(0.05,0,0,0.05,61.85,0)" xlink:href="#aM"/><use transform="matrix(0.05,0,0,0.05,66.85,0)" xlink:href="#bb"/><use transform="matrix(0.05,0,0,0.05,76.85,0)" xlink:href="#aY"/></g></defs></g></svg>