<svg xmlns="http://www.w3.org/2000/svg" xmlns:xlink="http://www.w3.org/1999/xlink" width="1321" height="2040"><g transform="translate(-320 -140)"><path d="M0 0h1760v1360H0z" fill="#fff"/><path d="M928 160c17.67 0 32 17.9 32 40s-14.33 40-32 40h-96c-17.67 0-32-17.9-32-40s14.33-40 32-40z" stroke="#000" stroke-width="2" fill="#fff"/><use xlink:href="#a" transform="matrix(1,0,0,1,800,160) translate(32.055 44.4)"/><use xlink:href="#b" transform="matrix(1,0,0,1,800,160) translate(63.005 44.4)"/><path d="M800 285c0-2.76 2.24-5 5-5h150c2.76 0 5 2.24 5 5v110c0 2.76-2.24 5-5 5H805c-2.76 0-5-2.24-5-5z" stroke="#000" stroke-width="2" fill="#fff"/><use xlink:href="#c" transform="matrix(1,0,0,1,800,280) translate(37.08 63.15)"/><use xlink:href="#d" transform="matrix(1,0,0,1,800,280) translate(87.97999999999999 63.15)"/><path d="M800 445c0-2.76 2.24-5 5-5h150c2.76 0 5 2.24 5 5v110c0 2.76-2.24 5-5 5H805c-2.76 0-5-2.24-5-5z" stroke="#000" stroke-width="2" fill="#fff"/><use xlink:href="#e" transform="matrix(1,0,0,1,800,440) translate(19.029999999999994 51.9)"/><use xlink:href="#f" transform="matrix(1,0,0,1,800,440) translate(81.98 51.9)"/><use xlink:href="#g" transform="matrix(1,0,0,1,800,440) translate(55.005 73.5)"/><path d="M875.7 602.57c2.38-1.42 6.22-1.42 8.6 0l91.4 54.86c2.38 1.42 2.38 3.72 0 5.14l-91.4 54.86c-2.38 1.42-6.22 1.42-8.6 0l-91.4-54.86c-2.38-1.42-2.38-3.72 0-5.14z" stroke="#000" stroke-width="2" fill="#fff"/><use xlink:href="#h" transform="matrix(1,0,0,1,780,600) translate(47.03000000000001 55.65)"/><use xlink:href="#i" transform="matrix(1,0,0,1,780,600) translate(111.03 55.65)"/><use xlink:href="#j" transform="matrix(1,0,0,1,780,600) translate(66.53 77.25)"/><use xlink:href="#k" transform="matrix(1,0,0,1,780,600) translate(85.47999999999999 77.25)"/><path d="M1120 610c0-2.76 2.24-5 5-5h150c2.76 0 5 2.24 5 5v100c0 2.76-2.24 5-5 5h-150c-2.76 0-5-2.24-5-5z" stroke="#000" stroke-width="2" fill="#fff"/><use xlink:href="#e" transform="matrix(1,0,0,1,1120,605) translate(12.555000000000001 48.775)"/><use xlink:href="#l" transform="matrix(1,0,0,1,1120,605) translate(75.50500000000001 48.775)"/><use xlink:href="#m" transform="matrix(1,0,0,1,1120,605) translate(128.505 48.775)"/><use xlink:href="#n" transform="matrix(1,0,0,1,1120,605) translate(61.005 70.375)"/><path d="M977.55 660h69.1c1.18 0 2.13.95 2.13 2.12 0 1.18.95 2.13 2.12 2.13h69.1" stroke="#000" stroke-width="2" fill="none"/><path d="M977.55 661h-.5l.35-1.62-.33-.38h.48zM1120 664.25l-14.27 4.63v-9.27z"/><path d="M1120 663.2v2.1l-15.27 4.96v-12.03zm-13.27 4.3l10.03-3.25-10.03-3.26z"/><path fill="#fff" d="M1034.1 651.32h29.36v21.6h-29.36z"/><use xlink:href="#o" transform="matrix(1,0,0,1,1034.1021275536639,651.3232612689524) translate(0 14.4)"/><path d="M880 718.75V800" stroke="#000" stroke-width="2" fill="none"/><path d="M880.3 718.5l.7-.1v.35h-2v-.36zM880 800l-4.64-14.27h9.28z"/><path d="M881.05 800h-2.1L874 784.73h12zm-4.3-13.27l3.25 10.03 3.26-10.03z"/><path fill="#fff" d="M868.52 748.57h22.96v21.6h-22.96z"/><use xlink:href="#p" transform="matrix(1,0,0,1,868.525,748.5745402326627) translate(0 14.4)"/><path d="M1360 605c0-2.76 2.24-5 5-5h150c2.76 0 5 2.24 5 5v110c0 2.76-2.24 5-5 5h-150c-2.76 0-5-2.24-5-5z" stroke="#000" stroke-width="2" fill="#fff"/><use xlink:href="#q" transform="matrix(1,0,0,1,1360,600) translate(29.08 63.15)"/><use xlink:href="#r" transform="matrix(1,0,0,1,1360,600) translate(61.08 63.15)"/><use xlink:href="#s" transform="matrix(1,0,0,1,1360,600) translate(111.97999999999999 63.15)"/><path d="M800 805c0-2.76 2.24-5 5-5h150c2.76 0 5 2.24 5 5v110c0 2.76-2.24 5-5 5H805c-2.76 0-5-2.24-5-5z" stroke="#000" stroke-width="2" fill="#fff"/><use xlink:href="#e" transform="matrix(1,0,0,1,800,800) translate(24.529999999999994 51.9)"/><use xlink:href="#t" transform="matrix(1,0,0,1,800,800) translate(87.48 51.9)"/><use xlink:href="#u" transform="matrix(1,0,0,1,800,800) translate(40.055 73.5)"/><use xlink:href="#n" transform="matrix(1,0,0,1,800,800) translate(81.95500000000001 73.5)"/><path d="M880 240v39" stroke="#000" stroke-width="2" fill="none"/><path d="M880 279l-4.64-14.27h9.28z"/><path d="M880.73 280h-1.46L874 263.73h12zm-4-14.27l3.27 10.03 3.26-10.03z"/><path d="M880 400v39" stroke="#000" stroke-width="2" fill="none"/><path d="M880 439l-4.64-14.27h9.28z"/><path d="M880.73 440h-1.46L874 423.73h12zm-4-14.27l3.27 10.03 3.26-10.03z"/><path d="M880 560v41.25" stroke="#000" stroke-width="2" fill="none"/><path d="M880 601.25L875.36 587h9.28z"/><path d="M880.94 601.6l-1.25-.1-.64.1L874 586h12zm-4.2-13.6l3.26 10 3.26-10z"/><path d="M875.84 962.77c2.3-1.53 6.02-1.53 8.32 0l111.68 74.46c2.3 1.53 2.3 4 0 5.54l-111.68 74.46c-2.3 1.53-6.02 1.53-8.32 0l-111.68-74.46c-2.3-1.53-2.3-4 0-5.54z" stroke="#000" stroke-width="2" fill="#fff"/><use xlink:href="#v" transform="matrix(1,0,0,1,760,960) translate(57.555 74.4)"/><use xlink:href="#f" transform="matrix(1,0,0,1,760,960) translate(123.455 74.4)"/><use xlink:href="#w" transform="matrix(1,0,0,1,760,960) translate(49.555 96)"/><use xlink:href="#x" transform="matrix(1,0,0,1,760,960) translate(104.55499999999999 96)"/><use xlink:href="#y" transform="matrix(1,0,0,1,760,960) translate(124.55499999999999 96)"/><path d="M880 1120v80" stroke="#000" stroke-width="2" fill="none"/><path d="M880.17 1118.37l.83-.12v1.75h-2v-1.75zM880 1200l-4.64-14.27h9.28z"/><path d="M880.5 1201.7l-.67-.07-.34.04-5.5-16.94h12zm-3.76-14.97l3.26 10.03 3.26-10.03z"/><path fill="#fff" d="M865.33 1149.2h29.36v21.6h-29.37z"/><use xlink:href="#o" transform="matrix(1,0,0,1,865.325,1149.2) translate(0 14.4)"/><path d="M1120 985c0-2.76 2.24-5 5-5h150c2.76 0 5 2.24 5 5v110c0 2.76-2.24 5-5 5h-150c-2.76 0-5-2.24-5-5z" stroke="#000" stroke-width="2" fill="#fff"/><use xlink:href="#q" transform="matrix(1,0,0,1,1120,980) translate(20.104999999999997 63.15)"/><use xlink:href="#r" transform="matrix(1,0,0,1,1120,980) translate(52.105 63.15)"/><use xlink:href="#z" transform="matrix(1,0,0,1,1120,980) translate(103.005 63.15)"/><path d="M997.47 1040H1119" stroke="#000" stroke-width="2" fill="none"/><path d="M997.47 1041h-.2l.16-1.83-.14-.17h.17zM1119 1040l-14.27 4.64v-9.28z"/><path d="M1120 1039.27v1.46l-16.27 5.28v-12zm-14.27 4l10.03-3.27-10.03-3.26z"/><path fill="#fff" d="M1046.76 1029.2h22.96v21.6h-22.96z"/><use xlink:href="#p" transform="matrix(1,0,0,1,1046.7613796664,1029.2) translate(0 14.4)"/><path d="M875.84 1202.77c2.3-1.53 6.02-1.53 8.32 0l111.68 74.46c2.3 1.53 2.3 4 0 5.54l-111.68 74.46c-2.3 1.53-6.02 1.53-8.32 0l-111.68-74.46c-2.3-1.53-2.3-4 0-5.54z" stroke="#000" stroke-width="2" fill="#fff"/><use xlink:href="#A" transform="matrix(1,0,0,1,760,1200) translate(43.555000000000014 74.4)"/><use xlink:href="#l" transform="matrix(1,0,0,1,760,1200) translate(62.555000000000014 74.4)"/><use xlink:href="#B" transform="matrix(1,0,0,1,760,1200) translate(115.555 74.4)"/><use xlink:href="#C" transform="matrix(1,0,0,1,760,1200) translate(162.505 74.4)"/><use xlink:href="#D" transform="matrix(1,0,0,1,760,1200) translate(90.53 96)"/><path d="M997.2 1280H1120M997.2 1280h-3" stroke="#000" stroke-width="2" fill="none"/><path d="M1120 1280l-14.27 4.64v-9.28z"/><path d="M1120 1278.95v2.1l-15.27 4.96v-12zm-13.27 4.3l10.03-3.25-10.03-3.26z"/><path fill="#fff" d="M1047.13 1269.2h22.96v21.6h-22.97z"/><use xlink:href="#p" transform="matrix(1,0,0,1,1047.1276837626533,1269.2) translate(0 14.4)"/><path d="M1120 1225c0-2.76 2.24-5 5-5h150c2.76 0 5 2.24 5 5v110c0 2.76-2.24 5-5 5h-150c-2.76 0-5-2.24-5-5z" stroke="#000" stroke-width="2" fill="#fff"/><use xlink:href="#E" transform="matrix(1,0,0,1,1120,1220) translate(21.554999999999993 51.9)"/><use xlink:href="#t" transform="matrix(1,0,0,1,1120,1220) translate(90.45500000000001 51.9)"/><use xlink:href="#F" transform="matrix(1,0,0,1,1120,1220) translate(59.029999999999994 73.5)"/><path d="M880 1358.27V1440M880 1358.27v-3" stroke="#000" stroke-width="2" fill="none"/><path d="M880 1440l-4.64-14.27h9.28z"/><path d="M880.5 1441.7l-.67-.07-.34.04-5.5-16.94h12zm-3.76-14.97l3.26 10.03 3.26-10.03z"/><path fill="#fff" d="M865.33 1388.34h29.36v21.6h-29.37z"/><use xlink:href="#o" transform="matrix(1,0,0,1,865.325,1388.3354021560306) translate(0 14.4)"/><path d="M800 1685c0-2.76 2.24-5 5-5h150c2.76 0 5 2.24 5 5v110c0 2.76-2.24 5-5 5H805c-2.76 0-5-2.24-5-5z" stroke="#000" stroke-width="2" fill="#fff"/><use xlink:href="#G" transform="matrix(1,0,0,1,800,1680) translate(5.104999999999999 40.65)"/><use xlink:href="#H" transform="matrix(1,0,0,1,800,1680) translate(39.105 40.65)"/><use xlink:href="#B" transform="matrix(1,0,0,1,800,1680) translate(72.055 40.65)"/><use xlink:href="#I" transform="matrix(1,0,0,1,800,1680) translate(119.00500000000001 40.65)"/><use xlink:href="#J" transform="matrix(1,0,0,1,800,1680) translate(30.555 62.25)"/><use xlink:href="#K" transform="matrix(1,0,0,1,800,1680) translate(78.505 62.25)"/><use xlink:href="#g" transform="matrix(1,0,0,1,800,1680) translate(55.005 83.85000000000001)"/><path d="M1281 1280h79" stroke="#000" stroke-width="2" fill="none"/><path d="M1281 1281h-1v-2h1zM1360 1280l-14.27 4.64v-9.28z"/><path d="M1360 1278.95v2.1l-15.27 4.96v-12zm-13.27 4.3l10.03-3.25-10.03-3.26z"/><path d="M1360 1225c0-2.76 2.24-5 5-5h150c2.76 0 5 2.24 5 5v110c0 2.76-2.24 5-5 5h-150c-2.76 0-5-2.24-5-5z" stroke="#000" stroke-width="2" fill="#fff"/><use xlink:href="#q" transform="matrix(1,0,0,1,1360,1220) translate(22.08 63.15)"/><use xlink:href="#r" transform="matrix(1,0,0,1,1360,1220) translate(54.08 63.15)"/><use xlink:href="#L" transform="matrix(1,0,0,1,1360,1220) translate(104.97999999999999 63.15)"/><path d="M880 920v41.56" stroke="#000" stroke-width="2" fill="none"/><path d="M880 961.56l-4.64-14.26h9.28z"/><path d="M881 961.75l-1.17-.12-.82.12-5-15.45h12zm-4.26-13.45l3.26 10.03 3.26-10.03z"/><path d="M1280 660h80" stroke="#000" stroke-width="2" fill="none"/><path d="M1360 660l-14.27 4.64v-9.28z"/><path d="M1360 658.95v2.1l-15.27 4.96v-12zm-13.27 4.3l10.03-3.25-10.03-3.26z"/><path d="M345 1160c-2.76 0-5 2.24-5 5v870c0 2.76 2.24 5 5 5h330c2.76 0 5-2.24 5-5v-870c0-2.76-2.24-5-5-5z" fill="none"/><path d="M680 2040c-30.38 0-55-24.62-55-55v-330c0-30.38-24.62-55-55-55 30.38 0 55-24.62 55-55v-330c0-30.38 24.62-55 55-55" stroke="#000" stroke-width="2" fill="none"/><use xlink:href="#M" transform="matrix(1,0,0,1,340,1160) translate(31.555 440.65)"/><use xlink:href="#j" transform="matrix(1,0,0,1,340,1160) translate(81.505 440.65)"/><use xlink:href="#N" transform="matrix(1,0,0,1,340,1160) translate(100.455 440.65)"/><path d="M875.84 1442.77c2.3-1.53 6.02-1.53 8.32 0l111.68 74.46c2.3 1.53 2.3 4 0 5.54l-111.68 74.46c-2.3 1.53-6.02 1.53-8.32 0l-111.68-74.46c-2.3-1.53-2.3-4 0-5.54z" stroke="#000" stroke-width="2" fill="#fff"/><use xlink:href="#A" transform="matrix(1,0,0,1,760,1440) translate(61.054999999999986 74.4)"/><use xlink:href="#J" transform="matrix(1,0,0,1,760,1440) translate(80.05499999999998 74.4)"/><use xlink:href="#K" transform="matrix(1,0,0,1,760,1440) translate(128.005 74.4)"/><use xlink:href="#w" transform="matrix(1,0,0,1,760,1440) translate(63.03000000000001 96)"/><use xlink:href="#D" transform="matrix(1,0,0,1,760,1440) translate(118.03 96)"/><path d="M997.36 1520H1120" stroke="#000" stroke-width="2" fill="none"/><path d="M997.36 1521h-.1l.1-1.08zm0-1.92l-.07-.08h.06zM1120 1520l-14.27 4.64v-9.28z"/><path d="M1120 1518.95v2.1l-15.27 4.96v-12zm-13.27 4.3l10.03-3.25-10.03-3.26z"/><path fill="#fff" d="M1044 1509.2h29.36v21.6H1044z"/><g><use xlink:href="#o" transform="matrix(1,0,0,1,1044.0036446119277,1509.2) translate(0 14.4)"/></g><path d="M1120 1465c0-2.76 2.24-5 5-5h150c2.76 0 5 2.24 5 5v110c0 2.76-2.24 5-5 5h-150c-2.76 0-5-2.24-5-5z" stroke="#000" stroke-width="2" fill="#fff"/><g><use xlink:href="#q" transform="matrix(1,0,0,1,1120,1460) translate(19.055 63.15)"/><use xlink:href="#l" transform="matrix(1,0,0,1,1120,1460) translate(51.055 63.15)"/><use xlink:href="#z" transform="matrix(1,0,0,1,1120,1460) translate(104.05499999999999 63.15)"/></g><path d="M880 1598.33V1679M880 1598.33v-3" stroke="#000" stroke-width="2" fill="none"/><path d="M880 1679l-4.64-14.27h9.28z"/><path d="M880.73 1680h-1.46l-5.28-16.27h12zm-4-14.27l3.27 10.03 3.26-10.03z"/><path fill="#fff" d="M868.52 1627.87h22.96v21.6h-22.96z"/><g><use xlink:href="#p" transform="matrix(1,0,0,1,868.525,1627.8660536435502) translate(0 14.4)"/></g><path d="M880 1800v80" stroke="#000" stroke-width="2" fill="none"/><path d="M880 1880l-4.64-14.27h9.28z"/><path d="M881.05 1880h-2.1l-4.96-15.27h12zm-4.3-13.27l3.25 10.03 3.26-10.03z"/><path d="M800 1885c0-2.76 2.24-5 5-5h150c2.76 0 5 2.24 5 5v110c0 2.76-2.24 5-5 5H805c-2.76 0-5-2.24-5-5z" stroke="#000" stroke-width="2" fill="#fff"/><g><use xlink:href="#q" transform="matrix(1,0,0,1,800,1880) translate(9.104999999999999 63.15)"/><use xlink:href="#r" transform="matrix(1,0,0,1,800,1880) translate(41.105 63.15)"/><use xlink:href="#O" transform="matrix(1,0,0,1,800,1880) translate(92.005 63.15)"/></g><path d="M880 2000v80" stroke="#000" stroke-width="2" fill="none"/><path d="M880 2080l-4.64-14.27h9.28z"/><path d="M881.05 2080h-2.1l-4.96-15.27h12zm-4.3-13.27l3.25 10.03 3.26-10.03z"/><path d="M928 2080c17.67 0 32 17.9 32 40s-14.33 40-32 40h-96c-17.67 0-32-17.9-32-40s14.33-40 32-40z" stroke="#000" stroke-width="2" fill="#fff"/><g><use xlink:href="#P" transform="matrix(1,0,0,1,800,2080) translate(64.00500000000001 44.4)"/></g><path d="M1200 1580v535c0 2.76-2.24 5-5 5H960" stroke="#000" stroke-width="2" fill="none"/><path d="M974.27 2124.64L960 2120l14.27-4.64z"/><path d="M975.27 2126l-15.33-4.97.06-1.03-.04-1.04 15.3-4.97zm-12.03-6l10.03 3.26v-6.52z"/><path d="M1440 1340v775c0 2.76-2.24 5-5 5H960" stroke="#000" stroke-width="2" fill="none"/><path d="M974.27 2124.64L960 2120l14.27-4.64z"/><path d="M975.27 2126l-15.33-4.97.06-1.03-.04-1.04 15.3-4.97zm-12.03-6l10.03 3.26v-6.52z"/><path d="M1280 1040h285c2.76 0 5 2.24 5 5v1070c0 2.76-2.24 5-5 5H960" stroke="#000" stroke-width="2" fill="none"/><path d="M974.27 2124.64L960 2120l14.27-4.64z"/><path d="M975.27 2126l-15.33-4.97.06-1.03-.04-1.04 15.3-4.97zm-12.03-6l10.03 3.26v-6.52z"/><path d="M1520 660h105c2.76 0 5 2.24 5 5v1450c0 2.76-2.24 5-5 5H960" stroke="#000" stroke-width="2" fill="none"/><path d="M974.27 2124.64L960 2120l14.27-4.64z"/><path d="M975.27 2126l-15.33-4.97.06-1.03-.04-1.04 15.3-4.97zm-12.03-6l10.03 3.26v-6.52z"/><path d="M645 1640c-2.76 0-5 2.24-5 5v390c0 2.76 2.24 5 5 5h130c2.76 0 5-2.24 5-5v-390c0-2.76-2.24-5-5-5z" fill="none"/><path d="M780 2040c-13.8 0-25-11.2-25-25v-150c0-13.8-11.2-25-25-25 13.8 0 25-11.2 25-25v-150c0-13.8 11.2-25 25-25" stroke="#000" stroke-width="2" fill="none"/><g><use xlink:href="#Q" transform="matrix(1,0,0,1,640,1640) translate(5.029999999999996 195.65)"/><use xlink:href="#R" transform="matrix(1,0,0,1,640,1640) translate(9.53 217.25)"/></g><defs><path d="M160-131c35 5 61 23 61 61C221 17 115-2 30 0v-248c76 3 177-17 177 60 0 33-19 50-47 57zm-97-11c50-1 110 9 110-42 0-47-63-36-110-37v79zm0 115c55-2 124 14 124-45 0-56-70-42-124-44v89" id="S"/><path d="M24-231v-30h32v30H24zM24 0v-190h32V0H24" id="T"/><path d="M100-194c62-1 85 37 85 99 1 63-27 99-86 99S16-35 15-95c0-66 28-99 85-99zM99-20c44 1 53-31 53-75 0-43-8-75-51-75s-53 32-53 75 10 74 51 75" id="U"/><g id="a"><use transform="matrix(0.05,0,0,0.05,0,0)" xlink:href="#S"/><use transform="matrix(0.05,0,0,0.05,12,0)" xlink:href="#T"/><use transform="matrix(0.05,0,0,0.05,15.949999999999998,0)" xlink:href="#U"/></g><path d="M210-169c-67 3-38 105-44 169h-31v-121c0-29-5-50-35-48C34-165 62-65 56 0H25l-1-190h30c1 10-1 24 2 32 10-44 99-50 107 0 11-21 27-35 58-36 85-2 47 119 55 194h-31v-121c0-29-5-49-35-48" id="V"/><path d="M141-36C126-15 110 5 73 4 37 3 15-17 15-53c-1-64 63-63 125-63 3-35-9-54-41-54-24 1-41 7-42 31l-33-3c5-37 33-52 76-52 45 0 72 20 72 64v82c-1 20 7 32 28 27v20c-31 9-61-2-59-35zM48-53c0 20 12 33 32 33 41-3 63-29 60-74-43 2-92-5-92 41" id="W"/><path d="M115-194c55 1 70 41 70 98S169 2 115 4C84 4 66-9 55-30l1 105H24l-1-265h31l2 30c10-21 28-34 59-34zm-8 174c40 0 45-34 45-75s-6-73-45-74c-42 0-51 32-51 76 0 43 10 73 51 73" id="X"/><path d="M100-194c63 0 86 42 84 106H49c0 40 14 67 53 68 26 1 43-12 49-29l28 8c-11 28-37 45-77 45C44 4 14-33 15-96c1-61 26-98 85-98zm52 81c6-60-76-77-97-28-3 7-6 17-6 28h103" id="Y"/><path d="M85-194c31 0 48 13 60 33l-1-100h32l1 261h-30c-2-10 0-23-3-31C134-8 116 4 85 4 32 4 16-35 15-94c0-66 23-100 70-100zm9 24c-40 0-46 34-46 75 0 40 6 74 45 74 42 0 51-32 51-76 0-42-9-74-50-73" id="Z"/><g id="b"><use transform="matrix(0.05,0,0,0.05,0,0)" xlink:href="#V"/><use transform="matrix(0.05,0,0,0.05,14.950000000000001,0)" xlink:href="#W"/><use transform="matrix(0.05,0,0,0.05,24.950000000000003,0)" xlink:href="#X"/><use transform="matrix(0.05,0,0,0.05,34.95,0)" xlink:href="#X"/><use transform="matrix(0.05,0,0,0.05,44.95,0)" xlink:href="#Y"/><use transform="matrix(0.05,0,0,0.05,54.95,0)" xlink:href="#Z"/></g><path d="M24 0v-261h32V0H24" id="aa"/><path d="M96-169c-40 0-48 33-48 73s9 75 48 75c24 0 41-14 43-38l32 2c-6 37-31 61-74 61-59 0-76-41-82-99-10-93 101-131 147-64 4 7 5 14 7 22l-32 3c-4-21-16-35-41-35" id="ab"/><path d="M179-190L93 31C79 59 56 82 12 73V49c39 6 53-20 64-50L1-190h34L92-34l54-156h33" id="ac"/><g id="c"><use transform="matrix(0.05,0,0,0.05,0,0)" xlink:href="#X"/><use transform="matrix(0.05,0,0,0.05,10,0)" xlink:href="#U"/><use transform="matrix(0.05,0,0,0.05,20,0)" xlink:href="#aa"/><use transform="matrix(0.05,0,0,0.05,23.95,0)" xlink:href="#T"/><use transform="matrix(0.05,0,0,0.05,27.899999999999995,0)" xlink:href="#ab"/><use transform="matrix(0.05,0,0,0.05,36.9,0)" xlink:href="#ac"/></g><g id="d"><use transform="matrix(0.05,0,0,0.05,0,0)" xlink:href="#V"/><use transform="matrix(0.05,0,0,0.05,14.950000000000001,0)" xlink:href="#W"/><use transform="matrix(0.05,0,0,0.05,24.950000000000003,0)" xlink:href="#X"/></g><path d="M232-93c-1 65-40 97-104 97C67 4 28-28 28-90v-158h33c8 89-33 224 67 224 102 0 64-133 71-224h33v155" id="ad"/><path d="M59-47c-2 24 18 29 38 22v24C64 9 27 4 27-40v-127H5v-23h24l9-43h21v43h35v23H59v120" id="ae"/><g id="e"><use transform="matrix(0.05,0,0,0.05,0,0)" xlink:href="#ad"/><use transform="matrix(0.05,0,0,0.05,12.950000000000001,0)" xlink:href="#X"/><use transform="matrix(0.05,0,0,0.05,22.950000000000003,0)" xlink:href="#Z"/><use transform="matrix(0.05,0,0,0.05,32.95,0)" xlink:href="#W"/><use transform="matrix(0.05,0,0,0.05,42.95,0)" xlink:href="#ae"/><use transform="matrix(0.05,0,0,0.05,47.95,0)" xlink:href="#Y"/></g><path d="M106-169C34-169 62-67 57 0H25v-261h32l-1 103c12-21 28-36 61-36 89 0 53 116 60 194h-32v-121c2-32-8-49-39-48" id="af"/><path d="M135-143c-3-34-86-38-87 0 15 53 115 12 119 90S17 21 10-45l28-5c4 36 97 45 98 0-10-56-113-15-118-90-4-57 82-63 122-42 12 7 21 19 24 35" id="ag"/><g id="f"><use transform="matrix(0.05,0,0,0.05,0,0)" xlink:href="#af"/><use transform="matrix(0.05,0,0,0.05,10,0)" xlink:href="#U"/><use transform="matrix(0.05,0,0,0.05,20,0)" xlink:href="#ae"/><use transform="matrix(0.05,0,0,0.05,25,0)" xlink:href="#ag"/><use transform="matrix(0.05,0,0,0.05,34,0)" xlink:href="#X"/><use transform="matrix(0.05,0,0,0.05,44,0)" xlink:href="#U"/><use transform="matrix(0.05,0,0,0.05,54,0)" xlink:href="#ae"/></g><path d="M145-31C134-9 116 4 85 4 32 4 16-35 15-94c0-59 17-99 70-100 32-1 48 14 60 33 0-11-1-24 2-32h30l-1 268h-32zM93-21c41 0 51-33 51-76s-8-73-50-73c-40 0-46 35-46 75s5 74 45 74" id="ah"/><path d="M84 4C-5 8 30-112 23-190h32v120c0 31 7 50 39 49 72-2 45-101 50-169h31l1 190h-30c-1-10 1-25-2-33-11 22-28 36-60 37" id="ai"/><g id="g"><use transform="matrix(0.05,0,0,0.05,0,0)" xlink:href="#ah"/><use transform="matrix(0.05,0,0,0.05,10,0)" xlink:href="#ai"/><use transform="matrix(0.05,0,0,0.05,20,0)" xlink:href="#Y"/><use transform="matrix(0.05,0,0,0.05,30,0)" xlink:href="#ai"/><use transform="matrix(0.05,0,0,0.05,40,0)" xlink:href="#Y"/></g><path d="M30 0v-248h33v221h125V0H30" id="aj"/><path d="M143 0L79-87 56-68V0H24v-261h32v163l83-92h37l-77 82L181 0h-38" id="ak"/><g id="h"><use transform="matrix(0.05,0,0,0.05,0,0)" xlink:href="#aj"/><use transform="matrix(0.05,0,0,0.05,10,0)" xlink:href="#U"/><use transform="matrix(0.05,0,0,0.05,20,0)" xlink:href="#U"/><use transform="matrix(0.05,0,0,0.05,30,0)" xlink:href="#ak"/><use transform="matrix(0.05,0,0,0.05,39,0)" xlink:href="#ai"/><use transform="matrix(0.05,0,0,0.05,49,0)" xlink:href="#X"/></g><path d="M115-194c53 0 69 39 70 98 0 66-23 100-70 100C84 3 66-7 56-30L54 0H23l1-261h32v101c10-23 28-34 59-34zm-8 174c40 0 45-34 45-75 0-40-5-75-45-74-42 0-51 32-51 76 0 43 10 73 51 73" id="al"/><g id="i"><use transform="matrix(0.05,0,0,0.05,0,0)" xlink:href="#al"/><use transform="matrix(0.05,0,0,0.05,10,0)" xlink:href="#aa"/><use transform="matrix(0.05,0,0,0.05,13.949999999999998,0)" xlink:href="#U"/><use transform="matrix(0.05,0,0,0.05,23.95,0)" xlink:href="#ab"/><use transform="matrix(0.05,0,0,0.05,32.95,0)" xlink:href="#ak"/></g><path d="M117-194c89-4 53 116 60 194h-32v-121c0-31-8-49-39-48C34-167 62-67 57 0H25l-1-190h30c1 10-1 24 2 32 11-22 29-35 61-36" id="am"/><g id="j"><use transform="matrix(0.05,0,0,0.05,0,0)" xlink:href="#T"/><use transform="matrix(0.05,0,0,0.05,3.95,0)" xlink:href="#am"/></g><g id="k"><use transform="matrix(0.05,0,0,0.05,0,0)" xlink:href="#ab"/><use transform="matrix(0.05,0,0,0.05,9,0)" xlink:href="#W"/><use transform="matrix(0.05,0,0,0.05,19,0)" xlink:href="#ab"/><use transform="matrix(0.05,0,0,0.05,28,0)" xlink:href="#af"/><use transform="matrix(0.05,0,0,0.05,38,0)" xlink:href="#Y"/></g><g id="l"><use transform="matrix(0.05,0,0,0.05,0,0)" xlink:href="#ab"/><use transform="matrix(0.05,0,0,0.05,9,0)" xlink:href="#W"/><use transform="matrix(0.05,0,0,0.05,19,0)" xlink:href="#ab"/><use transform="matrix(0.05,0,0,0.05,28,0)" xlink:href="#af"/><use transform="matrix(0.05,0,0,0.05,38,0)" xlink:href="#Y"/></g><g id="m"><use transform="matrix(0.05,0,0,0.05,0,0)" xlink:href="#af"/><use transform="matrix(0.05,0,0,0.05,10,0)" xlink:href="#T"/><use transform="matrix(0.05,0,0,0.05,13.949999999999998,0)" xlink:href="#ae"/></g><g id="n"><use transform="matrix(0.05,0,0,0.05,0,0)" xlink:href="#ag"/><use transform="matrix(0.05,0,0,0.05,9,0)" xlink:href="#ae"/><use transform="matrix(0.05,0,0,0.05,14,0)" xlink:href="#W"/><use transform="matrix(0.05,0,0,0.05,24,0)" xlink:href="#ae"/><use transform="matrix(0.05,0,0,0.05,29,0)" xlink:href="#ag"/></g><path d="M137-103V0h-34v-103L8-248h37l75 118 75-118h37" id="an"/><g id="o"><use transform="matrix(0.05,0,0,0.05,0,0)" xlink:href="#an"/><use transform="matrix(0.05,0,0,0.05,10.35,0)" xlink:href="#Y"/><use transform="matrix(0.05,0,0,0.05,20.35,0)" xlink:href="#ag"/></g><path d="M190 0L58-211 59 0H30v-248h39L202-35l-2-213h31V0h-41" id="ao"/><g id="p"><use transform="matrix(0.05,0,0,0.05,0,0)" xlink:href="#ao"/><use transform="matrix(0.05,0,0,0.05,12.950000000000001,0)" xlink:href="#U"/></g><path d="M185-189c-5-48-123-54-124 2 14 75 158 14 163 119 3 78-121 87-175 55-17-10-28-26-33-46l33-7c5 56 141 63 141-1 0-78-155-14-162-118-5-82 145-84 179-34 5 7 8 16 11 25" id="ap"/><g id="q"><use transform="matrix(0.05,0,0,0.05,0,0)" xlink:href="#ap"/><use transform="matrix(0.05,0,0,0.05,12,0)" xlink:href="#Y"/><use transform="matrix(0.05,0,0,0.05,22,0)" xlink:href="#ae"/></g><g id="r"><use transform="matrix(0.05,0,0,0.05,0,0)" xlink:href="#X"/><use transform="matrix(0.05,0,0,0.05,10,0)" xlink:href="#U"/><use transform="matrix(0.05,0,0,0.05,20,0)" xlink:href="#aa"/><use transform="matrix(0.05,0,0,0.05,23.95,0)" xlink:href="#T"/><use transform="matrix(0.05,0,0,0.05,27.899999999999995,0)" xlink:href="#ab"/><use transform="matrix(0.05,0,0,0.05,36.9,0)" xlink:href="#ac"/></g><g id="s"><use transform="matrix(0.05,0,0,0.05,0,0)" xlink:href="#af"/><use transform="matrix(0.05,0,0,0.05,10,0)" xlink:href="#T"/><use transform="matrix(0.05,0,0,0.05,13.949999999999998,0)" xlink:href="#ae"/></g><g id="t"><use transform="matrix(0.05,0,0,0.05,0,0)" xlink:href="#ab"/><use transform="matrix(0.05,0,0,0.05,9,0)" xlink:href="#W"/><use transform="matrix(0.05,0,0,0.05,19,0)" xlink:href="#ab"/><use transform="matrix(0.05,0,0,0.05,28,0)" xlink:href="#af"/><use transform="matrix(0.05,0,0,0.05,38,0)" xlink:href="#Y"/></g><g id="u"><use transform="matrix(0.05,0,0,0.05,0,0)" xlink:href="#V"/><use transform="matrix(0.05,0,0,0.05,14.950000000000001,0)" xlink:href="#T"/><use transform="matrix(0.05,0,0,0.05,18.900000000000002,0)" xlink:href="#ag"/><use transform="matrix(0.05,0,0,0.05,27.900000000000002,0)" xlink:href="#ag"/></g><path d="M212-179c-10-28-35-45-73-45-59 0-87 40-87 99 0 60 29 101 89 101 43 0 62-24 78-52l27 14C228-24 195 4 139 4 59 4 22-46 18-125c-6-104 99-153 187-111 19 9 31 26 39 46" id="aq"/><g id="v"><use transform="matrix(0.05,0,0,0.05,0,0)" xlink:href="#aq"/><use transform="matrix(0.05,0,0,0.05,12.950000000000001,0)" xlink:href="#U"/><use transform="matrix(0.05,0,0,0.05,22.950000000000003,0)" xlink:href="#am"/><use transform="matrix(0.05,0,0,0.05,32.95,0)" xlink:href="#ag"/><use transform="matrix(0.05,0,0,0.05,41.95,0)" xlink:href="#ai"/><use transform="matrix(0.05,0,0,0.05,51.95,0)" xlink:href="#aa"/><use transform="matrix(0.05,0,0,0.05,55.900000000000006,0)" xlink:href="#ae"/></g><g id="w"><use transform="matrix(0.05,0,0,0.05,0,0)" xlink:href="#ah"/><use transform="matrix(0.05,0,0,0.05,10,0)" xlink:href="#ai"/><use transform="matrix(0.05,0,0,0.05,20,0)" xlink:href="#Y"/><use transform="matrix(0.05,0,0,0.05,30,0)" xlink:href="#ai"/><use transform="matrix(0.05,0,0,0.05,40,0)" xlink:href="#Y"/></g><g id="x"><use transform="matrix(0.05,0,0,0.05,0,0)" xlink:href="#ae"/><use transform="matrix(0.05,0,0,0.05,5,0)" xlink:href="#U"/></g><path d="M114-163C36-179 61-72 57 0H25l-1-190h30c1 12-1 29 2 39 6-27 23-49 58-41v29" id="ar"/><g id="y"><use transform="matrix(0.05,0,0,0.05,0,0)" xlink:href="#X"/><use transform="matrix(0.05,0,0,0.05,10,0)" xlink:href="#ar"/><use transform="matrix(0.05,0,0,0.05,15.949999999999998,0)" xlink:href="#U"/><use transform="matrix(0.05,0,0,0.05,25.950000000000003,0)" xlink:href="#V"/><use transform="matrix(0.05,0,0,0.05,40.9,0)" xlink:href="#U"/><use transform="matrix(0.05,0,0,0.05,50.9,0)" xlink:href="#ae"/><use transform="matrix(0.05,0,0,0.05,55.900000000000006,0)" xlink:href="#Y"/></g><g id="z"><use transform="matrix(0.05,0,0,0.05,0,0)" xlink:href="#V"/><use transform="matrix(0.05,0,0,0.05,14.950000000000001,0)" xlink:href="#T"/><use transform="matrix(0.05,0,0,0.05,18.900000000000002,0)" xlink:href="#ag"/><use transform="matrix(0.05,0,0,0.05,27.900000000000002,0)" xlink:href="#ag"/></g><path d="M33 0v-248h34V0H33" id="as"/><g id="A"><use transform="matrix(0.05,0,0,0.05,0,0)" xlink:href="#as"/><use transform="matrix(0.05,0,0,0.05,5,0)" xlink:href="#ag"/></g><g id="B"><use transform="matrix(0.05,0,0,0.05,0,0)" xlink:href="#al"/><use transform="matrix(0.05,0,0,0.05,10,0)" xlink:href="#aa"/><use transform="matrix(0.05,0,0,0.05,13.949999999999998,0)" xlink:href="#U"/><use transform="matrix(0.05,0,0,0.05,23.95,0)" xlink:href="#ab"/><use transform="matrix(0.05,0,0,0.05,32.95,0)" xlink:href="#ak"/></g><g id="C"><use transform="matrix(0.05,0,0,0.05,0,0)" xlink:href="#X"/><use transform="matrix(0.05,0,0,0.05,10,0)" xlink:href="#U"/><use transform="matrix(0.05,0,0,0.05,20,0)" xlink:href="#U"/><use transform="matrix(0.05,0,0,0.05,30,0)" xlink:href="#aa"/></g><path d="M103-251c84 0 111 97 45 133-19 10-37 24-39 52H78c0-63 77-55 77-114 0-30-21-42-52-43-32 0-53 17-56 46l-32-2c7-45 34-72 88-72zM77 0v-35h34V0H77" id="at"/><g id="D"><use transform="matrix(0.05,0,0,0.05,0,0)" xlink:href="#Y"/><use transform="matrix(0.05,0,0,0.05,10,0)" xlink:href="#V"/><use transform="matrix(0.05,0,0,0.05,24.950000000000003,0)" xlink:href="#X"/><use transform="matrix(0.05,0,0,0.05,34.95,0)" xlink:href="#ae"/><use transform="matrix(0.05,0,0,0.05,39.95,0)" xlink:href="#ac"/><use transform="matrix(0.05,0,0,0.05,48.95,0)" xlink:href="#at"/></g><path d="M205 0l-28-72H64L36 0H1l101-248h38L239 0h-34zm-38-99l-47-123c-12 45-31 82-46 123h93" id="au"/><g id="E"><use transform="matrix(0.05,0,0,0.05,0,0)" xlink:href="#au"/><use transform="matrix(0.05,0,0,0.05,12,0)" xlink:href="#aa"/><use transform="matrix(0.05,0,0,0.05,15.949999999999998,0)" xlink:href="#aa"/><use transform="matrix(0.05,0,0,0.05,19.9,0)" xlink:href="#U"/><use transform="matrix(0.05,0,0,0.05,29.899999999999995,0)" xlink:href="#ab"/><use transform="matrix(0.05,0,0,0.05,38.9,0)" xlink:href="#W"/><use transform="matrix(0.05,0,0,0.05,48.9,0)" xlink:href="#ae"/><use transform="matrix(0.05,0,0,0.05,53.900000000000006,0)" xlink:href="#Y"/></g><g id="F"><use transform="matrix(0.05,0,0,0.05,0,0)" xlink:href="#al"/><use transform="matrix(0.05,0,0,0.05,10,0)" xlink:href="#aa"/><use transform="matrix(0.05,0,0,0.05,13.949999999999998,0)" xlink:href="#U"/><use transform="matrix(0.05,0,0,0.05,23.95,0)" xlink:href="#ab"/><use transform="matrix(0.05,0,0,0.05,32.95,0)" xlink:href="#ak"/></g><path d="M143 4C61 4 22-44 18-125c-5-107 100-154 193-111 17 8 29 25 37 43l-32 9c-13-25-37-40-76-40-61 0-88 39-88 99 0 61 29 100 91 101 35 0 62-11 79-27v-45h-74v-28h105v86C228-13 192 4 143 4" id="av"/><g id="G"><use transform="matrix(0.05,0,0,0.05,0,0)" xlink:href="#av"/><use transform="matrix(0.05,0,0,0.05,14,0)" xlink:href="#Y"/><use transform="matrix(0.05,0,0,0.05,24,0)" xlink:href="#ae"/></g><g id="H"><use transform="matrix(0.05,0,0,0.05,0,0)" xlink:href="#aa"/><use transform="matrix(0.05,0,0,0.05,3.95,0)" xlink:href="#W"/><use transform="matrix(0.05,0,0,0.05,13.949999999999998,0)" xlink:href="#ag"/><use transform="matrix(0.05,0,0,0.05,22.95,0)" xlink:href="#ae"/></g><path d="M101-234c-31-9-42 10-38 44h38v23H63V0H32v-167H5v-23h27c-7-52 17-82 69-68v24" id="aw"/><g id="I"><use transform="matrix(0.05,0,0,0.05,0,0)" xlink:href="#aw"/><use transform="matrix(0.05,0,0,0.05,5,0)" xlink:href="#ar"/><use transform="matrix(0.05,0,0,0.05,10.95,0)" xlink:href="#U"/><use transform="matrix(0.05,0,0,0.05,20.95,0)" xlink:href="#V"/></g><g id="J"><use transform="matrix(0.05,0,0,0.05,0,0)" xlink:href="#ab"/><use transform="matrix(0.05,0,0,0.05,9,0)" xlink:href="#aa"/><use transform="matrix(0.05,0,0,0.05,12.949999999999998,0)" xlink:href="#Y"/><use transform="matrix(0.05,0,0,0.05,22.95,0)" xlink:href="#W"/><use transform="matrix(0.05,0,0,0.05,32.95,0)" xlink:href="#am"/></g><g id="K"><use transform="matrix(0.05,0,0,0.05,0,0)" xlink:href="#al"/><use transform="matrix(0.05,0,0,0.05,10,0)" xlink:href="#aa"/><use transform="matrix(0.05,0,0,0.05,13.949999999999998,0)" xlink:href="#U"/><use transform="matrix(0.05,0,0,0.05,23.95,0)" xlink:href="#ab"/><use transform="matrix(0.05,0,0,0.05,32.95,0)" xlink:href="#ak"/><use transform="matrix(0.05,0,0,0.05,41.95,0)" xlink:href="#ag"/></g><path d="M206 0h-36l-40-164L89 0H53L-1-190h32L70-26l43-164h34l41 164 42-164h31" id="ax"/><g id="L"><use transform="matrix(0.05,0,0,0.05,0,0)" xlink:href="#am"/><use transform="matrix(0.05,0,0,0.05,10,0)" xlink:href="#Y"/><use transform="matrix(0.05,0,0,0.05,20,0)" xlink:href="#ax"/></g><g id="M"><use transform="matrix(0.05,0,0,0.05,0,0)" xlink:href="#as"/><use transform="matrix(0.05,0,0,0.05,5,0)" xlink:href="#am"/><use transform="matrix(0.05,0,0,0.05,15,0)" xlink:href="#ag"/><use transform="matrix(0.05,0,0,0.05,24,0)" xlink:href="#Y"/><use transform="matrix(0.05,0,0,0.05,34,0)" xlink:href="#ar"/><use transform="matrix(0.05,0,0,0.05,39.95,0)" xlink:href="#ae"/></g><g id="N"><use transform="matrix(0.05,0,0,0.05,0,0)" xlink:href="#ab"/><use transform="matrix(0.05,0,0,0.05,9,0)" xlink:href="#W"/><use transform="matrix(0.05,0,0,0.05,19,0)" xlink:href="#af"/><use transform="matrix(0.05,0,0,0.05,29,0)" xlink:href="#ab"/><use transform="matrix(0.05,0,0,0.05,38,0)" xlink:href="#Y"/></g><g id="O"><use transform="matrix(0.05,0,0,0.05,0,0)" xlink:href="#ar"/><use transform="matrix(0.05,0,0,0.05,5.95,0)" xlink:href="#Y"/><use transform="matrix(0.05,0,0,0.05,15.949999999999998,0)" xlink:href="#X"/><use transform="matrix(0.05,0,0,0.05,25.950000000000003,0)" xlink:href="#aa"/><use transform="matrix(0.05,0,0,0.05,29.899999999999995,0)" xlink:href="#W"/><use transform="matrix(0.05,0,0,0.05,39.9,0)" xlink:href="#ab"/><use transform="matrix(0.05,0,0,0.05,48.9,0)" xlink:href="#Y"/></g><path d="M30 0v-248h187v28H63v79h144v27H63v87h162V0H30" id="ay"/><g id="P"><use transform="matrix(0.05,0,0,0.05,0,0)" xlink:href="#ay"/><use transform="matrix(0.05,0,0,0.05,12,0)" xlink:href="#am"/><use transform="matrix(0.05,0,0,0.05,22,0)" xlink:href="#Z"/></g><g id="Q"><use transform="matrix(0.05,0,0,0.05,0,0)" xlink:href="#Z"/><use transform="matrix(0.05,0,0,0.05,10,0)" xlink:href="#Y"/><use transform="matrix(0.05,0,0,0.05,20,0)" xlink:href="#V"/><use transform="matrix(0.05,0,0,0.05,34.95,0)" xlink:href="#U"/><use transform="matrix(0.05,0,0,0.05,44.95,0)" xlink:href="#ae"/><use transform="matrix(0.05,0,0,0.05,49.95,0)" xlink:href="#Y"/></g><g id="R"><use transform="matrix(0.05,0,0,0.05,0,0)" xlink:href="#ab"/><use transform="matrix(0.05,0,0,0.05,9,0)" xlink:href="#al"/><use transform="matrix(0.05,0,0,0.05,19,0)" xlink:href="#aa"/><use transform="matrix(0.05,0,0,0.05,22.95,0)" xlink:href="#U"/><use transform="matrix(0.05,0,0,0.05,32.95,0)" xlink:href="#ab"/><use transform="matrix(0.05,0,0,0.05,41.95,0)" xlink:href="#ak"/></g></defs></g></svg>