<svg xmlns="http://www.w3.org/2000/svg" xmlns:xlink="http://www.w3.org/1999/xlink" width="1851" height="2840"><g transform="translate(180 -140)"><path d="M0 0h1760v1360H0z" fill="#fff"/><path d="M928 160c17.67 0 32 17.9 32 40s-14.33 40-32 40h-96c-17.67 0-32-17.9-32-40s14.33-40 32-40z" stroke="#000" stroke-width="2" fill="#fff"/><use xlink:href="#a" transform="matrix(1,0,0,1,800,160) translate(32.055 44.4)"/><use xlink:href="#b" transform="matrix(1,0,0,1,800,160) translate(63.005 44.4)"/><path d="M800 285c0-2.76 2.24-5 5-5h150c2.76 0 5 2.24 5 5v110c0 2.76-2.24 5-5 5H805c-2.76 0-5-2.24-5-5z" stroke="#000" stroke-width="2" fill="#fff"/><use xlink:href="#c" transform="matrix(1,0,0,1,800,280) translate(37.08 63.15)"/><use xlink:href="#d" transform="matrix(1,0,0,1,800,280) translate(87.97999999999999 63.15)"/><path d="M800 845c0-2.76 2.24-5 5-5h150c2.76 0 5 2.24 5 5v110c0 2.76-2.24 5-5 5H805c-2.76 0-5-2.24-5-5z" stroke="#000" stroke-width="2" fill="#fff"/><use xlink:href="#e" transform="matrix(1,0,0,1,800,840) translate(19.029999999999994 51.9)"/><use xlink:href="#f" transform="matrix(1,0,0,1,800,840) translate(81.98 51.9)"/><use xlink:href="#g" transform="matrix(1,0,0,1,800,840) translate(55.005 73.5)"/><path d="M875.7 1002.57c2.38-1.42 6.22-1.42 8.6 0l91.4 54.86c2.38 1.42 2.38 3.72 0 5.14l-91.4 54.86c-2.38 1.42-6.22 1.42-8.6 0l-91.4-54.86c-2.38-1.42-2.38-3.72 0-5.14z" stroke="#000" stroke-width="2" fill="#fff"/><use xlink:href="#h" transform="matrix(1,0,0,1,780,1000) translate(47.03000000000001 55.65)"/><use xlink:href="#i" transform="matrix(1,0,0,1,780,1000) translate(111.03 55.65)"/><use xlink:href="#j" transform="matrix(1,0,0,1,780,1000) translate(66.53 77.25)"/><use xlink:href="#k" transform="matrix(1,0,0,1,780,1000) translate(85.47999999999999 77.25)"/><path d="M1120 1010c0-2.76 2.24-5 5-5h150c2.76 0 5 2.24 5 5v100c0 2.76-2.24 5-5 5h-150c-2.76 0-5-2.24-5-5z" stroke="#000" stroke-width="2" fill="#fff"/><use xlink:href="#e" transform="matrix(1,0,0,1,1120,1005) translate(12.555000000000001 48.775)"/><use xlink:href="#l" transform="matrix(1,0,0,1,1120,1005) translate(75.50500000000001 48.775)"/><use xlink:href="#m" transform="matrix(1,0,0,1,1120,1005) translate(128.505 48.775)"/><use xlink:href="#n" transform="matrix(1,0,0,1,1120,1005) translate(61.005 70.375)"/><path d="M977.55 1060h69.1c1.18 0 2.13.95 2.13 2.12 0 1.18.95 2.13 2.12 2.13h69.1" stroke="#000" stroke-width="2" fill="none"/><path d="M977.55 1061h-.5l.35-1.62-.33-.38h.48zM1120 1064.25l-14.27 4.63v-9.27z"/><path d="M1120 1063.2v2.1l-15.27 4.96v-12.03zm-13.27 4.3l10.03-3.25-10.03-3.26z"/><path fill="#fff" d="M1034.1 1051.32h29.36v21.6h-29.36z"/><use xlink:href="#o" transform="matrix(1,0,0,1,1034.1021275536639,1051.3232612689524) translate(0 14.4)"/><path d="M880 1118.75V1200" stroke="#000" stroke-width="2" fill="none"/><path d="M880.3 1118.5l.7-.1v.35h-2v-.36zM880 1200l-4.64-14.27h9.28z"/><path d="M881.05 1200h-2.1l-4.96-15.27h12zm-4.3-13.27l3.25 10.03 3.26-10.03z"/><path fill="#fff" d="M868.52 1148.57h22.96v21.6h-22.96z"/><use xlink:href="#p" transform="matrix(1,0,0,1,868.525,1148.5745402326627) translate(0 14.4)"/><path d="M1360 1005c0-2.76 2.24-5 5-5h150c2.76 0 5 2.24 5 5v110c0 2.76-2.24 5-5 5h-150c-2.76 0-5-2.24-5-5z" stroke="#000" stroke-width="2" fill="#fff"/><use xlink:href="#q" transform="matrix(1,0,0,1,1360,1000) translate(29.08 63.15)"/><use xlink:href="#r" transform="matrix(1,0,0,1,1360,1000) translate(61.08 63.15)"/><use xlink:href="#s" transform="matrix(1,0,0,1,1360,1000) translate(111.97999999999999 63.15)"/><path d="M800 1205c0-2.76 2.24-5 5-5h150c2.76 0 5 2.24 5 5v110c0 2.76-2.24 5-5 5H805c-2.76 0-5-2.24-5-5z" stroke="#000" stroke-width="2" fill="#fff"/><use xlink:href="#e" transform="matrix(1,0,0,1,800,1200) translate(24.529999999999994 51.9)"/><use xlink:href="#t" transform="matrix(1,0,0,1,800,1200) translate(87.48 51.9)"/><use xlink:href="#u" transform="matrix(1,0,0,1,800,1200) translate(40.055 73.5)"/><use xlink:href="#n" transform="matrix(1,0,0,1,800,1200) translate(81.95500000000001 73.5)"/><path d="M880 240v39" stroke="#000" stroke-width="2" fill="none"/><path d="M880 279l-4.64-14.27h9.28z"/><path d="M880.73 280h-1.46L874 263.73h12zm-4-14.27l3.27 10.03 3.26-10.03z"/><path d="M880 400v40" stroke="#000" stroke-width="2" fill="none"/><path d="M880 440l-4.64-14.27h9.28z"/><path d="M881.05 440h-2.1L874 424.73h12zm-4.3-13.27l3.25 10.03 3.26-10.03z"/><path d="M880 960v41.25" stroke="#000" stroke-width="2" fill="none"/><path d="M880 1001.25L875.36 987h9.28z"/><path d="M880.94 1001.6l-1.25-.1-.64.1L874 986h12zm-4.2-13.6l3.26 10 3.26-10z"/><path d="M875.84 1362.77c2.3-1.53 6.02-1.53 8.32 0l111.68 74.46c2.3 1.53 2.3 4 0 5.54l-111.68 74.46c-2.3 1.53-6.02 1.53-8.32 0l-111.68-74.46c-2.3-1.53-2.3-4 0-5.54z" stroke="#000" stroke-width="2" fill="#fff"/><use xlink:href="#v" transform="matrix(1,0,0,1,760,1360) translate(57.555 74.4)"/><use xlink:href="#f" transform="matrix(1,0,0,1,760,1360) translate(123.455 74.4)"/><use xlink:href="#w" transform="matrix(1,0,0,1,760,1360) translate(49.555 96)"/><use xlink:href="#x" transform="matrix(1,0,0,1,760,1360) translate(104.55499999999999 96)"/><use xlink:href="#y" transform="matrix(1,0,0,1,760,1360) translate(124.55499999999999 96)"/><path d="M880 1520v80" stroke="#000" stroke-width="2" fill="none"/><path d="M880.17 1518.37l.83-.12v1.75h-2v-1.75zM880 1600l-4.64-14.27h9.28z"/><path d="M880.5 1601.7l-.67-.07-.34.04-5.5-16.94h12zm-3.76-14.97l3.26 10.03 3.26-10.03z"/><path fill="#fff" d="M865.33 1549.2h29.36v21.6h-29.37z"/><use xlink:href="#o" transform="matrix(1,0,0,1,865.325,1549.2) translate(0 14.4)"/><path d="M1120 1385c0-2.76 2.24-5 5-5h150c2.76 0 5 2.24 5 5v110c0 2.76-2.24 5-5 5h-150c-2.76 0-5-2.24-5-5z" stroke="#000" stroke-width="2" fill="#fff"/><use xlink:href="#q" transform="matrix(1,0,0,1,1120,1380) translate(20.104999999999997 63.15)"/><use xlink:href="#r" transform="matrix(1,0,0,1,1120,1380) translate(52.105 63.15)"/><use xlink:href="#z" transform="matrix(1,0,0,1,1120,1380) translate(103.005 63.15)"/><path d="M997.47 1440H1119" stroke="#000" stroke-width="2" fill="none"/><path d="M997.47 1441h-.2l.16-1.83-.14-.17h.17zM1119 1440l-14.27 4.64v-9.28z"/><path d="M1120 1439.27v1.46l-16.27 5.28v-12zm-14.27 4l10.03-3.27-10.03-3.26z"/><path fill="#fff" d="M1046.76 1429.2h22.96v21.6h-22.96z"/><use xlink:href="#p" transform="matrix(1,0,0,1,1046.7613796664,1429.2) translate(0 14.4)"/><path d="M875.84 1602.77c2.3-1.53 6.02-1.53 8.32 0l111.68 74.46c2.3 1.53 2.3 4 0 5.54l-111.68 74.46c-2.3 1.53-6.02 1.53-8.32 0l-111.68-74.46c-2.3-1.53-2.3-4 0-5.54z" stroke="#000" stroke-width="2" fill="#fff"/><use xlink:href="#A" transform="matrix(1,0,0,1,760,1600) translate(43.555000000000014 74.4)"/><use xlink:href="#l" transform="matrix(1,0,0,1,760,1600) translate(62.555000000000014 74.4)"/><use xlink:href="#B" transform="matrix(1,0,0,1,760,1600) translate(115.555 74.4)"/><use xlink:href="#C" transform="matrix(1,0,0,1,760,1600) translate(162.505 74.4)"/><use xlink:href="#D" transform="matrix(1,0,0,1,760,1600) translate(90.53 96)"/><path d="M997.2 1680H1120M997.2 1680h-3" stroke="#000" stroke-width="2" fill="none"/><path d="M1120 1680l-14.27 4.64v-9.28z"/><path d="M1120 1678.95v2.1l-15.27 4.96v-12zm-13.27 4.3l10.03-3.25-10.03-3.26z"/><path fill="#fff" d="M1047.13 1669.2h22.96v21.6h-22.97z"/><use xlink:href="#p" transform="matrix(1,0,0,1,1047.1276837626533,1669.2) translate(0 14.4)"/><path d="M1120 1625c0-2.76 2.24-5 5-5h150c2.76 0 5 2.24 5 5v110c0 2.76-2.24 5-5 5h-150c-2.76 0-5-2.24-5-5z" stroke="#000" stroke-width="2" fill="#fff"/><use xlink:href="#E" transform="matrix(1,0,0,1,1120,1620) translate(21.554999999999993 51.9)"/><use xlink:href="#t" transform="matrix(1,0,0,1,1120,1620) translate(90.45500000000001 51.9)"/><use xlink:href="#F" transform="matrix(1,0,0,1,1120,1620) translate(59.029999999999994 73.5)"/><path d="M880 1758.27V1840M880 1758.27v-3" stroke="#000" stroke-width="2" fill="none"/><path d="M880 1840l-4.64-14.27h9.28z"/><path d="M880.5 1841.7l-.67-.07-.34.04-5.5-16.94h12zm-3.76-14.97l3.26 10.03 3.26-10.03z"/><path fill="#fff" d="M865.33 1788.34h29.36v21.6h-29.37z"/><use xlink:href="#o" transform="matrix(1,0,0,1,865.325,1788.3354021560306) translate(0 14.4)"/><path d="M1281 1680h79" stroke="#000" stroke-width="2" fill="none"/><path d="M1281 1681h-1v-2h1zM1360 1680l-14.27 4.64v-9.28z"/><path d="M1360 1678.95v2.1l-15.27 4.96v-12zm-13.27 4.3l10.03-3.25-10.03-3.26z"/><path d="M1360 1625c0-2.76 2.24-5 5-5h150c2.76 0 5 2.24 5 5v110c0 2.76-2.24 5-5 5h-150c-2.76 0-5-2.24-5-5z" stroke="#000" stroke-width="2" fill="#fff"/><use xlink:href="#q" transform="matrix(1,0,0,1,1360,1620) translate(22.08 63.15)"/><use xlink:href="#r" transform="matrix(1,0,0,1,1360,1620) translate(54.08 63.15)"/><use xlink:href="#G" transform="matrix(1,0,0,1,1360,1620) translate(104.97999999999999 63.15)"/><path d="M880 1320v41.56" stroke="#000" stroke-width="2" fill="none"/><path d="M880 1361.56l-4.64-14.26h9.28z"/><path d="M881 1361.75l-1.17-.12-.82.12-5-15.45h12zm-4.26-13.45l3.26 10.03 3.26-10.03z"/><path d="M1280 1060h80" stroke="#000" stroke-width="2" fill="none"/><path d="M1360 1060l-14.27 4.64v-9.28z"/><path d="M1360 1058.95v2.1l-15.27 4.96v-12zm-13.27 4.3l10.03-3.25-10.03-3.26z"/><path d="M-155 1600c-2.76 0-5 2.24-5 5v1230c0 2.76 2.24 5 5 5h410c2.76 0 5-2.24 5-5V1605c0-2.76-2.24-5-5-5z" fill="none"/><path d="M260 2840c-42.8 0-77.5-34.7-77.5-77.5v-465c0-42.8-34.7-77.5-77.5-77.5 42.8 0 77.5-34.7 77.5-77.5v-465c0-42.8 34.7-77.5 77.5-77.5" stroke="#000" stroke-width="2" fill="none"/><use xlink:href="#H" transform="matrix(1,0,0,1,-160,1600) translate(38.055 624.7125)"/><use xlink:href="#j" transform="matrix(1,0,0,1,-160,1600) translate(88.005 624.7125)"/><use xlink:href="#I" transform="matrix(1,0,0,1,-160,1600) translate(106.955 624.7125)"/><path d="M875.84 1842.77c2.3-1.53 6.02-1.53 8.32 0l111.68 74.46c2.3 1.53 2.3 4 0 5.54l-111.68 74.46c-2.3 1.53-6.02 1.53-8.32 0l-111.68-74.46c-2.3-1.53-2.3-4 0-5.54z" stroke="#000" stroke-width="2" fill="#fff"/><use xlink:href="#A" transform="matrix(1,0,0,1,760,1840) translate(61.054999999999986 74.4)"/><use xlink:href="#J" transform="matrix(1,0,0,1,760,1840) translate(80.05499999999998 74.4)"/><use xlink:href="#K" transform="matrix(1,0,0,1,760,1840) translate(128.005 74.4)"/><use xlink:href="#w" transform="matrix(1,0,0,1,760,1840) translate(63.03000000000001 96)"/><use xlink:href="#D" transform="matrix(1,0,0,1,760,1840) translate(118.03 96)"/><path d="M997.36 1920H1120" stroke="#000" stroke-width="2" fill="none"/><path d="M997.36 1921h-.1l.1-1.08zm0-1.92l-.07-.08h.06zM1120 1920l-14.27 4.64v-9.28z"/><path d="M1120 1918.95v2.1l-15.27 4.96v-12zm-13.27 4.3l10.03-3.25-10.03-3.26z"/><path fill="#fff" d="M1044 1909.2h29.36v21.6H1044z"/><use xlink:href="#o" transform="matrix(1,0,0,1,1044.0036446119277,1909.2) translate(0 14.4)"/><path d="M1120 1865c0-2.76 2.24-5 5-5h150c2.76 0 5 2.24 5 5v110c0 2.76-2.24 5-5 5h-150c-2.76 0-5-2.24-5-5z" stroke="#000" stroke-width="2" fill="#fff"/><use xlink:href="#q" transform="matrix(1,0,0,1,1120,1860) translate(19.055 63.15)"/><use xlink:href="#l" transform="matrix(1,0,0,1,1120,1860) translate(51.055 63.15)"/><use xlink:href="#z" transform="matrix(1,0,0,1,1120,1860) translate(104.05499999999999 63.15)"/><path d="M800 2725c0-2.76 2.24-5 5-5h150c2.76 0 5 2.24 5 5v110c0 2.76-2.24 5-5 5H805c-2.76 0-5-2.24-5-5z" stroke="#000" stroke-width="2" fill="#fff"/><use xlink:href="#q" transform="matrix(1,0,0,1,800,2720) translate(9.104999999999999 63.15)"/><use xlink:href="#r" transform="matrix(1,0,0,1,800,2720) translate(41.105 63.15)"/><use xlink:href="#L" transform="matrix(1,0,0,1,800,2720) translate(92.005 63.15)"/><path d="M880 2840v40" stroke="#000" stroke-width="2" fill="none"/><path d="M880 2880l-4.64-14.27h9.28z"/><path d="M881.05 2880h-2.1l-4.96-15.27h12zm-4.3-13.27l3.25 10.03 3.26-10.03z"/><path d="M928 2880c17.67 0 32 17.9 32 40s-14.33 40-32 40h-96c-17.67 0-32-17.9-32-40s14.33-40 32-40z" stroke="#000" stroke-width="2" fill="#fff"/><use xlink:href="#M" transform="matrix(1,0,0,1,800,2880) translate(64.00500000000001 44.4)"/><path d="M1280 1920h75c2.76 0 5 2.24 5 5v990c0 2.76-2.24 5-5 5H960" stroke="#000" stroke-width="2" fill="none"/><path d="M974.27 2924.64L960 2920l14.27-4.64z"/><path d="M975.27 2926l-15.33-4.97.06-1.03-.04-1.04 15.3-4.97zm-12.03-6l10.03 3.26v-6.52z"/><path d="M1440 1740v1175c0 2.76-2.24 5-5 5H960" stroke="#000" stroke-width="2" fill="none"/><path d="M974.27 2924.64L960 2920l14.27-4.64z"/><path d="M975.27 2926l-15.33-4.97.06-1.03-.04-1.04 15.3-4.97zm-12.03-6l10.03 3.26v-6.52z"/><path d="M1280 1440h285c2.76 0 5 2.24 5 5v1470c0 2.76-2.24 5-5 5H960" stroke="#000" stroke-width="2" fill="none"/><path d="M974.27 2924.64L960 2920l14.27-4.64z"/><path d="M975.27 2926l-15.33-4.97.06-1.03-.04-1.04 15.3-4.97zm-12.03-6l10.03 3.26v-6.52z"/><path d="M1520 1060h105c2.76 0 5 2.24 5 5v1850c0 2.76-2.24 5-5 5H960" stroke="#000" stroke-width="2" fill="none"/><path d="M974.27 2924.64L960 2920l14.27-4.64z"/><path d="M975.27 2926l-15.33-4.97.06-1.03-.04-1.04 15.3-4.97zm-12.03-6l10.03 3.26v-6.52z"/><path d="M265 2080c-2.76 0-5 2.24-5 5v750c0 2.76 2.24 5 5 5h210c2.76 0 5-2.24 5-5v-750c0-2.76-2.24-5-5-5z" fill="none"/><path d="M480 2840c-26.23 0-47.5-21.27-47.5-47.5v-285c0-26.23-21.27-47.5-47.5-47.5 26.23 0 47.5-21.27 47.5-47.5v-285c0-26.23 21.27-47.5 47.5-47.5" stroke="#000" stroke-width="2" fill="none"/><use xlink:href="#N" transform="matrix(1,0,0,1,260,2080) translate(11.529999999999996 370.65)"/><use xlink:href="#O" transform="matrix(1,0,0,1,260,2080) translate(16.03 392.25)"/><path d="M800 445c0-2.76 2.24-5 5-5h150c2.76 0 5 2.24 5 5v110c0 2.76-2.24 5-5 5H805c-2.76 0-5-2.24-5-5z" stroke="#000" stroke-width="2" fill="#ffeca9"/><use xlink:href="#P" transform="matrix(1,0,0,1,800,440) translate(7.104999999999999 51.9)"/><use xlink:href="#Q" transform="matrix(1,0,0,1,800,440) translate(68.055 51.9)"/><use xlink:href="#R" transform="matrix(1,0,0,1,800,440) translate(117.00500000000001 51.9)"/><use xlink:href="#S" transform="matrix(1,0,0,1,800,440) translate(68.03 73.5)"/><path d="M880 560v40" stroke="#000" stroke-width="2" fill="none"/><path d="M880 600l-4.64-14.27h9.28z"/><path d="M880.44 601.9l-.34-.07-.53.08-5.58-17.17h12zm-3.7-15.17l3.26 10.03 3.26-10.03z"/><path d="M876.1 603.12c2.15-1.72 5.65-1.72 7.8 0l92.2 73.76c2.15 1.72 2.15 4.52 0 6.24l-92.2 73.76c-2.15 1.72-5.65 1.72-7.8 0l-92.2-73.76c-2.15-1.72-2.15-4.52 0-6.24z" stroke="#000" stroke-width="2" fill="#ffeca9"/><use xlink:href="#T" transform="matrix(1,0,0,1,780,600) translate(68.53 59.4)"/><use xlink:href="#U" transform="matrix(1,0,0,1,780,600) translate(87.53 59.4)"/><use xlink:href="#V" transform="matrix(1,0,0,1,780,600) translate(60.08 81)"/><use xlink:href="#W" transform="matrix(1,0,0,1,780,600) translate(125.98 81)"/><use xlink:href="#X" transform="matrix(1,0,0,1,780,600) translate(50.105 102.6)"/><use xlink:href="#Y" transform="matrix(1,0,0,1,780,600) translate(118.005 102.6)"/><path d="M977.58 680H1120" stroke="#000" stroke-width="2" fill="none"/><path d="M977.58 681h-.03l.03-.05zm0-.2l-.07-1.8h.08zM1120 680l-14.27 4.64v-9.28z"/><path d="M1120 678.95v2.1l-15.27 4.96v-12zm-13.27 4.3l10.03-3.25-10.03-3.26z"/><path fill="#fff" d="M1037.32 669.2h22.96v21.6h-22.96z"/><use xlink:href="#Z" transform="matrix(1,0,0,1,1037.3150173616118,669.2) translate(0 14.4)"/><path d="M1120 625c0-2.76 2.24-5 5-5h150c2.76 0 5 2.24 5 5v110c0 2.76-2.24 5-5 5h-150c-2.76 0-5-2.24-5-5z" stroke="#000" stroke-width="2" fill="#ffeca9"/><use xlink:href="#aa" transform="matrix(1,0,0,1,1120,620) translate(20.104999999999997 63.15)"/><use xlink:href="#ab" transform="matrix(1,0,0,1,1120,620) translate(52.105 63.15)"/><use xlink:href="#ac" transform="matrix(1,0,0,1,1120,620) translate(103.005 63.15)"/><path d="M880 758.2V840" stroke="#000" stroke-width="2" fill="none"/><path d="M881 758.2h-2v-.2l.9.17 1.1-.16zM880 840l-4.64-14.27h9.28z"/><path d="M881.05 840h-2.1L874 824.73h12zm-4.3-13.27l3.25 10.03 3.26-10.03z"/><path fill="#fff" d="M865.33 788.3h29.36v21.6h-29.37z"/><use xlink:href="#ad" transform="matrix(1,0,0,1,865.325,788.294219476405) translate(0 14.4)"/><path d="M1280 680h375c2.76 0 5 2.24 5 5v2230c0 2.76-2.24 5-5 5H960" stroke="#000" stroke-width="2" fill="none"/><path d="M974.27 2924.64L960 2920l14.27-4.64z"/><path d="M975.27 2926l-15.33-4.97.06-1.03-.04-1.04 15.3-4.97zm-12.03-6l10.03 3.26v-6.52z"/><path d="M880 1998.36V2080" stroke="#000" stroke-width="2" fill="none"/><path d="M880 1998.36h-1v-.1zm1 0h-.7l.7-.1zM880 2080l-4.64-14.27h9.28z"/><path d="M880.46 2081.82l-.47-.07-.46.06-5.55-17.07h12zm-3.72-15.1l3.26 10.04 3.26-10.03z"/><path fill="#fff" d="M868.52 2028.38h22.96v21.6h-22.96z"/><g><use xlink:href="#Z" transform="matrix(1,0,0,1,868.525,2028.3777479420012) translate(0 14.4)"/></g><path d="M876 2083c2.2-1.66 5.8-1.66 8 0l99.5 74c2.2 1.66 2.2 4.34 0 6l-99.5 74c-2.2 1.66-5.8 1.66-8 0l-99.5-74c-2.2-1.66-2.2-4.34 0-6z" stroke="#000" stroke-width="2" fill="#ffeca9"/><g><use xlink:href="#ae" transform="matrix(1,0,0,1,772.5,2080) translate(65.07999999999998 64.4)"/><use xlink:href="#af" transform="matrix(1,0,0,1,772.5,2080) translate(105.97999999999999 64.4)"/><use xlink:href="#ag" transform="matrix(1,0,0,1,772.5,2080) translate(37.03 86)"/><use xlink:href="#ah" transform="matrix(1,0,0,1,772.5,2080) translate(90.03 86)"/><use xlink:href="#ai" transform="matrix(1,0,0,1,772.5,2080) translate(138.98000000000002 86)"/><use xlink:href="#aj" transform="matrix(1,0,0,1,772.5,2080) translate(79.055 107.6)"/><use xlink:href="#ak" transform="matrix(1,0,0,1,772.5,2080) translate(103.05499999999999 107.6)"/></g><path d="M984.96 2160H1115c2.76 0 5 2.24 5 5v155" stroke="#000" stroke-width="2" fill="none"/><path d="M984.96 2161v-1zM1120 2320l-4.64-14.27h9.28z"/><path d="M1121.05 2320h-2.1l-4.96-15.27h12zm-4.3-13.27l3.25 10.03 3.26-10.03z"/><path fill="#fff" d="M1054.55 2266.53h130.9v21.6h-130.9z"/><g><use xlink:href="#al" transform="matrix(1,0,0,1,1054.55,2266.5333333333333) translate(0 14.4)"/><use xlink:href="#am" transform="matrix(1,0,0,1,1054.55,2266.5333333333333) translate(45.900000000000006 14.4)"/><use xlink:href="#an" transform="matrix(1,0,0,1,1054.55,2266.5333333333333) translate(85.9 14.4)"/></g><path d="M1040 2525c0-2.76 2.24-5 5-5h150c2.76 0 5 2.24 5 5v110c0 2.76-2.24 5-5 5h-150c-2.76 0-5-2.24-5-5z" stroke="#000" stroke-width="2" fill="#ffeca9"/><g><use xlink:href="#aa" transform="matrix(1,0,0,1,1040,2520) translate(20.104999999999997 63.15)"/><use xlink:href="#ab" transform="matrix(1,0,0,1,1040,2520) translate(52.105 63.15)"/><use xlink:href="#ac" transform="matrix(1,0,0,1,1040,2520) translate(103.005 63.15)"/></g><path d="M880 2240v80" stroke="#000" stroke-width="2" fill="none"/><path d="M880 2238.25l1-.14v1.9h-2v-1.9zM880 2320l-4.64-14.27h9.28z"/><path d="M881.05 2320h-2.1l-4.96-15.27h12zm-4.3-13.27l3.25 10.03 3.26-10.03z"/><path fill="#fff" d="M791.55 2269.2h176.9v21.6h-176.9z"/><g><use xlink:href="#ao" transform="matrix(1,0,0,1,791.55,2269.2) translate(0 14.4)"/><use xlink:href="#ap" transform="matrix(1,0,0,1,791.55,2269.2) translate(62.95 14.4)"/><use xlink:href="#aq" transform="matrix(1,0,0,1,791.55,2269.2) translate(111.9 14.4)"/><use xlink:href="#an" transform="matrix(1,0,0,1,791.55,2269.2) translate(131.9 14.4)"/></g><path d="M800 2325c0-2.76 2.24-5 5-5h150c2.76 0 5 2.24 5 5v110c0 2.76-2.24 5-5 5H805c-2.76 0-5-2.24-5-5z" stroke="#000" stroke-width="2" fill="#ffeca9"/><g><use xlink:href="#ar" transform="matrix(1,0,0,1,800,2320) translate(28.60499999999999 40.65)"/><use xlink:href="#as" transform="matrix(1,0,0,1,800,2320) translate(99.505 40.65)"/><use xlink:href="#at" transform="matrix(1,0,0,1,800,2320) translate(11.604999999999999 62.25)"/><use xlink:href="#au" transform="matrix(1,0,0,1,800,2320) translate(67.555 62.25)"/><use xlink:href="#av" transform="matrix(1,0,0,1,800,2320) translate(104.45500000000001 62.25)"/><use xlink:href="#aw" transform="matrix(1,0,0,1,800,2320) translate(58.029999999999994 83.85000000000001)"/></g><path d="M775.04 2160H605c-2.76 0-5 2.24-5 5v155" stroke="#000" stroke-width="2" fill="none"/><path d="M775.04 2160v-1zM600 2320l-4.64-14.27h9.28z"/><path d="M601.05 2320h-2.1l-4.96-15.27h12zm-4.3-13.27l3.25 10.03 3.26-10.03z"/><path fill="#fff" d="M536 2265.2h128v21.6H536z"/><g><use xlink:href="#ax" transform="matrix(1,0,0,1,536,2265.2) translate(0 14.4)"/><use xlink:href="#am" transform="matrix(1,0,0,1,536,2265.2) translate(43 14.4)"/><use xlink:href="#an" transform="matrix(1,0,0,1,536,2265.2) translate(83 14.4)"/></g><path d="M480 2325c0-2.76 2.24-5 5-5h230c2.76 0 5 2.24 5 5v110c0 2.76-2.24 5-5 5H485c-2.76 0-5-2.24-5-5z" stroke="#000" stroke-width="2" fill="#ffeca9"/><g><use xlink:href="#ar" transform="matrix(1,0,0,1,480,2320) translate(40.62999999999999 29.4)"/><use xlink:href="#au" transform="matrix(1,0,0,1,480,2320) translate(111.53 29.4)"/><use xlink:href="#ay" transform="matrix(1,0,0,1,480,2320) translate(148.43 29.4)"/><use xlink:href="#az" transform="matrix(1,0,0,1,480,2320) translate(12.179999999999987 51)"/><use xlink:href="#aA" transform="matrix(1,0,0,1,480,2320) translate(116.08 51)"/><use xlink:href="#aB" transform="matrix(1,0,0,1,480,2320) translate(136.08 51)"/><use xlink:href="#aC" transform="matrix(1,0,0,1,480,2320) translate(163.98000000000002 51)"/><use xlink:href="#aD" transform="matrix(1,0,0,1,480,2320) translate(214.88000000000002 51)"/><use xlink:href="#aE" transform="matrix(1,0,0,1,480,2320) translate(20.104999999999997 72.60000000000001)"/><use xlink:href="#ag" transform="matrix(1,0,0,1,480,2320) translate(68.055 72.60000000000001)"/><use xlink:href="#aF" transform="matrix(1,0,0,1,480,2320) translate(121.055 72.60000000000001)"/><use xlink:href="#aG" transform="matrix(1,0,0,1,480,2320) translate(166.955 72.60000000000001)"/><use xlink:href="#aH" transform="matrix(1,0,0,1,480,2320) translate(201.955 72.60000000000001)"/><use xlink:href="#aI" transform="matrix(1,0,0,1,480,2320) translate(97.50500000000001 94.20000000000002)"/></g><path d="M680 2525c0-2.76 2.24-5 5-5h150c2.76 0 5 2.24 5 5v110c0 2.76-2.24 5-5 5H685c-2.76 0-5-2.24-5-5z" stroke="#000" stroke-width="2" fill="#ffeca9"/><g><use xlink:href="#aa" transform="matrix(1,0,0,1,680,2520) translate(9.104999999999999 63.15)"/><use xlink:href="#ab" transform="matrix(1,0,0,1,680,2520) translate(41.105 63.15)"/><use xlink:href="#aJ" transform="matrix(1,0,0,1,680,2520) translate(92.005 63.15)"/></g><path d="M600 2440v34.5c0 2.76 2.24 5 5 5h150c2.76 0 5 2.24 5 5v34.5" stroke="#000" stroke-width="2" fill="none"/><path d="M760 2519l-4.64-14.27h9.28z"/><path d="M760.73 2520h-1.46l-5.28-16.27h12zm-4-14.27l3.27 10.03 3.26-10.03z"/><path d="M880 2440v35c0 2.76-2.24 5-5 5H765c-2.76 0-5 2.24-5 5v35" stroke="#000" stroke-width="2" fill="none"/><path d="M760 2520l-4.64-14.27h9.28z"/><path d="M761.05 2520h-2.1l-4.96-15.27h12zm-4.3-13.27l3.25 10.03 3.26-10.03z"/><path d="M760 2640v35c0 2.76 2.24 5 5 5h110c2.76 0 5 2.24 5 5v35" stroke="#000" stroke-width="2" fill="none"/><path d="M880 2720l-4.64-14.27h9.28z"/><path d="M881.05 2720h-2.1l-4.96-15.27h12zm-4.3-13.27l3.25 10.03 3.26-10.03z"/><path d="M1120 2640v35c0 2.76-2.24 5-5 5H885c-2.76 0-5 2.24-5 5v35" stroke="#000" stroke-width="2" fill="none"/><path d="M880 2720l-4.64-14.27h9.28z"/><path d="M881.05 2720h-2.1l-4.96-15.27h12zm-4.3-13.27l3.25 10.03 3.26-10.03z"/><path d="M1040 2325c0-2.76 2.24-5 5-5h150c2.76 0 5 2.24 5 5v110c0 2.76-2.24 5-5 5h-150c-2.76 0-5-2.24-5-5z" stroke="#000" stroke-width="2" fill="#ffeca9"/><g><use xlink:href="#aK" transform="matrix(1,0,0,1,1040,2320) translate(21.58 51.9)"/><use xlink:href="#aL" transform="matrix(1,0,0,1,1040,2320) translate(49.53 51.9)"/><use xlink:href="#aM" transform="matrix(1,0,0,1,1040,2320) translate(79.53 51.9)"/><use xlink:href="#aN" transform="matrix(1,0,0,1,1040,2320) translate(54.529999999999994 73.5)"/></g><path d="M1120 2440v80" stroke="#000" stroke-width="2" fill="none"/><path d="M1120 2520l-4.64-14.27h9.28z"/><path d="M1121.05 2520h-2.1l-4.96-15.27h12zm-4.3-13.27l3.25 10.03 3.26-10.03z"/><defs><path d="M160-131c35 5 61 23 61 61C221 17 115-2 30 0v-248c76 3 177-17 177 60 0 33-19 50-47 57zm-97-11c50-1 110 9 110-42 0-47-63-36-110-37v79zm0 115c55-2 124 14 124-45 0-56-70-42-124-44v89" id="aO"/><path d="M24-231v-30h32v30H24zM24 0v-190h32V0H24" id="aP"/><path d="M100-194c62-1 85 37 85 99 1 63-27 99-86 99S16-35 15-95c0-66 28-99 85-99zM99-20c44 1 53-31 53-75 0-43-8-75-51-75s-53 32-53 75 10 74 51 75" id="aQ"/><g id="a"><use transform="matrix(0.05,0,0,0.05,0,0)" xlink:href="#aO"/><use transform="matrix(0.05,0,0,0.05,12,0)" xlink:href="#aP"/><use transform="matrix(0.05,0,0,0.05,15.949999999999998,0)" xlink:href="#aQ"/></g><path d="M210-169c-67 3-38 105-44 169h-31v-121c0-29-5-50-35-48C34-165 62-65 56 0H25l-1-190h30c1 10-1 24 2 32 10-44 99-50 107 0 11-21 27-35 58-36 85-2 47 119 55 194h-31v-121c0-29-5-49-35-48" id="aR"/><path d="M141-36C126-15 110 5 73 4 37 3 15-17 15-53c-1-64 63-63 125-63 3-35-9-54-41-54-24 1-41 7-42 31l-33-3c5-37 33-52 76-52 45 0 72 20 72 64v82c-1 20 7 32 28 27v20c-31 9-61-2-59-35zM48-53c0 20 12 33 32 33 41-3 63-29 60-74-43 2-92-5-92 41" id="aS"/><path d="M115-194c55 1 70 41 70 98S169 2 115 4C84 4 66-9 55-30l1 105H24l-1-265h31l2 30c10-21 28-34 59-34zm-8 174c40 0 45-34 45-75s-6-73-45-74c-42 0-51 32-51 76 0 43 10 73 51 73" id="aT"/><path d="M100-194c63 0 86 42 84 106H49c0 40 14 67 53 68 26 1 43-12 49-29l28 8c-11 28-37 45-77 45C44 4 14-33 15-96c1-61 26-98 85-98zm52 81c6-60-76-77-97-28-3 7-6 17-6 28h103" id="aU"/><path d="M85-194c31 0 48 13 60 33l-1-100h32l1 261h-30c-2-10 0-23-3-31C134-8 116 4 85 4 32 4 16-35 15-94c0-66 23-100 70-100zm9 24c-40 0-46 34-46 75 0 40 6 74 45 74 42 0 51-32 51-76 0-42-9-74-50-73" id="aV"/><g id="b"><use transform="matrix(0.05,0,0,0.05,0,0)" xlink:href="#aR"/><use transform="matrix(0.05,0,0,0.05,14.950000000000001,0)" xlink:href="#aS"/><use transform="matrix(0.05,0,0,0.05,24.950000000000003,0)" xlink:href="#aT"/><use transform="matrix(0.05,0,0,0.05,34.95,0)" xlink:href="#aT"/><use transform="matrix(0.05,0,0,0.05,44.95,0)" xlink:href="#aU"/><use transform="matrix(0.05,0,0,0.05,54.95,0)" xlink:href="#aV"/></g><path d="M24 0v-261h32V0H24" id="aW"/><path d="M96-169c-40 0-48 33-48 73s9 75 48 75c24 0 41-14 43-38l32 2c-6 37-31 61-74 61-59 0-76-41-82-99-10-93 101-131 147-64 4 7 5 14 7 22l-32 3c-4-21-16-35-41-35" id="aX"/><path d="M179-190L93 31C79 59 56 82 12 73V49c39 6 53-20 64-50L1-190h34L92-34l54-156h33" id="aY"/><g id="c"><use transform="matrix(0.05,0,0,0.05,0,0)" xlink:href="#aT"/><use transform="matrix(0.05,0,0,0.05,10,0)" xlink:href="#aQ"/><use transform="matrix(0.05,0,0,0.05,20,0)" xlink:href="#aW"/><use transform="matrix(0.05,0,0,0.05,23.95,0)" xlink:href="#aP"/><use transform="matrix(0.05,0,0,0.05,27.899999999999995,0)" xlink:href="#aX"/><use transform="matrix(0.05,0,0,0.05,36.9,0)" xlink:href="#aY"/></g><g id="d"><use transform="matrix(0.05,0,0,0.05,0,0)" xlink:href="#aR"/><use transform="matrix(0.05,0,0,0.05,14.950000000000001,0)" xlink:href="#aS"/><use transform="matrix(0.05,0,0,0.05,24.950000000000003,0)" xlink:href="#aT"/></g><path d="M232-93c-1 65-40 97-104 97C67 4 28-28 28-90v-158h33c8 89-33 224 67 224 102 0 64-133 71-224h33v155" id="aZ"/><path d="M59-47c-2 24 18 29 38 22v24C64 9 27 4 27-40v-127H5v-23h24l9-43h21v43h35v23H59v120" id="ba"/><g id="e"><use transform="matrix(0.05,0,0,0.05,0,0)" xlink:href="#aZ"/><use transform="matrix(0.05,0,0,0.05,12.950000000000001,0)" xlink:href="#aT"/><use transform="matrix(0.05,0,0,0.05,22.950000000000003,0)" xlink:href="#aV"/><use transform="matrix(0.05,0,0,0.05,32.95,0)" xlink:href="#aS"/><use transform="matrix(0.05,0,0,0.05,42.95,0)" xlink:href="#ba"/><use transform="matrix(0.05,0,0,0.05,47.95,0)" xlink:href="#aU"/></g><path d="M106-169C34-169 62-67 57 0H25v-261h32l-1 103c12-21 28-36 61-36 89 0 53 116 60 194h-32v-121c2-32-8-49-39-48" id="bb"/><path d="M135-143c-3-34-86-38-87 0 15 53 115 12 119 90S17 21 10-45l28-5c4 36 97 45 98 0-10-56-113-15-118-90-4-57 82-63 122-42 12 7 21 19 24 35" id="bc"/><g id="f"><use transform="matrix(0.05,0,0,0.05,0,0)" xlink:href="#bb"/><use transform="matrix(0.05,0,0,0.05,10,0)" xlink:href="#aQ"/><use transform="matrix(0.05,0,0,0.05,20,0)" xlink:href="#ba"/><use transform="matrix(0.05,0,0,0.05,25,0)" xlink:href="#bc"/><use transform="matrix(0.05,0,0,0.05,34,0)" xlink:href="#aT"/><use transform="matrix(0.05,0,0,0.05,44,0)" xlink:href="#aQ"/><use transform="matrix(0.05,0,0,0.05,54,0)" xlink:href="#ba"/></g><path d="M145-31C134-9 116 4 85 4 32 4 16-35 15-94c0-59 17-99 70-100 32-1 48 14 60 33 0-11-1-24 2-32h30l-1 268h-32zM93-21c41 0 51-33 51-76s-8-73-50-73c-40 0-46 35-46 75s5 74 45 74" id="bd"/><path d="M84 4C-5 8 30-112 23-190h32v120c0 31 7 50 39 49 72-2 45-101 50-169h31l1 190h-30c-1-10 1-25-2-33-11 22-28 36-60 37" id="be"/><g id="g"><use transform="matrix(0.05,0,0,0.05,0,0)" xlink:href="#bd"/><use transform="matrix(0.05,0,0,0.05,10,0)" xlink:href="#be"/><use transform="matrix(0.05,0,0,0.05,20,0)" xlink:href="#aU"/><use transform="matrix(0.05,0,0,0.05,30,0)" xlink:href="#be"/><use transform="matrix(0.05,0,0,0.05,40,0)" xlink:href="#aU"/></g><path d="M30 0v-248h33v221h125V0H30" id="bf"/><path d="M143 0L79-87 56-68V0H24v-261h32v163l83-92h37l-77 82L181 0h-38" id="bg"/><g id="h"><use transform="matrix(0.05,0,0,0.05,0,0)" xlink:href="#bf"/><use transform="matrix(0.05,0,0,0.05,10,0)" xlink:href="#aQ"/><use transform="matrix(0.05,0,0,0.05,20,0)" xlink:href="#aQ"/><use transform="matrix(0.05,0,0,0.05,30,0)" xlink:href="#bg"/><use transform="matrix(0.05,0,0,0.05,39,0)" xlink:href="#be"/><use transform="matrix(0.05,0,0,0.05,49,0)" xlink:href="#aT"/></g><path d="M115-194c53 0 69 39 70 98 0 66-23 100-70 100C84 3 66-7 56-30L54 0H23l1-261h32v101c10-23 28-34 59-34zm-8 174c40 0 45-34 45-75 0-40-5-75-45-74-42 0-51 32-51 76 0 43 10 73 51 73" id="bh"/><g id="i"><use transform="matrix(0.05,0,0,0.05,0,0)" xlink:href="#bh"/><use transform="matrix(0.05,0,0,0.05,10,0)" xlink:href="#aW"/><use transform="matrix(0.05,0,0,0.05,13.949999999999998,0)" xlink:href="#aQ"/><use transform="matrix(0.05,0,0,0.05,23.95,0)" xlink:href="#aX"/><use transform="matrix(0.05,0,0,0.05,32.95,0)" xlink:href="#bg"/></g><path d="M117-194c89-4 53 116 60 194h-32v-121c0-31-8-49-39-48C34-167 62-67 57 0H25l-1-190h30c1 10-1 24 2 32 11-22 29-35 61-36" id="bi"/><g id="j"><use transform="matrix(0.05,0,0,0.05,0,0)" xlink:href="#aP"/><use transform="matrix(0.05,0,0,0.05,3.95,0)" xlink:href="#bi"/></g><g id="k"><use transform="matrix(0.05,0,0,0.05,0,0)" xlink:href="#aX"/><use transform="matrix(0.05,0,0,0.05,9,0)" xlink:href="#aS"/><use transform="matrix(0.05,0,0,0.05,19,0)" xlink:href="#aX"/><use transform="matrix(0.05,0,0,0.05,28,0)" xlink:href="#bb"/><use transform="matrix(0.05,0,0,0.05,38,0)" xlink:href="#aU"/></g><g id="l"><use transform="matrix(0.05,0,0,0.05,0,0)" xlink:href="#aX"/><use transform="matrix(0.05,0,0,0.05,9,0)" xlink:href="#aS"/><use transform="matrix(0.05,0,0,0.05,19,0)" xlink:href="#aX"/><use transform="matrix(0.05,0,0,0.05,28,0)" xlink:href="#bb"/><use transform="matrix(0.05,0,0,0.05,38,0)" xlink:href="#aU"/></g><g id="m"><use transform="matrix(0.05,0,0,0.05,0,0)" xlink:href="#bb"/><use transform="matrix(0.05,0,0,0.05,10,0)" xlink:href="#aP"/><use transform="matrix(0.05,0,0,0.05,13.949999999999998,0)" xlink:href="#ba"/></g><g id="n"><use transform="matrix(0.05,0,0,0.05,0,0)" xlink:href="#bc"/><use transform="matrix(0.05,0,0,0.05,9,0)" xlink:href="#ba"/><use transform="matrix(0.05,0,0,0.05,14,0)" xlink:href="#aS"/><use transform="matrix(0.05,0,0,0.05,24,0)" xlink:href="#ba"/><use transform="matrix(0.05,0,0,0.05,29,0)" xlink:href="#bc"/></g><path d="M137-103V0h-34v-103L8-248h37l75 118 75-118h37" id="bj"/><g id="o"><use transform="matrix(0.05,0,0,0.05,0,0)" xlink:href="#bj"/><use transform="matrix(0.05,0,0,0.05,10.35,0)" xlink:href="#aU"/><use transform="matrix(0.05,0,0,0.05,20.35,0)" xlink:href="#bc"/></g><path d="M190 0L58-211 59 0H30v-248h39L202-35l-2-213h31V0h-41" id="bk"/><g id="p"><use transform="matrix(0.05,0,0,0.05,0,0)" xlink:href="#bk"/><use transform="matrix(0.05,0,0,0.05,12.950000000000001,0)" xlink:href="#aQ"/></g><path d="M185-189c-5-48-123-54-124 2 14 75 158 14 163 119 3 78-121 87-175 55-17-10-28-26-33-46l33-7c5 56 141 63 141-1 0-78-155-14-162-118-5-82 145-84 179-34 5 7 8 16 11 25" id="bl"/><g id="q"><use transform="matrix(0.05,0,0,0.05,0,0)" xlink:href="#bl"/><use transform="matrix(0.05,0,0,0.05,12,0)" xlink:href="#aU"/><use transform="matrix(0.05,0,0,0.05,22,0)" xlink:href="#ba"/></g><g id="r"><use transform="matrix(0.05,0,0,0.05,0,0)" xlink:href="#aT"/><use transform="matrix(0.05,0,0,0.05,10,0)" xlink:href="#aQ"/><use transform="matrix(0.05,0,0,0.05,20,0)" xlink:href="#aW"/><use transform="matrix(0.05,0,0,0.05,23.95,0)" xlink:href="#aP"/><use transform="matrix(0.05,0,0,0.05,27.899999999999995,0)" xlink:href="#aX"/><use transform="matrix(0.05,0,0,0.05,36.9,0)" xlink:href="#aY"/></g><g id="s"><use transform="matrix(0.05,0,0,0.05,0,0)" xlink:href="#bb"/><use transform="matrix(0.05,0,0,0.05,10,0)" xlink:href="#aP"/><use transform="matrix(0.05,0,0,0.05,13.949999999999998,0)" xlink:href="#ba"/></g><g id="t"><use transform="matrix(0.05,0,0,0.05,0,0)" xlink:href="#aX"/><use transform="matrix(0.05,0,0,0.05,9,0)" xlink:href="#aS"/><use transform="matrix(0.05,0,0,0.05,19,0)" xlink:href="#aX"/><use transform="matrix(0.05,0,0,0.05,28,0)" xlink:href="#bb"/><use transform="matrix(0.05,0,0,0.05,38,0)" xlink:href="#aU"/></g><g id="u"><use transform="matrix(0.05,0,0,0.05,0,0)" xlink:href="#aR"/><use transform="matrix(0.05,0,0,0.05,14.950000000000001,0)" xlink:href="#aP"/><use transform="matrix(0.05,0,0,0.05,18.900000000000002,0)" xlink:href="#bc"/><use transform="matrix(0.05,0,0,0.05,27.900000000000002,0)" xlink:href="#bc"/></g><path d="M212-179c-10-28-35-45-73-45-59 0-87 40-87 99 0 60 29 101 89 101 43 0 62-24 78-52l27 14C228-24 195 4 139 4 59 4 22-46 18-125c-6-104 99-153 187-111 19 9 31 26 39 46" id="bm"/><g id="v"><use transform="matrix(0.05,0,0,0.05,0,0)" xlink:href="#bm"/><use transform="matrix(0.05,0,0,0.05,12.950000000000001,0)" xlink:href="#aQ"/><use transform="matrix(0.05,0,0,0.05,22.950000000000003,0)" xlink:href="#bi"/><use transform="matrix(0.05,0,0,0.05,32.95,0)" xlink:href="#bc"/><use transform="matrix(0.05,0,0,0.05,41.95,0)" xlink:href="#be"/><use transform="matrix(0.05,0,0,0.05,51.95,0)" xlink:href="#aW"/><use transform="matrix(0.05,0,0,0.05,55.900000000000006,0)" xlink:href="#ba"/></g><g id="w"><use transform="matrix(0.05,0,0,0.05,0,0)" xlink:href="#bd"/><use transform="matrix(0.05,0,0,0.05,10,0)" xlink:href="#be"/><use transform="matrix(0.05,0,0,0.05,20,0)" xlink:href="#aU"/><use transform="matrix(0.05,0,0,0.05,30,0)" xlink:href="#be"/><use transform="matrix(0.05,0,0,0.05,40,0)" xlink:href="#aU"/></g><g id="x"><use transform="matrix(0.05,0,0,0.05,0,0)" xlink:href="#ba"/><use transform="matrix(0.05,0,0,0.05,5,0)" xlink:href="#aQ"/></g><path d="M114-163C36-179 61-72 57 0H25l-1-190h30c1 12-1 29 2 39 6-27 23-49 58-41v29" id="bn"/><g id="y"><use transform="matrix(0.05,0,0,0.05,0,0)" xlink:href="#aT"/><use transform="matrix(0.05,0,0,0.05,10,0)" xlink:href="#bn"/><use transform="matrix(0.05,0,0,0.05,15.949999999999998,0)" xlink:href="#aQ"/><use transform="matrix(0.05,0,0,0.05,25.950000000000003,0)" xlink:href="#aR"/><use transform="matrix(0.05,0,0,0.05,40.9,0)" xlink:href="#aQ"/><use transform="matrix(0.05,0,0,0.05,50.9,0)" xlink:href="#ba"/><use transform="matrix(0.05,0,0,0.05,55.900000000000006,0)" xlink:href="#aU"/></g><g id="z"><use transform="matrix(0.05,0,0,0.05,0,0)" xlink:href="#aR"/><use transform="matrix(0.05,0,0,0.05,14.950000000000001,0)" xlink:href="#aP"/><use transform="matrix(0.05,0,0,0.05,18.900000000000002,0)" xlink:href="#bc"/><use transform="matrix(0.05,0,0,0.05,27.900000000000002,0)" xlink:href="#bc"/></g><path d="M33 0v-248h34V0H33" id="bo"/><g id="A"><use transform="matrix(0.05,0,0,0.05,0,0)" xlink:href="#bo"/><use transform="matrix(0.05,0,0,0.05,5,0)" xlink:href="#bc"/></g><g id="B"><use transform="matrix(0.05,0,0,0.05,0,0)" xlink:href="#bh"/><use transform="matrix(0.05,0,0,0.05,10,0)" xlink:href="#aW"/><use transform="matrix(0.05,0,0,0.05,13.949999999999998,0)" xlink:href="#aQ"/><use transform="matrix(0.05,0,0,0.05,23.95,0)" xlink:href="#aX"/><use transform="matrix(0.05,0,0,0.05,32.95,0)" xlink:href="#bg"/></g><g id="C"><use transform="matrix(0.05,0,0,0.05,0,0)" xlink:href="#aT"/><use transform="matrix(0.05,0,0,0.05,10,0)" xlink:href="#aQ"/><use transform="matrix(0.05,0,0,0.05,20,0)" xlink:href="#aQ"/><use transform="matrix(0.05,0,0,0.05,30,0)" xlink:href="#aW"/></g><path d="M103-251c84 0 111 97 45 133-19 10-37 24-39 52H78c0-63 77-55 77-114 0-30-21-42-52-43-32 0-53 17-56 46l-32-2c7-45 34-72 88-72zM77 0v-35h34V0H77" id="bp"/><g id="D"><use transform="matrix(0.05,0,0,0.05,0,0)" xlink:href="#aU"/><use transform="matrix(0.05,0,0,0.05,10,0)" xlink:href="#aR"/><use transform="matrix(0.05,0,0,0.05,24.950000000000003,0)" xlink:href="#aT"/><use transform="matrix(0.05,0,0,0.05,34.95,0)" xlink:href="#ba"/><use transform="matrix(0.05,0,0,0.05,39.95,0)" xlink:href="#aY"/><use transform="matrix(0.05,0,0,0.05,48.95,0)" xlink:href="#bp"/></g><path d="M205 0l-28-72H64L36 0H1l101-248h38L239 0h-34zm-38-99l-47-123c-12 45-31 82-46 123h93" id="bq"/><g id="E"><use transform="matrix(0.05,0,0,0.05,0,0)" xlink:href="#bq"/><use transform="matrix(0.05,0,0,0.05,12,0)" xlink:href="#aW"/><use transform="matrix(0.05,0,0,0.05,15.949999999999998,0)" xlink:href="#aW"/><use transform="matrix(0.05,0,0,0.05,19.9,0)" xlink:href="#aQ"/><use transform="matrix(0.05,0,0,0.05,29.899999999999995,0)" xlink:href="#aX"/><use transform="matrix(0.05,0,0,0.05,38.9,0)" xlink:href="#aS"/><use transform="matrix(0.05,0,0,0.05,48.9,0)" xlink:href="#ba"/><use transform="matrix(0.05,0,0,0.05,53.900000000000006,0)" xlink:href="#aU"/></g><g id="F"><use transform="matrix(0.05,0,0,0.05,0,0)" xlink:href="#bh"/><use transform="matrix(0.05,0,0,0.05,10,0)" xlink:href="#aW"/><use transform="matrix(0.05,0,0,0.05,13.949999999999998,0)" xlink:href="#aQ"/><use transform="matrix(0.05,0,0,0.05,23.95,0)" xlink:href="#aX"/><use transform="matrix(0.05,0,0,0.05,32.95,0)" xlink:href="#bg"/></g><path d="M206 0h-36l-40-164L89 0H53L-1-190h32L70-26l43-164h34l41 164 42-164h31" id="br"/><g id="G"><use transform="matrix(0.05,0,0,0.05,0,0)" xlink:href="#bi"/><use transform="matrix(0.05,0,0,0.05,10,0)" xlink:href="#aU"/><use transform="matrix(0.05,0,0,0.05,20,0)" xlink:href="#br"/></g><g id="H"><use transform="matrix(0.05,0,0,0.05,0,0)" xlink:href="#bo"/><use transform="matrix(0.05,0,0,0.05,5,0)" xlink:href="#bi"/><use transform="matrix(0.05,0,0,0.05,15,0)" xlink:href="#bc"/><use transform="matrix(0.05,0,0,0.05,24,0)" xlink:href="#aU"/><use transform="matrix(0.05,0,0,0.05,34,0)" xlink:href="#bn"/><use transform="matrix(0.05,0,0,0.05,39.95,0)" xlink:href="#ba"/></g><g id="I"><use transform="matrix(0.05,0,0,0.05,0,0)" xlink:href="#aX"/><use transform="matrix(0.05,0,0,0.05,9,0)" xlink:href="#aS"/><use transform="matrix(0.05,0,0,0.05,19,0)" xlink:href="#bb"/><use transform="matrix(0.05,0,0,0.05,29,0)" xlink:href="#aX"/><use transform="matrix(0.05,0,0,0.05,38,0)" xlink:href="#aU"/></g><g id="J"><use transform="matrix(0.05,0,0,0.05,0,0)" xlink:href="#aX"/><use transform="matrix(0.05,0,0,0.05,9,0)" xlink:href="#aW"/><use transform="matrix(0.05,0,0,0.05,12.949999999999998,0)" xlink:href="#aU"/><use transform="matrix(0.05,0,0,0.05,22.95,0)" xlink:href="#aS"/><use transform="matrix(0.05,0,0,0.05,32.95,0)" xlink:href="#bi"/></g><g id="K"><use transform="matrix(0.05,0,0,0.05,0,0)" xlink:href="#bh"/><use transform="matrix(0.05,0,0,0.05,10,0)" xlink:href="#aW"/><use transform="matrix(0.05,0,0,0.05,13.949999999999998,0)" xlink:href="#aQ"/><use transform="matrix(0.05,0,0,0.05,23.95,0)" xlink:href="#aX"/><use transform="matrix(0.05,0,0,0.05,32.95,0)" xlink:href="#bg"/><use transform="matrix(0.05,0,0,0.05,41.95,0)" xlink:href="#bc"/></g><g id="L"><use transform="matrix(0.05,0,0,0.05,0,0)" xlink:href="#bn"/><use transform="matrix(0.05,0,0,0.05,5.95,0)" xlink:href="#aU"/><use transform="matrix(0.05,0,0,0.05,15.949999999999998,0)" xlink:href="#aT"/><use transform="matrix(0.05,0,0,0.05,25.950000000000003,0)" xlink:href="#aW"/><use transform="matrix(0.05,0,0,0.05,29.899999999999995,0)" xlink:href="#aS"/><use transform="matrix(0.05,0,0,0.05,39.9,0)" xlink:href="#aX"/><use transform="matrix(0.05,0,0,0.05,48.9,0)" xlink:href="#aU"/></g><path d="M30 0v-248h187v28H63v79h144v27H63v87h162V0H30" id="bs"/><g id="M"><use transform="matrix(0.05,0,0,0.05,0,0)" xlink:href="#bs"/><use transform="matrix(0.05,0,0,0.05,12,0)" xlink:href="#bi"/><use transform="matrix(0.05,0,0,0.05,22,0)" xlink:href="#aV"/></g><g id="N"><use transform="matrix(0.05,0,0,0.05,0,0)" xlink:href="#aV"/><use transform="matrix(0.05,0,0,0.05,10,0)" xlink:href="#aU"/><use transform="matrix(0.05,0,0,0.05,20,0)" xlink:href="#aR"/><use transform="matrix(0.05,0,0,0.05,34.95,0)" xlink:href="#aQ"/><use transform="matrix(0.05,0,0,0.05,44.95,0)" xlink:href="#ba"/><use transform="matrix(0.05,0,0,0.05,49.95,0)" xlink:href="#aU"/></g><g id="O"><use transform="matrix(0.05,0,0,0.05,0,0)" xlink:href="#aX"/><use transform="matrix(0.05,0,0,0.05,9,0)" xlink:href="#bh"/><use transform="matrix(0.05,0,0,0.05,19,0)" xlink:href="#aW"/><use transform="matrix(0.05,0,0,0.05,22.95,0)" xlink:href="#aQ"/><use transform="matrix(0.05,0,0,0.05,32.95,0)" xlink:href="#aX"/><use transform="matrix(0.05,0,0,0.05,41.95,0)" xlink:href="#bg"/></g><path d="M141 0L90-78 38 0H4l68-98-65-92h35l48 74 47-74h35l-64 92 68 98h-35" id="bt"/><g id="P"><use transform="matrix(0.05,0,0,0.05,0,0)" xlink:href="#bs"/><use transform="matrix(0.05,0,0,0.05,12,0)" xlink:href="#bt"/><use transform="matrix(0.05,0,0,0.05,21,0)" xlink:href="#ba"/><use transform="matrix(0.05,0,0,0.05,26,0)" xlink:href="#bn"/><use transform="matrix(0.05,0,0,0.05,31.950000000000003,0)" xlink:href="#aS"/><use transform="matrix(0.05,0,0,0.05,41.95,0)" xlink:href="#aX"/><use transform="matrix(0.05,0,0,0.05,50.95,0)" xlink:href="#ba"/></g><g id="Q"><use transform="matrix(0.05,0,0,0.05,0,0)" xlink:href="#aP"/><use transform="matrix(0.05,0,0,0.05,3.95,0)" xlink:href="#bi"/><use transform="matrix(0.05,0,0,0.05,13.949999999999998,0)" xlink:href="#aQ"/><use transform="matrix(0.05,0,0,0.05,23.95,0)" xlink:href="#aV"/><use transform="matrix(0.05,0,0,0.05,33.95,0)" xlink:href="#aU"/></g><path d="M101-234c-31-9-42 10-38 44h38v23H63V0H32v-167H5v-23h27c-7-52 17-82 69-68v24" id="bu"/><g id="R"><use transform="matrix(0.05,0,0,0.05,0,0)" xlink:href="#bu"/><use transform="matrix(0.05,0,0,0.05,5,0)" xlink:href="#bn"/><use transform="matrix(0.05,0,0,0.05,10.95,0)" xlink:href="#aQ"/><use transform="matrix(0.05,0,0,0.05,20.95,0)" xlink:href="#aR"/></g><g id="S"><use transform="matrix(0.05,0,0,0.05,0,0)" xlink:href="#bh"/><use transform="matrix(0.05,0,0,0.05,10,0)" xlink:href="#aP"/><use transform="matrix(0.05,0,0,0.05,13.949999999999998,0)" xlink:href="#aQ"/></g><g id="T"><use transform="matrix(0.05,0,0,0.05,0,0)" xlink:href="#bo"/><use transform="matrix(0.05,0,0,0.05,5,0)" xlink:href="#bc"/></g><g id="U"><use transform="matrix(0.05,0,0,0.05,0,0)" xlink:href="#aP"/><use transform="matrix(0.05,0,0,0.05,3.95,0)" xlink:href="#bi"/><use transform="matrix(0.05,0,0,0.05,13.949999999999998,0)" xlink:href="#aQ"/><use transform="matrix(0.05,0,0,0.05,23.95,0)" xlink:href="#aV"/><use transform="matrix(0.05,0,0,0.05,33.95,0)" xlink:href="#aU"/></g><g id="V"><use transform="matrix(0.05,0,0,0.05,0,0)" xlink:href="#bi"/><use transform="matrix(0.05,0,0,0.05,10,0)" xlink:href="#be"/><use transform="matrix(0.05,0,0,0.05,20,0)" xlink:href="#aR"/><use transform="matrix(0.05,0,0,0.05,34.95,0)" xlink:href="#bh"/><use transform="matrix(0.05,0,0,0.05,44.95,0)" xlink:href="#aU"/><use transform="matrix(0.05,0,0,0.05,54.95,0)" xlink:href="#bn"/></g><g id="W"><use transform="matrix(0.05,0,0,0.05,0,0)" xlink:href="#aP"/><use transform="matrix(0.05,0,0,0.05,3.95,0)" xlink:href="#bi"/></g><path d="M177-190C167-65 218 103 67 71c-23-6-38-20-44-43l32-5c15 47 100 32 89-28v-30C133-14 115 1 83 1 29 1 15-40 15-95c0-56 16-97 71-98 29-1 48 16 59 35 1-10 0-23 2-32h30zM94-22c36 0 50-32 50-73 0-42-14-75-50-75-39 0-46 34-46 75s6 73 46 73" id="bv"/><g id="X"><use transform="matrix(0.05,0,0,0.05,0,0)" xlink:href="#ba"/><use transform="matrix(0.05,0,0,0.05,5,0)" xlink:href="#bn"/><use transform="matrix(0.05,0,0,0.05,10.95,0)" xlink:href="#aS"/><use transform="matrix(0.05,0,0,0.05,20.95,0)" xlink:href="#aX"/><use transform="matrix(0.05,0,0,0.05,29.950000000000003,0)" xlink:href="#bg"/><use transform="matrix(0.05,0,0,0.05,38.95,0)" xlink:href="#aP"/><use transform="matrix(0.05,0,0,0.05,42.900000000000006,0)" xlink:href="#bi"/><use transform="matrix(0.05,0,0,0.05,52.900000000000006,0)" xlink:href="#bv"/></g><g id="Y"><use transform="matrix(0.05,0,0,0.05,0,0)" xlink:href="#aW"/><use transform="matrix(0.05,0,0,0.05,3.95,0)" xlink:href="#aP"/><use transform="matrix(0.05,0,0,0.05,7.9,0)" xlink:href="#bc"/><use transform="matrix(0.05,0,0,0.05,16.9,0)" xlink:href="#ba"/><use transform="matrix(0.05,0,0,0.05,21.9,0)" xlink:href="#bp"/></g><g id="Z"><use transform="matrix(0.05,0,0,0.05,0,0)" xlink:href="#bk"/><use transform="matrix(0.05,0,0,0.05,12.950000000000001,0)" xlink:href="#aQ"/></g><g id="aa"><use transform="matrix(0.05,0,0,0.05,0,0)" xlink:href="#bl"/><use transform="matrix(0.05,0,0,0.05,12,0)" xlink:href="#aU"/><use transform="matrix(0.05,0,0,0.05,22,0)" xlink:href="#ba"/></g><g id="ab"><use transform="matrix(0.05,0,0,0.05,0,0)" xlink:href="#aT"/><use transform="matrix(0.05,0,0,0.05,10,0)" xlink:href="#aQ"/><use transform="matrix(0.05,0,0,0.05,20,0)" xlink:href="#aW"/><use transform="matrix(0.05,0,0,0.05,23.95,0)" xlink:href="#aP"/><use transform="matrix(0.05,0,0,0.05,27.899999999999995,0)" xlink:href="#aX"/><use transform="matrix(0.05,0,0,0.05,36.9,0)" xlink:href="#aY"/></g><g id="ac"><use transform="matrix(0.05,0,0,0.05,0,0)" xlink:href="#aR"/><use transform="matrix(0.05,0,0,0.05,14.950000000000001,0)" xlink:href="#aP"/><use transform="matrix(0.05,0,0,0.05,18.900000000000002,0)" xlink:href="#bc"/><use transform="matrix(0.05,0,0,0.05,27.900000000000002,0)" xlink:href="#bc"/></g><g id="ad"><use transform="matrix(0.05,0,0,0.05,0,0)" xlink:href="#bj"/><use transform="matrix(0.05,0,0,0.05,10.35,0)" xlink:href="#aU"/><use transform="matrix(0.05,0,0,0.05,20.35,0)" xlink:href="#bc"/></g><path d="M197 0v-115H63V0H30v-248h33v105h134v-105h34V0h-34" id="bw"/><g id="ae"><use transform="matrix(0.05,0,0,0.05,0,0)" xlink:href="#bw"/><use transform="matrix(0.05,0,0,0.05,12.950000000000001,0)" xlink:href="#aQ"/><use transform="matrix(0.05,0,0,0.05,22.950000000000003,0)" xlink:href="#br"/></g><g id="af"><use transform="matrix(0.05,0,0,0.05,0,0)" xlink:href="#aR"/><use transform="matrix(0.05,0,0,0.05,14.950000000000001,0)" xlink:href="#be"/><use transform="matrix(0.05,0,0,0.05,24.950000000000003,0)" xlink:href="#aX"/><use transform="matrix(0.05,0,0,0.05,33.95,0)" xlink:href="#bb"/></g><g id="ag"><use transform="matrix(0.05,0,0,0.05,0,0)" xlink:href="#aX"/><use transform="matrix(0.05,0,0,0.05,9,0)" xlink:href="#aS"/><use transform="matrix(0.05,0,0,0.05,19,0)" xlink:href="#aX"/><use transform="matrix(0.05,0,0,0.05,28,0)" xlink:href="#bb"/><use transform="matrix(0.05,0,0,0.05,38,0)" xlink:href="#aU"/></g><g id="ah"><use transform="matrix(0.05,0,0,0.05,0,0)" xlink:href="#bh"/><use transform="matrix(0.05,0,0,0.05,10,0)" xlink:href="#aU"/><use transform="matrix(0.05,0,0,0.05,20,0)" xlink:href="#aP"/><use transform="matrix(0.05,0,0,0.05,23.95,0)" xlink:href="#bi"/><use transform="matrix(0.05,0,0,0.05,33.95,0)" xlink:href="#bv"/></g><g id="ai"><use transform="matrix(0.05,0,0,0.05,0,0)" xlink:href="#be"/><use transform="matrix(0.05,0,0,0.05,10,0)" xlink:href="#bc"/><use transform="matrix(0.05,0,0,0.05,19,0)" xlink:href="#aU"/><use transform="matrix(0.05,0,0,0.05,29,0)" xlink:href="#aV"/></g><g id="aj"><use transform="matrix(0.05,0,0,0.05,0,0)" xlink:href="#bh"/><use transform="matrix(0.05,0,0,0.05,10,0)" xlink:href="#aY"/></g><g id="ak"><use transform="matrix(0.05,0,0,0.05,0,0)" xlink:href="#bu"/><use transform="matrix(0.05,0,0,0.05,5,0)" xlink:href="#aP"/><use transform="matrix(0.05,0,0,0.05,8.95,0)" xlink:href="#aW"/><use transform="matrix(0.05,0,0,0.05,12.899999999999999,0)" xlink:href="#aU"/><use transform="matrix(0.05,0,0,0.05,22.9,0)" xlink:href="#bp"/></g><path d="M240 0l2-218c-23 76-54 145-80 218h-23L58-218 59 0H30v-248h44l77 211c21-75 51-140 76-211h43V0h-30" id="bx"/><g id="al"><use transform="matrix(0.05,0,0,0.05,0,0)" xlink:href="#bx"/><use transform="matrix(0.05,0,0,0.05,14.950000000000001,0)" xlink:href="#aQ"/><use transform="matrix(0.05,0,0,0.05,24.950000000000003,0)" xlink:href="#bn"/><use transform="matrix(0.05,0,0,0.05,30.900000000000002,0)" xlink:href="#aU"/></g><g id="am"><use transform="matrix(0.05,0,0,0.05,0,0)" xlink:href="#ba"/><use transform="matrix(0.05,0,0,0.05,5,0)" xlink:href="#bb"/><use transform="matrix(0.05,0,0,0.05,15,0)" xlink:href="#aS"/><use transform="matrix(0.05,0,0,0.05,25,0)" xlink:href="#bi"/></g><g id="an"><use transform="matrix(0.05,0,0,0.05,0,0)" xlink:href="#bd"/><use transform="matrix(0.05,0,0,0.05,10,0)" xlink:href="#be"/><use transform="matrix(0.05,0,0,0.05,20,0)" xlink:href="#aQ"/><use transform="matrix(0.05,0,0,0.05,30,0)" xlink:href="#ba"/><use transform="matrix(0.05,0,0,0.05,35,0)" xlink:href="#aS"/></g><g id="ao"><use transform="matrix(0.05,0,0,0.05,0,0)" xlink:href="#bs"/><use transform="matrix(0.05,0,0,0.05,12,0)" xlink:href="#bt"/><use transform="matrix(0.05,0,0,0.05,21,0)" xlink:href="#aS"/><use transform="matrix(0.05,0,0,0.05,31,0)" xlink:href="#aX"/><use transform="matrix(0.05,0,0,0.05,40,0)" xlink:href="#ba"/><use transform="matrix(0.05,0,0,0.05,45,0)" xlink:href="#aW"/><use transform="matrix(0.05,0,0,0.05,48.95,0)" xlink:href="#aY"/></g><g id="ap"><use transform="matrix(0.05,0,0,0.05,0,0)" xlink:href="#aU"/><use transform="matrix(0.05,0,0,0.05,10,0)" xlink:href="#bd"/><use transform="matrix(0.05,0,0,0.05,20,0)" xlink:href="#be"/><use transform="matrix(0.05,0,0,0.05,30,0)" xlink:href="#aS"/><use transform="matrix(0.05,0,0,0.05,40,0)" xlink:href="#aW"/></g><g id="aq"><use transform="matrix(0.05,0,0,0.05,0,0)" xlink:href="#ba"/><use transform="matrix(0.05,0,0,0.05,5,0)" xlink:href="#aQ"/></g><path d="M233-177c-1 41-23 64-60 70L243 0h-38l-65-103H63V0H30v-248c88 3 205-21 203 71zM63-129c60-2 137 13 137-47 0-61-80-42-137-45v92" id="by"/><g id="ar"><use transform="matrix(0.05,0,0,0.05,0,0)" xlink:href="#by"/><use transform="matrix(0.05,0,0,0.05,12.950000000000001,0)" xlink:href="#aU"/><use transform="matrix(0.05,0,0,0.05,22.950000000000003,0)" xlink:href="#aT"/><use transform="matrix(0.05,0,0,0.05,32.95,0)" xlink:href="#aW"/><use transform="matrix(0.05,0,0,0.05,36.900000000000006,0)" xlink:href="#aS"/><use transform="matrix(0.05,0,0,0.05,46.900000000000006,0)" xlink:href="#aX"/><use transform="matrix(0.05,0,0,0.05,55.900000000000006,0)" xlink:href="#aU"/></g><g id="as"><use transform="matrix(0.05,0,0,0.05,0,0)" xlink:href="#br"/><use transform="matrix(0.05,0,0,0.05,12.950000000000001,0)" xlink:href="#aP"/><use transform="matrix(0.05,0,0,0.05,16.900000000000002,0)" xlink:href="#ba"/><use transform="matrix(0.05,0,0,0.05,21.900000000000002,0)" xlink:href="#bb"/></g><g id="at"><use transform="matrix(0.05,0,0,0.05,0,0)" xlink:href="#aX"/><use transform="matrix(0.05,0,0,0.05,9,0)" xlink:href="#bh"/><use transform="matrix(0.05,0,0,0.05,19,0)" xlink:href="#aW"/><use transform="matrix(0.05,0,0,0.05,22.95,0)" xlink:href="#aQ"/><use transform="matrix(0.05,0,0,0.05,32.95,0)" xlink:href="#aX"/><use transform="matrix(0.05,0,0,0.05,41.95,0)" xlink:href="#bg"/></g><g id="au"><use transform="matrix(0.05,0,0,0.05,0,0)" xlink:href="#br"/><use transform="matrix(0.05,0,0,0.05,12.950000000000001,0)" xlink:href="#aP"/><use transform="matrix(0.05,0,0,0.05,16.900000000000002,0)" xlink:href="#ba"/><use transform="matrix(0.05,0,0,0.05,21.900000000000002,0)" xlink:href="#bb"/></g><g id="av"><use transform="matrix(0.05,0,0,0.05,0,0)" xlink:href="#bc"/><use transform="matrix(0.05,0,0,0.05,9,0)" xlink:href="#aS"/><use transform="matrix(0.05,0,0,0.05,19,0)" xlink:href="#aR"/><use transform="matrix(0.05,0,0,0.05,33.95,0)" xlink:href="#aU"/></g><g id="aw"><use transform="matrix(0.05,0,0,0.05,0,0)" xlink:href="#aP"/><use transform="matrix(0.05,0,0,0.05,3.95,0)" xlink:href="#bi"/><use transform="matrix(0.05,0,0,0.05,13.949999999999998,0)" xlink:href="#aQ"/><use transform="matrix(0.05,0,0,0.05,23.95,0)" xlink:href="#aV"/><use transform="matrix(0.05,0,0,0.05,33.95,0)" xlink:href="#aU"/></g><g id="ax"><use transform="matrix(0.05,0,0,0.05,0,0)" xlink:href="#bf"/><use transform="matrix(0.05,0,0,0.05,10,0)" xlink:href="#aU"/><use transform="matrix(0.05,0,0,0.05,20,0)" xlink:href="#bc"/><use transform="matrix(0.05,0,0,0.05,29,0)" xlink:href="#bc"/></g><g id="ay"><use transform="matrix(0.05,0,0,0.05,0,0)" xlink:href="#aX"/><use transform="matrix(0.05,0,0,0.05,9,0)" xlink:href="#bh"/><use transform="matrix(0.05,0,0,0.05,19,0)" xlink:href="#aW"/><use transform="matrix(0.05,0,0,0.05,22.95,0)" xlink:href="#aQ"/><use transform="matrix(0.05,0,0,0.05,32.95,0)" xlink:href="#aX"/><use transform="matrix(0.05,0,0,0.05,41.95,0)" xlink:href="#bg"/></g><g id="az"><use transform="matrix(0.05,0,0,0.05,0,0)" xlink:href="#aX"/><use transform="matrix(0.05,0,0,0.05,9,0)" xlink:href="#aQ"/><use transform="matrix(0.05,0,0,0.05,19,0)" xlink:href="#bn"/><use transform="matrix(0.05,0,0,0.05,24.95,0)" xlink:href="#bn"/><use transform="matrix(0.05,0,0,0.05,30.899999999999995,0)" xlink:href="#aU"/><use transform="matrix(0.05,0,0,0.05,40.9,0)" xlink:href="#bc"/><use transform="matrix(0.05,0,0,0.05,49.9,0)" xlink:href="#aT"/><use transform="matrix(0.05,0,0,0.05,59.900000000000006,0)" xlink:href="#aQ"/><use transform="matrix(0.05,0,0,0.05,69.9,0)" xlink:href="#bi"/><use transform="matrix(0.05,0,0,0.05,79.9,0)" xlink:href="#aV"/><use transform="matrix(0.05,0,0,0.05,89.9,0)" xlink:href="#bc"/></g><g id="aA"><use transform="matrix(0.05,0,0,0.05,0,0)" xlink:href="#ba"/><use transform="matrix(0.05,0,0,0.05,5,0)" xlink:href="#aQ"/></g><g id="aB"><use transform="matrix(0.05,0,0,0.05,0,0)" xlink:href="#bu"/><use transform="matrix(0.05,0,0,0.05,5,0)" xlink:href="#aP"/><use transform="matrix(0.05,0,0,0.05,8.95,0)" xlink:href="#aW"/><use transform="matrix(0.05,0,0,0.05,12.899999999999999,0)" xlink:href="#aU"/></g><g id="aC"><use transform="matrix(0.05,0,0,0.05,0,0)" xlink:href="#br"/><use transform="matrix(0.05,0,0,0.05,12.950000000000001,0)" xlink:href="#bb"/><use transform="matrix(0.05,0,0,0.05,22.950000000000003,0)" xlink:href="#aP"/><use transform="matrix(0.05,0,0,0.05,26.900000000000002,0)" xlink:href="#aX"/><use transform="matrix(0.05,0,0,0.05,35.900000000000006,0)" xlink:href="#bb"/></g><g id="aD"><use transform="matrix(0.05,0,0,0.05,0,0)" xlink:href="#aP"/><use transform="matrix(0.05,0,0,0.05,3.95,0)" xlink:href="#bc"/></g><g id="aE"><use transform="matrix(0.05,0,0,0.05,0,0)" xlink:href="#be"/><use transform="matrix(0.05,0,0,0.05,10,0)" xlink:href="#bc"/><use transform="matrix(0.05,0,0,0.05,19,0)" xlink:href="#aP"/><use transform="matrix(0.05,0,0,0.05,22.95,0)" xlink:href="#bi"/><use transform="matrix(0.05,0,0,0.05,32.95,0)" xlink:href="#bv"/></g><g id="aF"><use transform="matrix(0.05,0,0,0.05,0,0)" xlink:href="#aR"/><use transform="matrix(0.05,0,0,0.05,14.950000000000001,0)" xlink:href="#aQ"/><use transform="matrix(0.05,0,0,0.05,24.950000000000003,0)" xlink:href="#bn"/><use transform="matrix(0.05,0,0,0.05,30.900000000000002,0)" xlink:href="#aU"/></g><g id="aG"><use transform="matrix(0.05,0,0,0.05,0,0)" xlink:href="#ba"/><use transform="matrix(0.05,0,0,0.05,5,0)" xlink:href="#bb"/><use transform="matrix(0.05,0,0,0.05,15,0)" xlink:href="#aS"/><use transform="matrix(0.05,0,0,0.05,25,0)" xlink:href="#ba"/></g><g id="aH"><use transform="matrix(0.05,0,0,0.05,0,0)" xlink:href="#aP"/><use transform="matrix(0.05,0,0,0.05,3.95,0)" xlink:href="#ba"/><use transform="matrix(0.05,0,0,0.05,8.95,0)" xlink:href="#bc"/></g><g id="aI"><use transform="matrix(0.05,0,0,0.05,0,0)" xlink:href="#bd"/><use transform="matrix(0.05,0,0,0.05,10,0)" xlink:href="#be"/><use transform="matrix(0.05,0,0,0.05,20,0)" xlink:href="#aQ"/><use transform="matrix(0.05,0,0,0.05,30,0)" xlink:href="#ba"/><use transform="matrix(0.05,0,0,0.05,35,0)" xlink:href="#aS"/></g><g id="aJ"><use transform="matrix(0.05,0,0,0.05,0,0)" xlink:href="#bn"/><use transform="matrix(0.05,0,0,0.05,5.95,0)" xlink:href="#aU"/><use transform="matrix(0.05,0,0,0.05,15.949999999999998,0)" xlink:href="#aT"/><use transform="matrix(0.05,0,0,0.05,25.950000000000003,0)" xlink:href="#aW"/><use transform="matrix(0.05,0,0,0.05,29.899999999999995,0)" xlink:href="#aS"/><use transform="matrix(0.05,0,0,0.05,39.9,0)" xlink:href="#aX"/><use transform="matrix(0.05,0,0,0.05,48.9,0)" xlink:href="#aU"/></g><path d="M30-248c118-7 216 8 213 122C240-48 200 0 122 0H30v-248zM63-27c89 8 146-16 146-99s-60-101-146-95v194" id="bz"/><g id="aK"><use transform="matrix(0.05,0,0,0.05,0,0)" xlink:href="#bz"/><use transform="matrix(0.05,0,0,0.05,12.950000000000001,0)" xlink:href="#aQ"/></g><g id="aL"><use transform="matrix(0.05,0,0,0.05,0,0)" xlink:href="#bi"/><use transform="matrix(0.05,0,0,0.05,10,0)" xlink:href="#aQ"/><use transform="matrix(0.05,0,0,0.05,20,0)" xlink:href="#ba"/></g><g id="aM"><use transform="matrix(0.05,0,0,0.05,0,0)" xlink:href="#bn"/><use transform="matrix(0.05,0,0,0.05,5.95,0)" xlink:href="#aU"/><use transform="matrix(0.05,0,0,0.05,15.949999999999998,0)" xlink:href="#aT"/><use transform="matrix(0.05,0,0,0.05,25.950000000000003,0)" xlink:href="#aW"/><use transform="matrix(0.05,0,0,0.05,29.899999999999995,0)" xlink:href="#aS"/><use transform="matrix(0.05,0,0,0.05,39.9,0)" xlink:href="#aX"/><use transform="matrix(0.05,0,0,0.05,48.9,0)" xlink:href="#aU"/></g><g id="aN"><use transform="matrix(0.05,0,0,0.05,0,0)" xlink:href="#aX"/><use transform="matrix(0.05,0,0,0.05,9,0)" xlink:href="#bh"/><use transform="matrix(0.05,0,0,0.05,19,0)" xlink:href="#aW"/><use transform="matrix(0.05,0,0,0.05,22.95,0)" xlink:href="#aQ"/><use transform="matrix(0.05,0,0,0.05,32.95,0)" xlink:href="#aX"/><use transform="matrix(0.05,0,0,0.05,41.95,0)" xlink:href="#bg"/></g></defs></g></svg>